G04 #@! TF.FileFunction,Soldermask,Bot*
%FSLAX46Y46*%
G04 Gerber Fmt 4.6, Leading zero omitted, Abs format (unit mm)*
G04 Created by KiCad (PCBNEW 4.0.7) date 07/12/20 21:39:17*
%MOMM*%
%LPD*%
G01*
G04 APERTURE LIST*
%ADD10C,0.100000*%
%ADD11R,5.480000X2.900000*%
%ADD12R,4.400000X1.400000*%
%ADD13R,2.400000X2.400000*%
%ADD14R,3.900000X3.900000*%
%ADD15O,1.400000X5.400000*%
%ADD16O,3.400000X1.400000*%
%ADD17O,5.400000X2.400000*%
%ADD18O,1.400000X3.400000*%
%ADD19O,5.400000X3.400000*%
%ADD20O,4.900000X4.900000*%
%ADD21O,3.900000X1.400000*%
%ADD22R,2.900000X5.480000*%
%ADD23C,2.900000*%
%ADD24R,2.100000X2.100000*%
%ADD25O,2.100000X2.100000*%
G04 APERTURE END LIST*
D10*
D11*
X59500000Y-99250000D03*
X59500000Y-106750000D03*
D12*
X124700000Y-49300000D03*
D13*
X137000000Y-39500000D03*
X132500000Y-39500000D03*
X132500000Y-36500000D03*
X137000000Y-36500000D03*
D12*
X124600000Y-41300000D03*
D11*
X154275000Y-50100000D03*
X154275000Y-42600000D03*
X154000000Y-61750000D03*
X154000000Y-54250000D03*
D14*
X103100000Y-78600000D03*
X97100000Y-78600000D03*
X100100000Y-83300000D03*
D11*
X153500000Y-97750000D03*
X153500000Y-90250000D03*
D12*
X123700000Y-125000000D03*
X123600000Y-110800000D03*
D13*
X153200000Y-124000000D03*
D12*
X123600000Y-130000000D03*
D13*
X148400000Y-120000000D03*
X153000000Y-120000000D03*
X148600000Y-123800000D03*
D12*
X123500000Y-119500000D03*
D11*
X153500000Y-116750000D03*
X153500000Y-109250000D03*
D15*
X119000000Y-111100000D03*
X119500000Y-124600000D03*
D16*
X122000000Y-108600000D03*
X126300000Y-108700000D03*
D17*
X123500000Y-113200000D03*
D18*
X120400000Y-40200000D03*
D15*
X120400000Y-46900000D03*
D17*
X123400000Y-127400000D03*
D19*
X123400000Y-122300000D03*
D20*
X125500000Y-45200000D03*
D21*
X123100000Y-51200000D03*
X127900000Y-51300000D03*
D11*
X59900000Y-112450000D03*
X59900000Y-119950000D03*
D22*
X63150000Y-129000000D03*
X70650000Y-129000000D03*
D13*
X69600000Y-80100000D03*
X75400000Y-85300000D03*
X75200000Y-80000000D03*
X69700000Y-85600000D03*
D11*
X60200000Y-49250000D03*
X60200000Y-56750000D03*
D22*
X78900000Y-34475000D03*
X71400000Y-34475000D03*
D13*
X89800000Y-45600000D03*
X89800000Y-50400000D03*
X85000000Y-50400000D03*
X84800000Y-45600000D03*
D23*
X118000000Y-95640000D03*
X115500000Y-90600000D03*
X120500000Y-90600000D03*
D24*
X97300000Y-87100000D03*
D25*
X99840000Y-87100000D03*
X102380000Y-87100000D03*
D14*
X65500000Y-89400000D03*
X59500000Y-89400000D03*
X62500000Y-94100000D03*
X87800000Y-40200000D03*
X87800000Y-34200000D03*
X83100000Y-37200000D03*
D17*
X137500000Y-34000000D03*
X130000000Y-34000000D03*
X137400000Y-53700000D03*
X130200000Y-53700000D03*
X134200000Y-130600000D03*
X134000000Y-103800000D03*
X141200000Y-130600000D03*
X141000000Y-103800000D03*
M02*
