M48
;DRILL file {KiCad 4.0.7} date 07/12/20 21:39:18
;FORMAT={-:-/ absolute / metric / decimal}
FMAT,2
METRIC,TZ
T1C0.400
T2C0.600
T3C1.000
T4C1.200
T5C1.250
%
G90
G05
M71
T1
X58.Y-47.4
X59.Y-96.8
X59.2Y-93.4
X59.4Y-95.
X59.6Y-47.2
X60.Y-110.
X60.2Y-108.8
X60.8Y-127.
X61.Y-59.
X61.Y-96.8
X61.Y-125.6
X61.2Y-128.2
X61.4Y-124.2
X61.8Y-47.2
X61.8Y-122.2
X61.8Y-123.
X62.Y-59.8
X62.3Y-101.6
X62.8Y-96.8
X63.Y-47.2
X63.2Y-116.7
X63.4Y-60.2
X63.4Y-115.8
X63.5Y-101.8
X63.6Y-109.4
X63.7Y-102.8
X63.9Y-108.2
X64.Y-97.
X64.2Y-47.8
X64.2Y-117.1
X64.3Y-115.6
X64.6Y-49.
X64.6Y-110.2
X64.8Y-60.6
X65.3Y-112.1
X65.4Y-50.4
X65.4Y-113.2
X65.5Y-99.7
X66.2Y-97.1
X66.4Y-60.8
X66.6Y-113.4
X67.2Y-50.8
X67.2Y-112.3
X67.8Y-60.8
X68.Y-106.7
X68.6Y-106.3
X68.8Y-51.2
X69.5Y-105.3
X69.6Y-106.3
X70.Y-56.4
X70.4Y-57.2
X70.4Y-125.
X70.7Y-105.3
X70.7Y-106.2
X70.9Y-101.5
X71.Y-124.2
X71.2Y-62.6
X71.4Y-34.475
X71.4Y-50.6
X71.4Y-57.6
X71.5Y-106.2
X71.8Y-58.4
X71.8Y-105.3
X72.Y-124.
X72.1Y-104.
X72.1Y-119.2
X72.2Y-57.4
X72.4Y-37.6
X72.4Y-42.
X72.4Y-43.
X72.4Y-59.2
X72.4Y-103.
X72.5Y-99.7
X72.6Y-39.8
X72.6Y-44.
X72.6Y-129.4
X72.8Y-46.
X72.8Y-47.6
X72.8Y-49.2
X72.9Y-105.5
X72.9Y-118.9
X73.2Y-63.4
X73.2Y-128.4
X73.4Y-117.4
X73.4Y-120.6
X73.5Y-126.
X73.6Y-106.2
X73.6Y-119.5
X73.6Y-127.4
X73.7Y-116.4
X73.8Y-107.3
X73.9Y-114.4
X74.Y-113.
X74.Y-118.
X74.1Y-99.6
X74.2Y-56.6
X74.2Y-111.6
X74.4Y-59.4
X74.4Y-120.
X74.7Y-115.3
X74.8Y-57.8
X74.8Y-118.8
X75.Y-117.6
X75.2Y-110.8
X75.2Y-116.2
X75.3Y-124.2
X75.4Y-56.8
X75.4Y-115.
X75.6Y-59.4
X75.6Y-113.8
X76.Y-63.4
X76.Y-95.9
X76.Y-112.
X76.6Y-56.8
X77.2Y-59.4
X77.4Y-52.
X77.4Y-93.9
X78.Y-37.8
X78.Y-38.8
X78.2Y-39.8
X78.4Y-63.4
X78.8Y-40.4
X78.8Y-52.6
X78.8Y-58.
X79.Y-41.2
X79.Y-59.2
X79.2Y-51.
X79.6Y-41.8
X79.6Y-50.
X79.6Y-51.8
X79.8Y-58.4
X80.2Y-43.4
X80.2Y-50.6
X80.6Y-44.6
X80.6Y-54.2
X80.8Y-46.4
X80.8Y-57.2
X80.8Y-63.4
X81.Y-34.6
X81.Y-51.8
X81.2Y-56.2
X81.4Y-33.6
X81.4Y-55.2
X81.6Y-47.8
X81.6Y-54.2
X82.Y-49.4
X82.Y-51.6
X82.Y-52.8
X82.8Y-33.6
X82.8Y-63.2
X84.6Y-33.6
X85.2Y-63.
X85.8Y-55.
X85.8Y-56.8
X85.8Y-57.8
X86.Y-53.8
X86.6Y-62.6
X88.4Y-62.
X89.8Y-61.
X91.2Y-36.
X91.4Y-38.8
X91.6Y-40.6
X92.Y-42.4
X92.Y-44.4
X92.Y-46.
X92.6Y-47.2
X93.8Y-68.7
X94.3Y-86.3
X94.5Y-89.3
X94.5Y-94.1
X94.6Y-97.3
X95.5Y-67.3
X96.1Y-72.
X96.2Y-84.
X96.4Y-74.4
X96.5Y-99.7
X96.8Y-81.9
X100.5Y-99.9
X101.5Y-67.
X102.8Y-67.
X104.6Y-99.9
X106.9Y-66.8
X108.1Y-99.7
X108.6Y-76.
X109.4Y-86.8
X109.4Y-88.9
X110.6Y-66.9
X111.1Y-86.
X111.4Y-76.
X111.6Y-87.6
X111.6Y-88.5
X111.6Y-89.9
X112.Y-99.5
X114.6Y-66.9
X115.5Y-99.5
X119.2Y-99.8
X120.3Y-66.9
X121.4Y-116.9
X121.5Y-114.9
X122.5Y-117.3
X122.7Y-79.4
X123.Y-114.9
X123.3Y-99.7
X123.5Y-91.7
X124.5Y-66.6
X124.5Y-115.2
X124.7Y-92.4
X124.8Y-77.8
X124.9Y-90.6
X124.9Y-91.7
X125.Y-116.9
X125.7Y-92.3
X126.3Y-90.5
X126.3Y-119.1
X126.6Y-115.6
X126.8Y-99.3
X126.8Y-129.5
X127.375Y-104.45
X127.4Y-121.7
X127.4Y-122.8
X127.4Y-127.7
X127.5Y-118.4
X127.7Y-127.7
X127.8Y-90.5
X127.9Y-114.5
X127.9Y-121.
X128.3Y-116.7
X128.3Y-123.
X128.5Y-115.5
X128.5Y-129.3
X129.Y-121.
X129.1Y-91.3
X129.2Y-113.2
X129.3Y-122.9
X129.4Y-105.4
X129.7Y-66.8
X129.7Y-114.2
X129.8Y-127.6
X129.8Y-129.2
X130.5Y-99.7
X130.6Y-113.1
X131.3Y-71.7
X131.3Y-129.5
X131.4Y-128.2
X131.6Y-105.4
X132.3Y-80.8
X132.9Y-89.2
X133.Y-90.5
X133.5Y-123.1
X133.8Y-120.
X133.9Y-123.8
X134.Y-46.
X134.Y-47.5
X134.1Y-71.7
X134.3Y-67.
X134.3Y-88.8
X134.4Y-42.6
X134.5Y-109.1
X134.5Y-120.8
X134.5Y-122.7
X134.6Y-90.2
X134.7Y-44.
X134.9Y-99.5
X134.9Y-109.8
X135.2Y-106.
X135.2Y-121.9
X135.5Y-118.7
X135.6Y-123.9
X135.7Y-42.1
X135.7Y-88.7
X135.7Y-122.9
X135.8Y-119.7
X135.9Y-117.7
X135.9Y-121.1
X136.1Y-89.5
X136.1Y-109.9
X136.7Y-93.5
X136.8Y-42.
X136.8Y-88.8
X136.8Y-121.9
X137.Y-42.8
X137.Y-88.1
X137.Y-92.8
X137.Y-109.
X137.1Y-116.8
X137.1Y-120.3
X137.2Y-123.8
X137.3Y-108.2
X137.3Y-113.4
X137.3Y-116.1
X137.6Y-105.9
X137.6Y-107.5
X137.9Y-92.5
X137.9Y-94.4
X138.Y-91.5
X138.Y-93.4
X138.2Y-42.7
X138.2Y-90.5
X138.2Y-124.4
X138.3Y-113.6
X138.5Y-122.
X138.7Y-67.
X138.7Y-120.7
X138.9Y-99.6
X139.3Y-90.2
X139.3Y-106.
X139.4Y-43.8
X139.6Y-42.6
X139.8Y-113.5
X139.8Y-120.3
X140.Y-90.5
X140.Y-122.
X140.2Y-116.2
X141.Y-90.6
X141.Y-113.7
X141.2Y-105.8
X141.2Y-109.3
X141.2Y-112.
X141.2Y-115.2
X141.3Y-43.7
X141.8Y-114.3
X142.4Y-44.1
X142.5Y-67.
X142.6Y-124.
X142.7Y-115.3
X142.8Y-99.4
X142.8Y-116.2
X142.85Y-105.925
X143.4Y-122.8
X143.5Y-44.4
X143.8Y-75.3
X144.4Y-119.
X144.6Y-75.9
X144.6Y-116.4
X144.7Y-105.9
X144.8Y-121.4
X144.9Y-44.4
X145.3Y-67.1
X145.5Y-79.
X145.67Y-55.85
X145.9Y-98.9
X146.Y-116.7
X146.2Y-44.4
X146.3Y-78.6
X146.5Y-85.7
X146.8Y-106.125
X146.9Y-84.9
X147.1Y-116.4
X147.4Y-97.7
X147.5Y-91.6
X147.9Y-44.4
X148.Y-116.3
X148.6Y-89.7
X148.6Y-128.4
X148.9Y-90.9
X149.Y-130.
X149.1Y-67.2
X149.2Y-115.
X149.3Y-96.9
X149.4Y-106.2
X149.7Y-90.
X149.8Y-44.1
X150.1Y-91.1
X150.6Y-115.
X151.4Y-106.2
X151.5Y-67.1
X152.Y-40.
X152.Y-114.8
X152.7Y-84.5
X153.Y-52.
X153.Y-106.5
X153.2Y-114.8
X153.8Y-67.1
X153.8Y-84.6
X154.5Y-40.
X155.38Y-122.51
X155.42Y-119.06
X155.42Y-120.75
X155.46Y-125.08
X155.5Y-52.
T2
X123.5Y-119.5
X123.6Y-110.8
X123.6Y-130.
X123.7Y-125.
X124.6Y-41.3
X124.7Y-49.3
T3
X97.3Y-87.1
X99.84Y-87.1
X102.38Y-87.1
T4
X115.5Y-90.6
X118.Y-95.64
X120.5Y-90.6
T5
X69.6Y-80.1
X69.7Y-85.6
X75.2Y-80.
X75.4Y-85.3
X84.8Y-45.6
X85.Y-50.4
X89.8Y-45.6
X89.8Y-50.4
X132.5Y-36.5
X132.5Y-39.5
X137.Y-36.5
X137.Y-39.5
X148.4Y-120.
X148.6Y-123.8
X153.Y-120.
X153.2Y-124.
T3
X59.5Y-88.4G85X59.5Y-90.4
G05
X61.5Y-94.1G85X63.5Y-94.1
G05
X65.5Y-88.4G85X65.5Y-90.4
G05
X83.1Y-36.2G85X83.1Y-38.2
G05
X88.8Y-34.2G85X86.8Y-34.2
G05
X88.8Y-40.2G85X86.8Y-40.2
G05
X97.1Y-77.6G85X97.1Y-79.6
G05
X99.1Y-83.3G85X101.1Y-83.3
G05
X103.1Y-77.6G85X103.1Y-79.6
G05
T0
M30
