M48
;DRILL file {KiCad 4.0.7} date 07/31/20 11:45:55
;FORMAT={-:-/ absolute / metric / decimal}
FMAT,2
METRIC,TZ
T1C0.400
T2C0.600
T3C1.000
T4C1.200
T5C1.250
%
G90
G05
M71
T1
X57.5Y-45.25
X58.Y-43.25
X58.Y-47.4
X58.Y-91.25
X58.Y-93.25
X58.Y-95.75
X58.Y-109.75
X58.Y-111.5
X58.25Y-81.5
X58.25Y-130.75
X58.5Y-41.25
X58.5Y-77.
X58.5Y-79.5
X58.5Y-128.25
X58.75Y-124.75
X58.75Y-126.
X59.Y-39.25
X59.Y-96.8
X59.2Y-93.4
X59.25Y-35.25
X59.25Y-37.
X59.4Y-95.
X59.5Y-34.
X59.6Y-47.2
X59.75Y-60.5
X60.Y-79.
X60.Y-84.
X60.Y-110.
X60.2Y-108.8
X60.55Y-123.57
X60.55Y-126.81
X60.64Y-124.54
X60.66Y-125.65
X60.75Y-130.75
X60.87Y-128.4
X61.Y-59.
X61.Y-82.
X61.Y-96.8
X61.25Y-62.5
X61.5Y-43.
X61.75Y-33.25
X61.75Y-39.25
X61.75Y-40.75
X61.75Y-45.25
X61.75Y-95.5
X61.8Y-47.2
X61.87Y-123.31
X62.Y-59.8
X62.25Y-74.25
X62.72Y-101.71
X62.8Y-96.8
X63.Y-37.5
X63.Y-47.2
X63.25Y-119.5
X63.4Y-60.2
X63.5Y-95.5
X63.5Y-101.8
X63.5Y-122.5
X63.6Y-102.62
X63.6Y-109.4
X63.75Y-75.75
X63.75Y-120.75
X63.75Y-124.75
X64.Y-63.75
X64.Y-79.
X64.Y-97.
X64.Y-108.4
X64.2Y-47.8
X64.4Y-109.7
X64.5Y-33.25
X64.6Y-49.
X64.62Y-112.59
X64.7Y-117.7
X64.7Y-118.8
X64.8Y-60.6
X65.25Y-36.5
X65.25Y-94.75
X65.36Y-113.22
X65.4Y-50.4
X65.5Y-44.5
X65.5Y-99.7
X65.6Y-119.
X65.75Y-42.75
X66.2Y-97.1
X66.2Y-111.94
X66.2Y-112.65
X66.4Y-60.8
X66.5Y-33.
X66.75Y-36.5
X66.8Y-106.59
X67.Y-64.5
X67.Y-77.
X67.Y-93.25
X67.2Y-50.8
X67.25Y-91.5
X67.5Y-41.
X67.5Y-71.5
X67.8Y-60.8
X68.Y-106.7
X68.29Y-107.47
X68.44Y-105.98
X68.48Y-121.96
X68.48Y-123.36
X68.5Y-47.5
X68.67Y-104.66
X68.75Y-36.5
X68.75Y-73.
X68.8Y-51.2
X68.97Y-105.36
X69.Y-39.5
X69.47Y-123.17
X69.5Y-91.25
X69.6Y-106.3
X69.75Y-44.25
X70.Y-56.4
X70.Y-75.
X70.2Y-108.1
X70.25Y-64.25
X70.55Y-123.28
X70.58Y-56.95
X70.7Y-105.3
X70.7Y-106.2
X70.9Y-101.5
X71.Y-41.25
X71.2Y-62.6
X71.25Y-39.75
X71.26Y-57.18
X71.3Y-108.2
X71.4Y-34.475
X71.4Y-50.6
X71.48Y-123.12
X71.5Y-106.2
X71.8Y-58.4
X71.8Y-105.3
X71.92Y-57.04
X72.Y-70.25
X72.Y-122.34
X72.1Y-104.
X72.1Y-119.2
X72.4Y-37.6
X72.4Y-43.
X72.4Y-59.2
X72.4Y-103.
X72.4Y-123.71
X72.47Y-124.98
X72.5Y-99.7
X72.5Y-108.1
X72.5Y-131.25
X72.6Y-39.8
X72.6Y-41.3
X72.6Y-44.
X72.6Y-129.4
X72.7Y-53.8
X72.8Y-46.
X72.8Y-47.6
X72.8Y-49.2
X72.9Y-105.5
X72.9Y-118.9
X73.Y-130.25
X73.08Y-56.1
X73.2Y-63.4
X73.2Y-128.4
X73.28Y-54.81
X73.4Y-117.4
X73.4Y-120.6
X73.58Y-125.61
X73.6Y-106.2
X73.6Y-119.5
X73.6Y-127.4
X73.66Y-116.04
X73.7Y-108.51
X73.75Y-64.5
X73.8Y-107.3
X73.86Y-110.31
X73.92Y-114.77
X73.99Y-54.63
X74.Y-75.
X74.Y-118.
X74.01Y-102.89
X74.07Y-55.42
X74.1Y-99.6
X74.2Y-56.6
X74.4Y-59.4
X74.4Y-107.9
X74.4Y-120.
X74.43Y-115.38
X74.45Y-108.84
X74.58Y-124.64
X74.59Y-114.15
X74.6Y-110.2
X74.75Y-72.
X74.75Y-109.51
X74.8Y-57.8
X74.8Y-111.4
X74.8Y-118.8
X75.Y-117.6
X75.2Y-106.8
X75.2Y-116.2
X75.25Y-128.
X75.4Y-56.8
X75.5Y-131.
X75.52Y-103.88
X75.6Y-59.4
X75.7Y-113.8
X75.9Y-120.6
X75.91Y-101.36
X76.Y-63.4
X76.Y-95.9
X76.1Y-119.9
X76.25Y-129.75
X76.3Y-107.5
X76.3Y-112.
X76.5Y-109.1
X76.5Y-110.7
X76.5Y-117.1
X76.5Y-118.1
X76.6Y-56.8
X76.6Y-114.
X76.6Y-115.8
X76.76Y-36.98
X76.87Y-36.21
X77.Y-69.5
X77.Y-75.
X77.2Y-59.4
X77.24Y-50.28
X77.25Y-64.5
X77.4Y-52.
X77.4Y-93.9
X77.46Y-51.14
X77.5Y-71.75
X77.5Y-127.75
X77.67Y-56.72
X77.7Y-53.32
X77.75Y-37.84
X77.8Y-38.72
X77.82Y-39.66
X77.86Y-40.71
X78.4Y-63.4
X78.49Y-56.27
X78.72Y-41.18
X78.75Y-129.75
X78.75Y-130.75
X78.78Y-50.56
X78.79Y-51.36
X78.8Y-52.6
X78.8Y-58.
X78.87Y-49.79
X79.Y-59.2
X79.Y-76.
X79.13Y-53.32
X79.13Y-55.37
X79.25Y-54.27
X79.6Y-41.8
X79.8Y-58.4
X79.88Y-51.26
X80.Y-127.
X80.01Y-50.21
X80.2Y-43.4
X80.6Y-44.6
X80.6Y-54.2
X80.8Y-46.4
X80.8Y-57.2
X80.8Y-63.4
X81.Y-34.6
X81.Y-51.8
X81.Y-69.
X81.Y-121.
X81.Y-124.
X81.2Y-56.2
X81.25Y-73.
X81.4Y-33.6
X81.4Y-55.2
X81.5Y-64.5
X81.5Y-128.5
X81.5Y-130.
X81.6Y-47.8
X81.6Y-54.2
X82.Y-49.4
X82.Y-51.6
X82.Y-52.8
X82.Y-78.
X82.Y-96.
X82.Y-105.
X82.Y-109.
X82.Y-113.
X82.Y-118.
X82.8Y-33.6
X82.8Y-63.2
X83.Y-82.
X83.Y-86.
X83.Y-92.
X83.Y-100.
X83.Y-126.5
X83.25Y-70.25
X83.5Y-75.
X83.75Y-123.25
X84.6Y-33.6
X84.75Y-78.75
X84.75Y-117.5
X84.75Y-119.75
X85.Y-111.75
X85.Y-128.5
X85.2Y-63.
X85.25Y-72.5
X85.25Y-100.25
X85.25Y-105.5
X85.25Y-107.75
X85.25Y-115.25
X85.5Y-89.
X85.75Y-82.25
X85.75Y-86.
X85.75Y-92.75
X85.8Y-55.
X85.8Y-56.8
X85.8Y-57.8
X86.Y-53.8
X86.Y-64.
X86.25Y-96.75
X86.25Y-125.
X86.6Y-62.6
X87.25Y-117.
X87.25Y-118.75
X87.25Y-121.25
X87.5Y-75.5
X87.5Y-108.5
X87.75Y-79.
X87.75Y-112.25
X87.75Y-114.75
X88.4Y-62.
X88.5Y-83.5
X88.5Y-88.25
X88.5Y-92.
X88.5Y-98.25
X88.5Y-105.
X88.75Y-94.5
X88.75Y-101.5
X89.8Y-61.
X90.75Y-33.5
X90.75Y-63.25
X91.2Y-36.
X91.4Y-38.8
X91.6Y-40.6
X92.Y-42.4
X92.Y-44.4
X92.Y-46.
X92.5Y-33.75
X92.6Y-47.2
X93.5Y-35.
X93.5Y-36.75
X93.5Y-39.
X93.75Y-42.
X93.75Y-44.5
X93.75Y-61.5
X94.Y-46.
X94.Y-53.
X94.Y-55.
X94.25Y-48.5
X94.25Y-51.
X94.25Y-58.75
X99.4Y-79.2
X99.5Y-72.
X99.6Y-75.4
X99.7Y-83.2
X100.1Y-88.3
X100.5Y-68.8
X102.4Y-90.7
X102.8Y-67.
X103.5Y-73.
X105.25Y-71.
X105.4Y-93.2
X106.9Y-66.8
X107.5Y-73.
X108.4Y-96.1
X109.75Y-71.
X110.Y-95.5
X110.6Y-66.9
X111.3Y-97.7
X111.75Y-95.25
X112.Y-70.5
X113.75Y-97.
X114.6Y-66.9
X115.Y-109.25
X115.Y-110.5
X115.Y-113.
X115.Y-116.25
X115.Y-120.75
X115.25Y-123.5
X115.25Y-126.5
X115.5Y-71.5
X115.5Y-99.5
X115.75Y-49.25
X115.75Y-98.
X116.Y-106.25
X116.Y-130.
X116.25Y-44.75
X116.25Y-118.5
X116.5Y-40.5
X116.5Y-53.
X116.5Y-116.
X117.Y-38.25
X117.Y-76.
X117.Y-104.25
X117.Y-109.
X117.Y-111.25
X117.Y-113.25
X117.Y-120.5
X117.Y-124.75
X117.25Y-107.
X117.5Y-98.75
X117.5Y-127.5
X117.75Y-131.
X118.1Y-89.5
X118.25Y-129.25
X118.5Y-35.5
X118.5Y-40.
X118.5Y-118.5
X118.75Y-41.75
X118.75Y-106.
X119.Y-49.5
X119.Y-51.5
X119.2Y-99.8
X119.25Y-48.
X119.25Y-55.75
X119.25Y-120.
X119.4Y-88.9
X119.5Y-45.5
X119.5Y-76.1
X119.5Y-130.75
X119.75Y-37.
X119.75Y-116.75
X120.Y-43.75
X120.1Y-86.8
X120.3Y-66.9
X120.5Y-53.
X120.75Y-34.25
X120.75Y-105.5
X120.75Y-118.5
X121.Y-98.75
X121.Y-120.
X121.25Y-56.75
X121.25Y-103.
X121.25Y-131.25
X121.5Y-37.
X121.75Y-43.
X122.25Y-93.75
X122.25Y-105.5
X122.5Y-97.75
X122.7Y-79.4
X122.75Y-96.25
X123.25Y-34.75
X123.25Y-57.5
X123.25Y-118.25
X123.3Y-99.7
X123.5Y-54.75
X123.5Y-87.25
X123.5Y-90.
X123.75Y-37.75
X123.75Y-94.5
X124.Y-92.25
X124.5Y-66.6
X124.5Y-118.5
X124.75Y-105.75
X124.8Y-77.8
X125.25Y-102.25
X125.5Y-38.
X125.75Y-36.
X125.75Y-89.75
X125.75Y-120.25
X126.Y-91.
X126.Y-98.
X126.25Y-55.75
X126.25Y-58.25
X126.25Y-119.
X126.5Y-87.75
X126.8Y-99.3
X126.8Y-129.5
X127.Y-105.75
X127.Y-114.5
X127.25Y-37.
X127.25Y-85.75
X127.25Y-102.25
X127.25Y-117.5
X127.28Y-89.69
X127.4Y-121.7
X127.4Y-122.8
X127.4Y-127.7
X127.5Y-42.75
X127.5Y-95.07
X127.56Y-92.66
X127.7Y-127.7
X127.83Y-91.27
X127.9Y-121.
X128.Y-116.5
X128.25Y-39.
X128.3Y-123.
X128.46Y-95.81
X128.47Y-90.16
X128.5Y-113.75
X128.5Y-129.3
X128.79Y-91.42
X128.84Y-87.95
X129.Y-121.
X129.25Y-42.5
X129.25Y-56.25
X129.25Y-83.75
X129.25Y-114.75
X129.3Y-122.9
X129.4Y-105.4
X129.7Y-66.8
X129.8Y-96.62
X129.8Y-127.6
X129.8Y-129.2
X130.Y-58.25
X130.Y-102.25
X130.5Y-99.7
X130.5Y-113.75
X130.75Y-82.5
X131.Y-42.
X131.04Y-89.8
X131.23Y-97.05
X131.3Y-71.7
X131.3Y-129.5
X131.4Y-128.2
X131.41Y-87.6
X131.6Y-105.4
X131.75Y-112.75
X132.3Y-80.8
X132.46Y-90.39
X132.5Y-56.25
X132.5Y-126.75
X132.95Y-97.56
X133.Y-128.75
X133.25Y-58.25
X133.25Y-81.75
X133.5Y-102.
X133.5Y-123.1
X133.53Y-45.03
X133.76Y-43.42
X133.79Y-87.86
X133.8Y-120.
X133.83Y-89.38
X133.9Y-123.8
X133.95Y-47.87
X133.96Y-44.38
X134.1Y-71.7
X134.13Y-109.83
X134.25Y-38.
X134.3Y-67.
X134.4Y-42.6
X134.5Y-82.25
X134.5Y-109.1
X134.5Y-120.8
X134.5Y-122.7
X134.54Y-47.15
X134.69Y-44.07
X134.75Y-84.5
X134.75Y-126.5
X134.9Y-99.5
X134.93Y-107.68
X135.06Y-47.88
X135.07Y-97.86
X135.16Y-109.64
X135.2Y-106.
X135.2Y-121.9
X135.21Y-44.62
X135.22Y-49.09
X135.25Y-40.25
X135.25Y-56.25
X135.3Y-116.94
X135.37Y-47.13
X135.4Y-108.44
X135.48Y-90.39
X135.5Y-118.7
X135.6Y-123.9
X135.7Y-42.1
X135.7Y-122.9
X135.75Y-44.17
X135.75Y-74.75
X135.8Y-119.7
X135.9Y-117.7
X135.9Y-121.1
X136.Y-86.
X136.Y-125.5
X136.1Y-109.9
X136.32Y-43.44
X136.49Y-118.28
X136.5Y-76.75
X136.65Y-42.75
X136.75Y-102.
X136.8Y-42.
X136.8Y-121.9
X137.Y-73.25
X137.Y-109.
X137.08Y-97.78
X137.1Y-116.8
X137.1Y-118.81
X137.1Y-120.3
X137.2Y-123.8
X137.3Y-108.2
X137.3Y-113.4
X137.3Y-116.1
X137.42Y-42.78
X137.6Y-105.9
X137.6Y-107.5
X137.75Y-78.
X137.9Y-92.5
X137.9Y-94.4
X137.92Y-42.44
X138.Y-91.5
X138.Y-93.4
X138.Y-125.5
X138.2Y-90.5
X138.2Y-124.4
X138.25Y-55.75
X138.25Y-58.
X138.25Y-74.5
X138.25Y-79.5
X138.25Y-86.
X138.3Y-113.6
X138.39Y-119.18
X138.5Y-122.
X138.7Y-67.
X138.7Y-120.7
X138.76Y-89.23
X138.9Y-99.6
X139.Y-76.25
X139.Y-102.
X139.07Y-42.41
X139.25Y-38.
X139.25Y-43.63
X139.3Y-90.2
X139.3Y-106.
X139.5Y-87.25
X139.5Y-125.
X139.5Y-126.25
X139.61Y-107.46
X139.73Y-44.18
X139.75Y-55.75
X139.75Y-84.25
X139.8Y-113.5
X139.8Y-120.3
X140.Y-58.
X140.Y-90.5
X140.Y-122.
X140.13Y-114.44
X140.2Y-116.2
X140.22Y-42.37
X140.28Y-89.32
X140.5Y-87.75
X140.52Y-108.06
X141.Y-38.
X141.Y-51.75
X141.Y-58.75
X141.Y-90.6
X141.Y-113.7
X141.2Y-105.8
X141.2Y-109.5
X141.2Y-111.3
X141.2Y-115.2
X141.25Y-74.
X141.3Y-43.7
X141.5Y-54.
X141.5Y-84.75
X141.5Y-89.2
X141.75Y-56.
X141.8Y-114.3
X142.Y-61.
X142.25Y-101.75
X142.4Y-44.1
X142.5Y-38.
X142.5Y-53.
X142.5Y-67.
X142.55Y-46.14
X142.6Y-124.
X142.7Y-115.3
X142.75Y-51.
X142.8Y-99.4
X142.8Y-116.2
X142.83Y-44.84
X142.85Y-105.925
X143.Y-86.
X143.4Y-122.8
X143.5Y-37.75
X143.5Y-44.4
X143.75Y-57.5
X143.8Y-75.3
X144.Y-51.5
X144.07Y-45.35
X144.25Y-53.25
X144.4Y-119.
X144.5Y-62.75
X144.5Y-85.75
X144.6Y-75.9
X144.6Y-116.4
X144.7Y-105.9
X144.8Y-121.4
X144.9Y-44.4
X144.96Y-89.15
X145.25Y-54.5
X145.25Y-102.
X145.3Y-67.1
X145.5Y-79.
X145.67Y-55.85
X145.75Y-58.75
X145.75Y-88.25
X145.9Y-98.9
X146.Y-116.7
X146.11Y-89.22
X146.11Y-122.48
X146.2Y-44.4
X146.25Y-60.5
X146.25Y-63.75
X146.3Y-78.6
X146.33Y-92.61
X146.5Y-85.7
X146.8Y-106.125
X146.9Y-84.9
X147.Y-62.
X147.03Y-89.97
X147.1Y-116.4
X147.13Y-121.94
X147.4Y-97.7
X147.44Y-90.94
X147.64Y-89.41
X147.75Y-88.
X147.9Y-44.4
X148.Y-75.25
X148.Y-116.3
X148.2Y-117.39
X148.22Y-92.6
X148.24Y-93.43
X148.25Y-71.25
X148.5Y-69.5
X148.51Y-115.4
X148.6Y-89.7
X148.6Y-128.4
X148.74Y-116.46
X148.75Y-64.
X148.77Y-52.89
X148.83Y-44.83
X148.9Y-90.9
X149.Y-130.
X149.02Y-117.97
X149.1Y-67.2
X149.21Y-115.89
X149.25Y-102.5
X149.3Y-96.9
X149.4Y-106.2
X149.43Y-91.55
X149.5Y-62.75
X149.7Y-90.
X149.75Y-73.5
X149.8Y-44.1
X149.88Y-51.8
X150.1Y-91.1
X150.1Y-118.52
X150.43Y-117.53
X150.48Y-115.88
X150.61Y-116.74
X150.75Y-71.25
X150.86Y-43.74
X150.87Y-92.55
X151.21Y-44.61
X151.4Y-106.2
X151.5Y-64.25
X151.5Y-67.1
X151.5Y-87.75
X151.75Y-103.25
X152.Y-40.
X152.25Y-70.
X152.7Y-84.5
X153.Y-52.
X153.Y-106.5
X153.5Y-87.75
X153.5Y-104.5
X153.8Y-67.1
X153.8Y-84.6
X154.5Y-40.
X155.Y-105.75
X155.38Y-122.51
X155.42Y-119.06
X155.42Y-120.75
X155.46Y-125.08
X155.5Y-52.
T2
X123.6Y-110.8
X123.6Y-130.
X123.7Y-125.
X123.75Y-115.75
X124.6Y-41.3
X124.88Y-49.36
T3
X109.9Y-86.62
X109.9Y-89.16
X109.9Y-91.7
T4
X115.5Y-90.6
X118.Y-95.64
X120.5Y-90.6
T5
X69.6Y-80.1
X69.7Y-85.6
X75.2Y-80.
X75.4Y-85.3
X84.8Y-45.6
X85.Y-50.4
X89.8Y-45.6
X89.8Y-50.4
X132.5Y-36.5
X132.5Y-39.5
X137.Y-36.5
X137.Y-39.5
X148.4Y-120.
X148.6Y-123.8
X153.Y-120.
X153.2Y-124.
T3
X59.02Y-86.87G85X59.02Y-88.87
G05
X61.02Y-92.57G85X63.02Y-92.57
G05
X65.02Y-86.87G85X65.02Y-88.87
G05
X83.1Y-36.2G85X83.1Y-38.2
G05
X88.8Y-34.2G85X86.8Y-34.2
G05
X88.8Y-40.2G85X86.8Y-40.2
G05
X105.1Y-75.5G85X105.1Y-77.5
G05
X107.1Y-81.2G85X109.1Y-81.2
G05
X111.1Y-75.5G85X111.1Y-77.5
G05
T0
M30
