G04 #@! TF.FileFunction,Copper,L2,Bot,Signal*
%FSLAX46Y46*%
G04 Gerber Fmt 4.6, Leading zero omitted, Abs format (unit mm)*
G04 Created by KiCad (PCBNEW 4.0.7) date 07/31/20 11:45:47*
%MOMM*%
%LPD*%
G01*
G04 APERTURE LIST*
%ADD10C,0.100000*%
%ADD11R,2.500000X5.080000*%
%ADD12R,5.080000X2.500000*%
%ADD13R,4.000000X1.000000*%
%ADD14R,2.000000X2.000000*%
%ADD15R,3.500000X3.500000*%
%ADD16C,2.500000*%
%ADD17R,1.700000X1.700000*%
%ADD18O,1.700000X1.700000*%
%ADD19C,0.600000*%
%ADD20C,0.250000*%
%ADD21C,0.350000*%
%ADD22C,0.500000*%
G04 APERTURE END LIST*
D10*
D11*
X63150000Y-129000000D03*
X70650000Y-129000000D03*
D12*
X59440000Y-98720000D03*
X59440000Y-106220000D03*
D13*
X124880000Y-49360000D03*
D14*
X137000000Y-39500000D03*
X132500000Y-39500000D03*
X132500000Y-36500000D03*
X137000000Y-36500000D03*
D13*
X124600000Y-41300000D03*
D12*
X154275000Y-50100000D03*
X154275000Y-42600000D03*
X154000000Y-61750000D03*
X154000000Y-54250000D03*
D15*
X111100000Y-76500000D03*
X105100000Y-76500000D03*
X108100000Y-81200000D03*
D12*
X153500000Y-97750000D03*
X153500000Y-90250000D03*
D13*
X123700000Y-125000000D03*
X123600000Y-110800000D03*
D14*
X153200000Y-124000000D03*
D13*
X123600000Y-130000000D03*
D14*
X148400000Y-120000000D03*
X153000000Y-120000000D03*
X148600000Y-123800000D03*
D13*
X123750000Y-115750000D03*
D12*
X153500000Y-116750000D03*
X153500000Y-109250000D03*
X59630000Y-113710000D03*
X59630000Y-121210000D03*
D14*
X69600000Y-80100000D03*
X75400000Y-85300000D03*
X75200000Y-80000000D03*
X69700000Y-85600000D03*
D12*
X60200000Y-49250000D03*
X60200000Y-56750000D03*
D11*
X78900000Y-34475000D03*
X71400000Y-34475000D03*
D14*
X89800000Y-45600000D03*
X89800000Y-50400000D03*
X85000000Y-50400000D03*
X84800000Y-45600000D03*
D16*
X118000000Y-95640000D03*
X115500000Y-90600000D03*
X120500000Y-90600000D03*
D17*
X109900000Y-91700000D03*
D18*
X109900000Y-89160000D03*
X109900000Y-86620000D03*
D15*
X65020000Y-87870000D03*
X59020000Y-87870000D03*
X62020000Y-92570000D03*
X87800000Y-40200000D03*
X87800000Y-34200000D03*
X83100000Y-37200000D03*
D19*
X148000000Y-75250000D03*
X149750000Y-73500000D03*
X148250000Y-71250000D03*
X150750000Y-71250000D03*
X148500000Y-69500000D03*
X152250000Y-70000000D03*
X141500000Y-84750000D03*
X139750000Y-84250000D03*
X138250000Y-79500000D03*
X137750000Y-78000000D03*
X137000000Y-73250000D03*
X135750000Y-74750000D03*
X138250000Y-74500000D03*
X136500000Y-76750000D03*
X139000000Y-76250000D03*
X141250000Y-74000000D03*
X103500000Y-73000000D03*
X105250000Y-71000000D03*
X107500000Y-73000000D03*
X109750000Y-71000000D03*
X112000000Y-70500000D03*
X115500000Y-71500000D03*
X115000000Y-120750000D03*
X115250000Y-123500000D03*
X115250000Y-126500000D03*
X116000000Y-130000000D03*
X117750000Y-131000000D03*
X155000000Y-105750000D03*
X153500000Y-104500000D03*
X151750000Y-103250000D03*
X149250000Y-102500000D03*
X145250000Y-102000000D03*
X142250000Y-101750000D03*
X139000000Y-102000000D03*
X136750000Y-102000000D03*
X133500000Y-102000000D03*
X130000000Y-102250000D03*
X127250000Y-102250000D03*
X125250000Y-102250000D03*
X121250000Y-103000000D03*
X117000000Y-104250000D03*
X116000000Y-106250000D03*
X115000000Y-109250000D03*
X115000000Y-110500000D03*
X115000000Y-113000000D03*
X115000000Y-116250000D03*
X121000000Y-98750000D03*
X117500000Y-98750000D03*
X115750000Y-98000000D03*
X113750000Y-97000000D03*
X111750000Y-95250000D03*
X110000000Y-95500000D03*
X145750000Y-88250000D03*
X147750000Y-88000000D03*
X151500000Y-87750000D03*
X153500000Y-87750000D03*
X133250000Y-81750000D03*
X134500000Y-82250000D03*
X134750000Y-84500000D03*
X136000000Y-86000000D03*
X138250000Y-86000000D03*
X139500000Y-87250000D03*
X140500000Y-87750000D03*
X143000000Y-86000000D03*
X144500000Y-85750000D03*
X122500000Y-97750000D03*
X126000000Y-98000000D03*
X122750000Y-96250000D03*
X123750000Y-94500000D03*
X122250000Y-93750000D03*
X124000000Y-92250000D03*
X126000000Y-91000000D03*
X123500000Y-90000000D03*
X125750000Y-89750000D03*
X126500000Y-87750000D03*
X123500000Y-87250000D03*
X127250000Y-85750000D03*
X129250000Y-83750000D03*
X130750000Y-82500000D03*
X116250000Y-118500000D03*
X116500000Y-116000000D03*
X117000000Y-113250000D03*
X117000000Y-111250000D03*
X117000000Y-109000000D03*
X117250000Y-107000000D03*
X118750000Y-106000000D03*
X120750000Y-105500000D03*
X122250000Y-105500000D03*
X124750000Y-105750000D03*
X127000000Y-105750000D03*
X119250000Y-120000000D03*
X121000000Y-120000000D03*
X125750000Y-120250000D03*
X127000000Y-114500000D03*
X128500000Y-113750000D03*
X120750000Y-118500000D03*
X123250000Y-118250000D03*
X124500000Y-118500000D03*
X126250000Y-119000000D03*
X127250000Y-117500000D03*
X128000000Y-116500000D03*
X129250000Y-114750000D03*
X130500000Y-113750000D03*
X131750000Y-112750000D03*
X133000000Y-128750000D03*
X132500000Y-126750000D03*
X134750000Y-126500000D03*
X136000000Y-125500000D03*
X138000000Y-125500000D03*
X139500000Y-125000000D03*
X139500000Y-126250000D03*
X119750000Y-116750000D03*
X118500000Y-118500000D03*
X117000000Y-120500000D03*
X117000000Y-124750000D03*
X117500000Y-127500000D03*
X118250000Y-129250000D03*
X119500000Y-130750000D03*
X121250000Y-131250000D03*
X141000000Y-51750000D03*
X142750000Y-51000000D03*
X144000000Y-51500000D03*
X141500000Y-54000000D03*
X142500000Y-53000000D03*
X144250000Y-53250000D03*
X145250000Y-54500000D03*
X151500000Y-64250000D03*
X148750000Y-64000000D03*
X146250000Y-63750000D03*
X144500000Y-62750000D03*
X142000000Y-61000000D03*
X141000000Y-58750000D03*
X140000000Y-58000000D03*
X138250000Y-58000000D03*
X133250000Y-58250000D03*
X130000000Y-58250000D03*
X126250000Y-58250000D03*
X123250000Y-57500000D03*
X121250000Y-56750000D03*
X119250000Y-55750000D03*
X116500000Y-53000000D03*
X115750000Y-49250000D03*
X116250000Y-44750000D03*
X116500000Y-40500000D03*
X117000000Y-38250000D03*
X118500000Y-35500000D03*
X120750000Y-34250000D03*
X123250000Y-34750000D03*
X125750000Y-36000000D03*
X127250000Y-37000000D03*
X127500000Y-42750000D03*
X129250000Y-42500000D03*
X131000000Y-42000000D03*
X135250000Y-40250000D03*
X139250000Y-38000000D03*
X141000000Y-38000000D03*
X142500000Y-38000000D03*
X143500000Y-37750000D03*
X118750000Y-41750000D03*
X118500000Y-40000000D03*
X119750000Y-37000000D03*
X121500000Y-37000000D03*
X123750000Y-37750000D03*
X125500000Y-38000000D03*
X128250000Y-39000000D03*
X134250000Y-38000000D03*
X149500000Y-62750000D03*
X147000000Y-62000000D03*
X146250000Y-60500000D03*
X145750000Y-58750000D03*
X143750000Y-57500000D03*
X141750000Y-56000000D03*
X139750000Y-55750000D03*
X138250000Y-55750000D03*
X135250000Y-56250000D03*
X132500000Y-56250000D03*
X129250000Y-56250000D03*
X126250000Y-55750000D03*
X123500000Y-54750000D03*
X120500000Y-53000000D03*
X119000000Y-51500000D03*
X119000000Y-49500000D03*
X119250000Y-48000000D03*
X119500000Y-45500000D03*
X120000000Y-43750000D03*
X121750000Y-43000000D03*
X94000000Y-55000000D03*
X94000000Y-53000000D03*
X94250000Y-51000000D03*
X94250000Y-48500000D03*
X94000000Y-46000000D03*
X93750000Y-44500000D03*
X93750000Y-42000000D03*
X93500000Y-39000000D03*
X93500000Y-36750000D03*
X93500000Y-35000000D03*
X92500000Y-33750000D03*
X90750000Y-33500000D03*
X59750000Y-60500000D03*
X61250000Y-62500000D03*
X64000000Y-63750000D03*
X67000000Y-64500000D03*
X70250000Y-64250000D03*
X73750000Y-64500000D03*
X77250000Y-64500000D03*
X81500000Y-64500000D03*
X86000000Y-64000000D03*
X90750000Y-63250000D03*
X93750000Y-61500000D03*
X94250000Y-58750000D03*
X68500000Y-47500000D03*
X69750000Y-44250000D03*
X71000000Y-41250000D03*
X71250000Y-39750000D03*
X65500000Y-44500000D03*
X65750000Y-42750000D03*
X67500000Y-41000000D03*
X69000000Y-39500000D03*
X61750000Y-45250000D03*
X61500000Y-43000000D03*
X61750000Y-40750000D03*
X61750000Y-39250000D03*
X63000000Y-37500000D03*
X65250000Y-36500000D03*
X66750000Y-36500000D03*
X68750000Y-36500000D03*
X57500000Y-45250000D03*
X58000000Y-43250000D03*
X58500000Y-41250000D03*
X59000000Y-39250000D03*
X59250000Y-37000000D03*
X59250000Y-35250000D03*
X59500000Y-34000000D03*
X61750000Y-33250000D03*
X64500000Y-33250000D03*
X66500000Y-33000000D03*
X72500000Y-131250000D03*
X75500000Y-131000000D03*
X78750000Y-130750000D03*
X81500000Y-130000000D03*
X85000000Y-128500000D03*
X86250000Y-125000000D03*
X87250000Y-121250000D03*
X87250000Y-118750000D03*
X87250000Y-117000000D03*
X87750000Y-114750000D03*
X87750000Y-112250000D03*
X87500000Y-108500000D03*
X88500000Y-105000000D03*
X88750000Y-101500000D03*
X88500000Y-98250000D03*
X88750000Y-94500000D03*
X88500000Y-92000000D03*
X88500000Y-88250000D03*
X88500000Y-83500000D03*
X87750000Y-79000000D03*
X87500000Y-75500000D03*
X85250000Y-72500000D03*
X83250000Y-70250000D03*
X81000000Y-69000000D03*
X77000000Y-69500000D03*
X72000000Y-70250000D03*
X67500000Y-71500000D03*
X62250000Y-74250000D03*
X58500000Y-77000000D03*
X58500000Y-79500000D03*
X61750000Y-95500000D03*
X63500000Y-95500000D03*
X65250000Y-94750000D03*
X67000000Y-93250000D03*
X67250000Y-91500000D03*
X69500000Y-91250000D03*
X63750000Y-124750000D03*
X63500000Y-122500000D03*
X63750000Y-120750000D03*
X63250000Y-119500000D03*
X58000000Y-95750000D03*
X58000000Y-93250000D03*
X58000000Y-91250000D03*
X58000000Y-111500000D03*
X58000000Y-109750000D03*
X60000000Y-110000000D03*
X60200000Y-108800000D03*
X60750000Y-130750000D03*
X58250000Y-130750000D03*
X58500000Y-128250000D03*
X58750000Y-126000000D03*
X58750000Y-124750000D03*
X58250000Y-81500000D03*
X60000000Y-79000000D03*
X63750000Y-75750000D03*
X68750000Y-73000000D03*
X74750000Y-72000000D03*
X77500000Y-71750000D03*
X81250000Y-73000000D03*
X83500000Y-75000000D03*
X84750000Y-78750000D03*
X85750000Y-82250000D03*
X85750000Y-86000000D03*
X85500000Y-89000000D03*
X85750000Y-92750000D03*
X86250000Y-96750000D03*
X85250000Y-100250000D03*
X85250000Y-105500000D03*
X85250000Y-107750000D03*
X85000000Y-111750000D03*
X85250000Y-115250000D03*
X84750000Y-117500000D03*
X84750000Y-119750000D03*
X83750000Y-123250000D03*
X83000000Y-126500000D03*
X81500000Y-128500000D03*
X78750000Y-129750000D03*
X76250000Y-129750000D03*
X73000000Y-130250000D03*
X60000000Y-84000000D03*
X61000000Y-82000000D03*
X64000000Y-79000000D03*
X67000000Y-77000000D03*
X70000000Y-75000000D03*
X74000000Y-75000000D03*
X77000000Y-75000000D03*
X79000000Y-76000000D03*
X82000000Y-78000000D03*
X83000000Y-82000000D03*
X83000000Y-86000000D03*
X83000000Y-92000000D03*
X82000000Y-96000000D03*
X83000000Y-100000000D03*
X82000000Y-105000000D03*
X82000000Y-109000000D03*
X82000000Y-113000000D03*
X82000000Y-118000000D03*
X81000000Y-121000000D03*
X81000000Y-124000000D03*
X80000000Y-127000000D03*
X77500000Y-127750000D03*
X75250000Y-128000000D03*
X128790000Y-91420000D03*
X131040000Y-89800000D03*
X133830000Y-89380000D03*
X132460000Y-90390000D03*
X128840000Y-87950000D03*
X138200000Y-90500000D03*
X135480000Y-90390000D03*
X133790000Y-87860000D03*
X131410000Y-87600000D03*
X127280000Y-89690000D03*
X128470000Y-90160000D03*
X127830000Y-91270000D03*
X127560000Y-92660000D03*
X127500000Y-95070000D03*
X80010000Y-50210000D03*
X79880000Y-51260000D03*
X76760000Y-36980000D03*
X76870000Y-36210000D03*
X77240000Y-50280000D03*
X77460000Y-51140000D03*
X77700000Y-53320000D03*
X72700000Y-53800000D03*
X74580000Y-124640000D03*
X72470000Y-124980000D03*
X72400000Y-123710000D03*
X68480000Y-121960000D03*
X69470000Y-123170000D03*
X68480000Y-123360000D03*
X74600000Y-110200000D03*
X73860000Y-110310000D03*
X74590000Y-114150000D03*
X147130000Y-121940000D03*
X146110000Y-122480000D03*
X136490000Y-118280000D03*
X137100000Y-118810000D03*
X138390000Y-119180000D03*
X140130000Y-114440000D03*
X135300000Y-116940000D03*
X150870000Y-92550000D03*
X146330000Y-92610000D03*
X148770000Y-52890000D03*
X149880000Y-51800000D03*
X148830000Y-44830000D03*
X151210000Y-44610000D03*
X150860000Y-43740000D03*
X140220000Y-42370000D03*
X137920000Y-42440000D03*
X139070000Y-42410000D03*
X139250000Y-43630000D03*
X139730000Y-44180000D03*
X142550000Y-46140000D03*
X142830000Y-44840000D03*
X144900000Y-44400000D03*
X141300000Y-43700000D03*
X142400000Y-44100000D03*
X143500000Y-44400000D03*
X134690000Y-44070000D03*
X135750000Y-44170000D03*
X136320000Y-43440000D03*
X68670000Y-104660000D03*
X66200000Y-111940000D03*
X75520000Y-103880000D03*
X74010000Y-102890000D03*
X75910000Y-101360000D03*
X134130000Y-109830000D03*
X135400000Y-108440000D03*
X134930000Y-107680000D03*
X140520000Y-108060000D03*
X139610000Y-107460000D03*
X149210000Y-115890000D03*
X148740000Y-116460000D03*
X150610000Y-116740000D03*
X150480000Y-115880000D03*
X148510000Y-115400000D03*
X150430000Y-117530000D03*
X150100000Y-118520000D03*
X149020000Y-117970000D03*
X148200000Y-117390000D03*
X149800000Y-44100000D03*
X146200000Y-44400000D03*
X147900000Y-44400000D03*
X61870000Y-123310000D03*
X60550000Y-123570000D03*
X60640000Y-124540000D03*
X60660000Y-125650000D03*
X60550000Y-126810000D03*
X60870000Y-128400000D03*
X73280000Y-54810000D03*
X73080000Y-56100000D03*
X74070000Y-55420000D03*
X73990000Y-54630000D03*
X146110000Y-89220000D03*
X147030000Y-89970000D03*
X147640000Y-89410000D03*
X144960000Y-89150000D03*
X147440000Y-90940000D03*
X139300000Y-90200000D03*
X141000000Y-90600000D03*
X141500000Y-89200000D03*
X140280000Y-89320000D03*
X138760000Y-89230000D03*
X144070000Y-45350000D03*
X135370000Y-47130000D03*
X134540000Y-47150000D03*
X135220000Y-49090000D03*
X135060000Y-47880000D03*
X133950000Y-47870000D03*
X133760000Y-43420000D03*
X133960000Y-44380000D03*
X133530000Y-45030000D03*
X128460000Y-95810000D03*
X137080000Y-97780000D03*
X135070000Y-97860000D03*
X132950000Y-97560000D03*
X131230000Y-97050000D03*
X129800000Y-96620000D03*
X148220000Y-92600000D03*
X148240000Y-93430000D03*
X149430000Y-91550000D03*
X71480000Y-123120000D03*
X70550000Y-123280000D03*
X72000000Y-122340000D03*
X78800000Y-52600000D03*
X79130000Y-53320000D03*
X79250000Y-54270000D03*
X79130000Y-55370000D03*
X78490000Y-56270000D03*
X77670000Y-56720000D03*
X111300000Y-97700000D03*
X108400000Y-96100000D03*
X105400000Y-93200000D03*
X102400000Y-90700000D03*
X100100000Y-88300000D03*
X99700000Y-83200000D03*
X99400000Y-79200000D03*
X99600000Y-75400000D03*
X99500000Y-72000000D03*
X100500000Y-68800000D03*
X119400000Y-88900000D03*
X118100000Y-89500000D03*
X120100000Y-86800000D03*
X117000000Y-76000000D03*
X119500000Y-76100000D03*
X64700000Y-118800000D03*
X64700000Y-117700000D03*
X65600000Y-119000000D03*
X66800000Y-106590000D03*
X64400000Y-109700000D03*
X64620000Y-112590000D03*
X65360000Y-113220000D03*
X66200000Y-112650000D03*
X68290000Y-107470000D03*
X70200000Y-108100000D03*
X71300000Y-108200000D03*
X72500000Y-108100000D03*
X73700000Y-108510000D03*
X74400000Y-107900000D03*
X74450000Y-108840000D03*
X74750000Y-109510000D03*
X74800000Y-111400000D03*
X76300000Y-112000000D03*
X76500000Y-110700000D03*
X76500000Y-109100000D03*
X76300000Y-107500000D03*
X75200000Y-106800000D03*
X75900000Y-120600000D03*
X76100000Y-119900000D03*
X76500000Y-118100000D03*
X76500000Y-117100000D03*
X76600000Y-115800000D03*
X76600000Y-114000000D03*
X75700000Y-113800000D03*
X73920000Y-114770000D03*
X153000000Y-52000000D03*
X155500000Y-52000000D03*
X154500000Y-40000000D03*
X152000000Y-40000000D03*
X149000000Y-130000000D03*
X148600000Y-128400000D03*
X144400000Y-119000000D03*
X144800000Y-121400000D03*
X143400000Y-122800000D03*
X142600000Y-124000000D03*
X66200000Y-97100000D03*
X64000000Y-97000000D03*
X62800000Y-96800000D03*
X61000000Y-96800000D03*
X59000000Y-96800000D03*
X59400000Y-95000000D03*
X59200000Y-93400000D03*
X73580000Y-125610000D03*
X73600000Y-127400000D03*
X73200000Y-128400000D03*
X72600000Y-129400000D03*
X74000000Y-118000000D03*
X74400000Y-120000000D03*
X73400000Y-120600000D03*
X74800000Y-118800000D03*
X75000000Y-117600000D03*
X75200000Y-116200000D03*
X74430000Y-115380000D03*
X73660000Y-116040000D03*
X72900000Y-118900000D03*
X73400000Y-117400000D03*
X77400000Y-52000000D03*
X81000000Y-34600000D03*
X81400000Y-33600000D03*
X82800000Y-33600000D03*
X84600000Y-33600000D03*
X92600000Y-47200000D03*
X92000000Y-46000000D03*
X92000000Y-44400000D03*
X91200000Y-36000000D03*
X91400000Y-38800000D03*
X91600000Y-40600000D03*
X92000000Y-42400000D03*
X89800000Y-61000000D03*
X88400000Y-62000000D03*
X86600000Y-62600000D03*
X85200000Y-63000000D03*
X82800000Y-63200000D03*
X80800000Y-63400000D03*
X78400000Y-63400000D03*
X76000000Y-63400000D03*
X73200000Y-63400000D03*
X71200000Y-62600000D03*
X67800000Y-60800000D03*
X66400000Y-60800000D03*
X64800000Y-60600000D03*
X63400000Y-60200000D03*
X62000000Y-59800000D03*
X61000000Y-59000000D03*
X58000000Y-47400000D03*
X59600000Y-47200000D03*
X61800000Y-47200000D03*
X63000000Y-47200000D03*
X64200000Y-47800000D03*
X64600000Y-49000000D03*
X65400000Y-50400000D03*
X67200000Y-50800000D03*
X68800000Y-51200000D03*
X71400000Y-50600000D03*
X72800000Y-49200000D03*
X72800000Y-47600000D03*
X72800000Y-46000000D03*
X72600000Y-44000000D03*
X72400000Y-43000000D03*
X72600000Y-41300000D03*
X72600000Y-39800000D03*
X72400000Y-37600000D03*
X71400000Y-34475000D03*
X85800000Y-57800000D03*
X85800000Y-56800000D03*
X86000000Y-53800000D03*
X85800000Y-55000000D03*
X80200000Y-43400000D03*
X80600000Y-44600000D03*
X80800000Y-46400000D03*
X81600000Y-47800000D03*
X82000000Y-49400000D03*
X82000000Y-51600000D03*
X71260000Y-57180000D03*
X71800000Y-58400000D03*
X72400000Y-59200000D03*
X74400000Y-59400000D03*
X75600000Y-59400000D03*
X77200000Y-59400000D03*
X79000000Y-59200000D03*
X79800000Y-58400000D03*
X80800000Y-57200000D03*
X81200000Y-56200000D03*
X81400000Y-55200000D03*
X81600000Y-54200000D03*
X82000000Y-52800000D03*
X78870000Y-49790000D03*
X78780000Y-50560000D03*
X78790000Y-51360000D03*
X76600000Y-56800000D03*
X75400000Y-56800000D03*
X74200000Y-56600000D03*
X77800000Y-38720000D03*
X77750000Y-37840000D03*
X77820000Y-39660000D03*
X77860000Y-40710000D03*
X79600000Y-41800000D03*
X78720000Y-41180000D03*
X70580000Y-56950000D03*
X71920000Y-57040000D03*
X70000000Y-56400000D03*
X73600000Y-106200000D03*
X73800000Y-107300000D03*
X73600000Y-119500000D03*
X72100000Y-119200000D03*
X63600000Y-109400000D03*
X64000000Y-108400000D03*
X68000000Y-106700000D03*
X68970000Y-105360000D03*
X70700000Y-105300000D03*
X71800000Y-105300000D03*
X72900000Y-105500000D03*
X71500000Y-106200000D03*
X70700000Y-106200000D03*
X69600000Y-106300000D03*
X68440000Y-105980000D03*
X63500000Y-101800000D03*
X63600000Y-102620000D03*
X62720000Y-101710000D03*
X65500000Y-99700000D03*
X77400000Y-93900000D03*
X76000000Y-95900000D03*
X72500000Y-99700000D03*
X74100000Y-99600000D03*
X72100000Y-104000000D03*
X70900000Y-101500000D03*
X72400000Y-103000000D03*
X137100000Y-116800000D03*
X135900000Y-117700000D03*
X135500000Y-118700000D03*
X135800000Y-119700000D03*
X139800000Y-120300000D03*
X138700000Y-120700000D03*
X137100000Y-120300000D03*
X135900000Y-121100000D03*
X135700000Y-122900000D03*
X135600000Y-123900000D03*
X137200000Y-123800000D03*
X138200000Y-124400000D03*
X127400000Y-127700000D03*
X127700000Y-127700000D03*
X129800000Y-127600000D03*
X131400000Y-128200000D03*
X131300000Y-129500000D03*
X129800000Y-129200000D03*
X128500000Y-129300000D03*
X126800000Y-129500000D03*
X141200000Y-115200000D03*
X142800000Y-116200000D03*
X137300000Y-113400000D03*
X138300000Y-113600000D03*
X139800000Y-113500000D03*
X141000000Y-113700000D03*
X141800000Y-114300000D03*
X142700000Y-115300000D03*
X144600000Y-116400000D03*
X147100000Y-116400000D03*
X146000000Y-116700000D03*
X148000000Y-116300000D03*
X133800000Y-120000000D03*
X134500000Y-120800000D03*
X134500000Y-122700000D03*
X133900000Y-123800000D03*
X133500000Y-123100000D03*
X127400000Y-122800000D03*
X127400000Y-121700000D03*
X128300000Y-123000000D03*
X127900000Y-121000000D03*
X129300000Y-122900000D03*
X129000000Y-121000000D03*
X137600000Y-107500000D03*
X137300000Y-108200000D03*
X137000000Y-109000000D03*
X136100000Y-109900000D03*
X135160000Y-109640000D03*
X134500000Y-109100000D03*
X137300000Y-116100000D03*
X140200000Y-116200000D03*
X137900000Y-94400000D03*
X138000000Y-91500000D03*
X137900000Y-92500000D03*
X138000000Y-93400000D03*
X150100000Y-91100000D03*
X149700000Y-90000000D03*
X148600000Y-89700000D03*
X148900000Y-90900000D03*
X140000000Y-90500000D03*
X135210000Y-44620000D03*
X136800000Y-42000000D03*
X135700000Y-42100000D03*
X134400000Y-42600000D03*
X137420000Y-42780000D03*
X136650000Y-42750000D03*
X153000000Y-106500000D03*
X151400000Y-106200000D03*
X149400000Y-106200000D03*
X146800000Y-106125000D03*
X144700000Y-105900000D03*
X142850000Y-105925000D03*
X141200000Y-105800000D03*
X139300000Y-106000000D03*
X131600000Y-105400000D03*
X129400000Y-105400000D03*
X135200000Y-106000000D03*
X137600000Y-105900000D03*
X115500000Y-99500000D03*
X119200000Y-99800000D03*
X123300000Y-99700000D03*
X126800000Y-99300000D03*
X130500000Y-99700000D03*
X134900000Y-99500000D03*
X138900000Y-99600000D03*
X142800000Y-99400000D03*
X145900000Y-98900000D03*
X147400000Y-97700000D03*
X149300000Y-96900000D03*
X153800000Y-67100000D03*
X151500000Y-67100000D03*
X149100000Y-67200000D03*
X145300000Y-67100000D03*
X142500000Y-67000000D03*
X138700000Y-67000000D03*
X134300000Y-67000000D03*
X129700000Y-66800000D03*
X124500000Y-66600000D03*
X120300000Y-66900000D03*
X114600000Y-66900000D03*
X110600000Y-66900000D03*
X106900000Y-66800000D03*
X102800000Y-67000000D03*
X146500000Y-85700000D03*
X146900000Y-84900000D03*
X144600000Y-75900000D03*
X143800000Y-75300000D03*
X145500000Y-79000000D03*
X146300000Y-78600000D03*
X152700000Y-84500000D03*
X153800000Y-84600000D03*
X132300000Y-80800000D03*
X124800000Y-77800000D03*
X122700000Y-79400000D03*
X134100000Y-71700000D03*
X131300000Y-71700000D03*
X155460000Y-125080000D03*
X155380000Y-122510000D03*
X155420000Y-120750000D03*
X155420000Y-119060000D03*
X145670000Y-55850000D03*
X141200000Y-109500000D03*
X141200000Y-111300000D03*
X140000000Y-122000000D03*
X138500000Y-122000000D03*
X136800000Y-121900000D03*
X135200000Y-121900000D03*
X80600000Y-54200000D03*
X81000000Y-51800000D03*
X74800000Y-57800000D03*
X78800000Y-58000000D03*
D20*
X144600000Y-75900000D02*
X146100000Y-75900000D01*
X146100000Y-75900000D02*
X146750000Y-75250000D01*
X146750000Y-75250000D02*
X148000000Y-75250000D01*
X149750000Y-73500000D02*
X148250000Y-72000000D01*
X148250000Y-72000000D02*
X148250000Y-71250000D01*
X150750000Y-71250000D02*
X149000000Y-69500000D01*
X149000000Y-69500000D02*
X148500000Y-69500000D01*
X152250000Y-70000000D02*
X153800000Y-68450000D01*
X153800000Y-68450000D02*
X153800000Y-67100000D01*
X143000000Y-86000000D02*
X142750000Y-86000000D01*
X142750000Y-86000000D02*
X141500000Y-84750000D01*
X139750000Y-84250000D02*
X138250000Y-82750000D01*
X138250000Y-82750000D02*
X138250000Y-79500000D01*
X137750000Y-78000000D02*
X136500000Y-76750000D01*
X134100000Y-71700000D02*
X135450000Y-71700000D01*
X135450000Y-71700000D02*
X137000000Y-73250000D01*
X135750000Y-74750000D02*
X136000000Y-74500000D01*
X136000000Y-74500000D02*
X138250000Y-74500000D01*
X136500000Y-76750000D02*
X137000000Y-76250000D01*
X137000000Y-76250000D02*
X139000000Y-76250000D01*
X141250000Y-74000000D02*
X142550000Y-75300000D01*
X142550000Y-75300000D02*
X143800000Y-75300000D01*
X103500000Y-73000000D02*
X105250000Y-71250000D01*
X105250000Y-71250000D02*
X105250000Y-71000000D01*
X107500000Y-73000000D02*
X109500000Y-71000000D01*
X109500000Y-71000000D02*
X109750000Y-71000000D01*
X112000000Y-70500000D02*
X113000000Y-71500000D01*
X113000000Y-71500000D02*
X115500000Y-71500000D01*
X115000000Y-116250000D02*
X115000000Y-117750000D01*
X115000000Y-117750000D02*
X115000000Y-120750000D01*
X115250000Y-123500000D02*
X115250000Y-126500000D01*
X116000000Y-130000000D02*
X117000000Y-131000000D01*
X117000000Y-131000000D02*
X117750000Y-131000000D01*
X155000000Y-105750000D02*
X153750000Y-104500000D01*
X153750000Y-104500000D02*
X153500000Y-104500000D01*
X151750000Y-103250000D02*
X151000000Y-102500000D01*
X151000000Y-102500000D02*
X149250000Y-102500000D01*
X145250000Y-102000000D02*
X145000000Y-101750000D01*
X145000000Y-101750000D02*
X142250000Y-101750000D01*
X139000000Y-102000000D02*
X136750000Y-102000000D01*
X133500000Y-102000000D02*
X133250000Y-102250000D01*
X133250000Y-102250000D02*
X130000000Y-102250000D01*
X127250000Y-102250000D02*
X125250000Y-102250000D01*
X121250000Y-103000000D02*
X120000000Y-104250000D01*
X120000000Y-104250000D02*
X117000000Y-104250000D01*
X116000000Y-106250000D02*
X115000000Y-107250000D01*
X115000000Y-107250000D02*
X115000000Y-109250000D01*
X115000000Y-110500000D02*
X115000000Y-113000000D01*
X115000000Y-116250000D02*
X116000000Y-117250000D01*
X116000000Y-117250000D02*
X116000000Y-118750000D01*
X121000000Y-98750000D02*
X117500000Y-98750000D01*
X115750000Y-98000000D02*
X114750000Y-97000000D01*
X114750000Y-97000000D02*
X113750000Y-97000000D01*
X111750000Y-95250000D02*
X111500000Y-95500000D01*
X111500000Y-95500000D02*
X110000000Y-95500000D01*
X145750000Y-88250000D02*
X146000000Y-88000000D01*
X146000000Y-88000000D02*
X147750000Y-88000000D01*
X151500000Y-87750000D02*
X153500000Y-87750000D01*
X133250000Y-81750000D02*
X133750000Y-82250000D01*
X133750000Y-82250000D02*
X134500000Y-82250000D01*
X134750000Y-84500000D02*
X136000000Y-85750000D01*
X136000000Y-85750000D02*
X136000000Y-86000000D01*
X138250000Y-86000000D02*
X139500000Y-87250000D01*
X140500000Y-87750000D02*
X142250000Y-86000000D01*
X142250000Y-86000000D02*
X143000000Y-86000000D01*
X144500000Y-85750000D02*
X144550000Y-85700000D01*
X144550000Y-85700000D02*
X146500000Y-85700000D01*
X122500000Y-97750000D02*
X122750000Y-98000000D01*
X122750000Y-98000000D02*
X126000000Y-98000000D01*
X122750000Y-96250000D02*
X123750000Y-95250000D01*
X123750000Y-95250000D02*
X123750000Y-94500000D01*
X122250000Y-93750000D02*
X123750000Y-92250000D01*
X123750000Y-92250000D02*
X124000000Y-92250000D01*
X126000000Y-91000000D02*
X125000000Y-90000000D01*
X125000000Y-90000000D02*
X123500000Y-90000000D01*
X125750000Y-89750000D02*
X126500000Y-89000000D01*
X126500000Y-89000000D02*
X126500000Y-87750000D01*
X123500000Y-87250000D02*
X125000000Y-85750000D01*
X125000000Y-85750000D02*
X127250000Y-85750000D01*
X129250000Y-83750000D02*
X130500000Y-82500000D01*
X130500000Y-82500000D02*
X130750000Y-82500000D01*
X117000000Y-120500000D02*
X117000000Y-119250000D01*
X117000000Y-119250000D02*
X116250000Y-118500000D01*
X116500000Y-116000000D02*
X117000000Y-115500000D01*
X117000000Y-115500000D02*
X117000000Y-113250000D01*
X117000000Y-111250000D02*
X117000000Y-109000000D01*
X117250000Y-107000000D02*
X118250000Y-106000000D01*
X118250000Y-106000000D02*
X118750000Y-106000000D01*
X120750000Y-105500000D02*
X122250000Y-105500000D01*
X124750000Y-105750000D02*
X127000000Y-105750000D01*
X119250000Y-120000000D02*
X121000000Y-120000000D01*
X125750000Y-120250000D02*
X126000000Y-120000000D01*
X126000000Y-120000000D02*
X127000000Y-120000000D01*
X127000000Y-120000000D02*
X128250000Y-121250000D01*
X127000000Y-114500000D02*
X127750000Y-113750000D01*
X127750000Y-113750000D02*
X128500000Y-113750000D01*
X118500000Y-118500000D02*
X120750000Y-118500000D01*
X123250000Y-118250000D02*
X123500000Y-118500000D01*
X123500000Y-118500000D02*
X124500000Y-118500000D01*
X126250000Y-119000000D02*
X127250000Y-118000000D01*
X127250000Y-118000000D02*
X127250000Y-117500000D01*
X128000000Y-116500000D02*
X129250000Y-115250000D01*
X129250000Y-115250000D02*
X129250000Y-114750000D01*
X130500000Y-113750000D02*
X131500000Y-112750000D01*
X131500000Y-112750000D02*
X131750000Y-112750000D01*
X133000000Y-128750000D02*
X132450000Y-128200000D01*
X132450000Y-128200000D02*
X131400000Y-128200000D01*
X132500000Y-126750000D02*
X132750000Y-126500000D01*
X132750000Y-126500000D02*
X134750000Y-126500000D01*
X136000000Y-125500000D02*
X138000000Y-125500000D01*
X139500000Y-125000000D02*
X139500000Y-126250000D01*
X119750000Y-116750000D02*
X118500000Y-118000000D01*
X118500000Y-118000000D02*
X118500000Y-118500000D01*
X117000000Y-120500000D02*
X117000000Y-124750000D01*
X117500000Y-127500000D02*
X118250000Y-128250000D01*
X118250000Y-128250000D02*
X118250000Y-129250000D01*
X119500000Y-130750000D02*
X120000000Y-131250000D01*
X120000000Y-131250000D02*
X121250000Y-131250000D01*
X141000000Y-51750000D02*
X141750000Y-51000000D01*
X141750000Y-51000000D02*
X142750000Y-51000000D01*
X144000000Y-51500000D02*
X144250000Y-51750000D01*
X144250000Y-51750000D02*
X144250000Y-53250000D01*
X141500000Y-54000000D02*
X142500000Y-53000000D01*
X144250000Y-53250000D02*
X145250000Y-54250000D01*
X145250000Y-54250000D02*
X145250000Y-54500000D01*
X151500000Y-64250000D02*
X151250000Y-64000000D01*
X151250000Y-64000000D02*
X148750000Y-64000000D01*
X146250000Y-63750000D02*
X145250000Y-62750000D01*
X145250000Y-62750000D02*
X144500000Y-62750000D01*
X142000000Y-61000000D02*
X141000000Y-60000000D01*
X141000000Y-60000000D02*
X141000000Y-58750000D01*
X140000000Y-58000000D02*
X138250000Y-58000000D01*
X133250000Y-58250000D02*
X130000000Y-58250000D01*
X126250000Y-58250000D02*
X125500000Y-57500000D01*
X125500000Y-57500000D02*
X123250000Y-57500000D01*
X121250000Y-56750000D02*
X120250000Y-55750000D01*
X120250000Y-55750000D02*
X119250000Y-55750000D01*
X116500000Y-53000000D02*
X115750000Y-52250000D01*
X115750000Y-52250000D02*
X115750000Y-49250000D01*
X116250000Y-44750000D02*
X116500000Y-44500000D01*
X116500000Y-44500000D02*
X116500000Y-40500000D01*
X117000000Y-38250000D02*
X118500000Y-36750000D01*
X118500000Y-36750000D02*
X118500000Y-35500000D01*
X120750000Y-34250000D02*
X121250000Y-34750000D01*
X121250000Y-34750000D02*
X123250000Y-34750000D01*
X125750000Y-36000000D02*
X126750000Y-37000000D01*
X126750000Y-37000000D02*
X127250000Y-37000000D01*
X127500000Y-42750000D02*
X127750000Y-42500000D01*
X127750000Y-42500000D02*
X129250000Y-42500000D01*
X131000000Y-42000000D02*
X131250000Y-41750000D01*
X131250000Y-41750000D02*
X133750000Y-41750000D01*
X133750000Y-41750000D02*
X135250000Y-40250000D01*
X139250000Y-38000000D02*
X141000000Y-38000000D01*
X142500000Y-38000000D02*
X142750000Y-37750000D01*
X142750000Y-37750000D02*
X143500000Y-37750000D01*
X118750000Y-41750000D02*
X118500000Y-41500000D01*
X118500000Y-41500000D02*
X118500000Y-40000000D01*
X119750000Y-37000000D02*
X121500000Y-37000000D01*
X123750000Y-37750000D02*
X124000000Y-38000000D01*
X124000000Y-38000000D02*
X125500000Y-38000000D01*
X128250000Y-39000000D02*
X129250000Y-38000000D01*
X129250000Y-38000000D02*
X134250000Y-38000000D01*
X149500000Y-62750000D02*
X148750000Y-62000000D01*
X148750000Y-62000000D02*
X147000000Y-62000000D01*
X146250000Y-60500000D02*
X145750000Y-60000000D01*
X145750000Y-60000000D02*
X145750000Y-58750000D01*
X143750000Y-57500000D02*
X142250000Y-56000000D01*
X142250000Y-56000000D02*
X141750000Y-56000000D01*
X139750000Y-55750000D02*
X138250000Y-55750000D01*
X135250000Y-56250000D02*
X132500000Y-56250000D01*
X129250000Y-56250000D02*
X128750000Y-55750000D01*
X128750000Y-55750000D02*
X126250000Y-55750000D01*
X123500000Y-54750000D02*
X122750000Y-54000000D01*
X122750000Y-54000000D02*
X121500000Y-54000000D01*
X121500000Y-54000000D02*
X120500000Y-53000000D01*
X119000000Y-51500000D02*
X119000000Y-49500000D01*
X119250000Y-48000000D02*
X119500000Y-47750000D01*
X119500000Y-47750000D02*
X119500000Y-45500000D01*
X120000000Y-43750000D02*
X120750000Y-43000000D01*
X120750000Y-43000000D02*
X121750000Y-43000000D01*
X94000000Y-55000000D02*
X94000000Y-53000000D01*
X94250000Y-51000000D02*
X94250000Y-48500000D01*
X94000000Y-46000000D02*
X93750000Y-45750000D01*
X93750000Y-45750000D02*
X93750000Y-44500000D01*
X93750000Y-42000000D02*
X93500000Y-41750000D01*
X93500000Y-41750000D02*
X93500000Y-39000000D01*
X93500000Y-36750000D02*
X93500000Y-35000000D01*
X92500000Y-33750000D02*
X92250000Y-33500000D01*
X92250000Y-33500000D02*
X90750000Y-33500000D01*
X59750000Y-60500000D02*
X61250000Y-62000000D01*
X61250000Y-62000000D02*
X61250000Y-62500000D01*
X64000000Y-63750000D02*
X64750000Y-64500000D01*
X64750000Y-64500000D02*
X67000000Y-64500000D01*
X70250000Y-64250000D02*
X70500000Y-64500000D01*
X70500000Y-64500000D02*
X73750000Y-64500000D01*
X77250000Y-64500000D02*
X81500000Y-64500000D01*
X86000000Y-64000000D02*
X86750000Y-63250000D01*
X86750000Y-63250000D02*
X90750000Y-63250000D01*
X93750000Y-61500000D02*
X94250000Y-61000000D01*
X94250000Y-61000000D02*
X94250000Y-58750000D01*
X68500000Y-47500000D02*
X69750000Y-46250000D01*
X69750000Y-46250000D02*
X69750000Y-44250000D01*
X71000000Y-41250000D02*
X71250000Y-41000000D01*
X71250000Y-41000000D02*
X71250000Y-39750000D01*
X65500000Y-44500000D02*
X65750000Y-44250000D01*
X65750000Y-44250000D02*
X65750000Y-42750000D01*
X67500000Y-41000000D02*
X69000000Y-39500000D01*
X61750000Y-45250000D02*
X61500000Y-45000000D01*
X61500000Y-45000000D02*
X61500000Y-43000000D01*
X61750000Y-40750000D02*
X61750000Y-39250000D01*
X63000000Y-37500000D02*
X64000000Y-36500000D01*
X64000000Y-36500000D02*
X65250000Y-36500000D01*
X66750000Y-36500000D02*
X68750000Y-36500000D01*
X57500000Y-45250000D02*
X58000000Y-44750000D01*
X58000000Y-44750000D02*
X58000000Y-43250000D01*
X58500000Y-41250000D02*
X59000000Y-40750000D01*
X59000000Y-40750000D02*
X59000000Y-39250000D01*
X59250000Y-37000000D02*
X59250000Y-35250000D01*
X59500000Y-34000000D02*
X60250000Y-33250000D01*
X60250000Y-33250000D02*
X61750000Y-33250000D01*
X64500000Y-33250000D02*
X64750000Y-33000000D01*
X64750000Y-33000000D02*
X66500000Y-33000000D01*
X72500000Y-131250000D02*
X72750000Y-131000000D01*
X72750000Y-131000000D02*
X75500000Y-131000000D01*
X78750000Y-130750000D02*
X79500000Y-130000000D01*
X79500000Y-130000000D02*
X81500000Y-130000000D01*
X85000000Y-128500000D02*
X86250000Y-127250000D01*
X86250000Y-127250000D02*
X86250000Y-125000000D01*
X87250000Y-121250000D02*
X87250000Y-118750000D01*
X87250000Y-117000000D02*
X87750000Y-116500000D01*
X87750000Y-116500000D02*
X87750000Y-114750000D01*
X87750000Y-112250000D02*
X87500000Y-112000000D01*
X87500000Y-112000000D02*
X87500000Y-108500000D01*
X88500000Y-105000000D02*
X88750000Y-104750000D01*
X88750000Y-104750000D02*
X88750000Y-101500000D01*
X88500000Y-98250000D02*
X88750000Y-98000000D01*
X88750000Y-98000000D02*
X88750000Y-94500000D01*
X88500000Y-92000000D02*
X88500000Y-88250000D01*
X88500000Y-83500000D02*
X87750000Y-82750000D01*
X87750000Y-82750000D02*
X87750000Y-79000000D01*
X87500000Y-75500000D02*
X85250000Y-73250000D01*
X85250000Y-73250000D02*
X85250000Y-72500000D01*
X83250000Y-70250000D02*
X82000000Y-69000000D01*
X82000000Y-69000000D02*
X81000000Y-69000000D01*
X77000000Y-69500000D02*
X76250000Y-70250000D01*
X76250000Y-70250000D02*
X72000000Y-70250000D01*
X67500000Y-71500000D02*
X64750000Y-74250000D01*
X64750000Y-74250000D02*
X62250000Y-74250000D01*
X58500000Y-77000000D02*
X58500000Y-79500000D01*
X61750000Y-95500000D02*
X63500000Y-95500000D01*
X65250000Y-94750000D02*
X66750000Y-93250000D01*
X66750000Y-93250000D02*
X67000000Y-93250000D01*
X67250000Y-91500000D02*
X67500000Y-91250000D01*
X67500000Y-91250000D02*
X69500000Y-91250000D01*
X63750000Y-124750000D02*
X63500000Y-124500000D01*
X63500000Y-124500000D02*
X63500000Y-122500000D01*
X63750000Y-120750000D02*
X63250000Y-120250000D01*
X63250000Y-120250000D02*
X63250000Y-119500000D01*
X58000000Y-95750000D02*
X58000000Y-93250000D01*
X58000000Y-91250000D02*
X59020000Y-90230000D01*
X59020000Y-90230000D02*
X59020000Y-87870000D01*
X58000000Y-111500000D02*
X58000000Y-109750000D01*
X60000000Y-110000000D02*
X60200000Y-109800000D01*
X60200000Y-109800000D02*
X60200000Y-108800000D01*
X63150000Y-129000000D02*
X62500000Y-129000000D01*
X62500000Y-129000000D02*
X60750000Y-130750000D01*
X58250000Y-130750000D02*
X58500000Y-130500000D01*
X58500000Y-130500000D02*
X58500000Y-128250000D01*
X58750000Y-126000000D02*
X58750000Y-124750000D01*
X59020000Y-82270000D02*
X59020000Y-87870000D01*
X58250000Y-81500000D02*
X59020000Y-82270000D01*
X60500000Y-79000000D02*
X60000000Y-79000000D01*
X63750000Y-75750000D02*
X60500000Y-79000000D01*
X73750000Y-73000000D02*
X68750000Y-73000000D01*
X74750000Y-72000000D02*
X73750000Y-73000000D01*
X80000000Y-71750000D02*
X77500000Y-71750000D01*
X81250000Y-73000000D02*
X80000000Y-71750000D01*
X83500000Y-77500000D02*
X83500000Y-75000000D01*
X84750000Y-78750000D02*
X83500000Y-77500000D01*
X85750000Y-86000000D02*
X85750000Y-82250000D01*
X85500000Y-92500000D02*
X85500000Y-89000000D01*
X85750000Y-92750000D02*
X85500000Y-92500000D01*
X86250000Y-99250000D02*
X86250000Y-96750000D01*
X85250000Y-100250000D02*
X86250000Y-99250000D01*
X85250000Y-107750000D02*
X85250000Y-105500000D01*
X85000000Y-115000000D02*
X85000000Y-111750000D01*
X85250000Y-115250000D02*
X85000000Y-115000000D01*
X84750000Y-119750000D02*
X84750000Y-117500000D01*
X83750000Y-125750000D02*
X83750000Y-123250000D01*
X83000000Y-126500000D02*
X83750000Y-125750000D01*
X80000000Y-128500000D02*
X81500000Y-128500000D01*
X78750000Y-129750000D02*
X80000000Y-128500000D01*
X73500000Y-129750000D02*
X76250000Y-129750000D01*
X73000000Y-130250000D02*
X73500000Y-129750000D01*
X59020000Y-84980000D02*
X59020000Y-87870000D01*
X60000000Y-84000000D02*
X59020000Y-84980000D01*
X64000000Y-79000000D02*
X61000000Y-82000000D01*
X68000000Y-77000000D02*
X67000000Y-77000000D01*
X70000000Y-75000000D02*
X68000000Y-77000000D01*
X77000000Y-75000000D02*
X74000000Y-75000000D01*
X80000000Y-76000000D02*
X79000000Y-76000000D01*
X82000000Y-78000000D02*
X80000000Y-76000000D01*
X83000000Y-86000000D02*
X83000000Y-82000000D01*
X83000000Y-95000000D02*
X83000000Y-92000000D01*
X82000000Y-96000000D02*
X83000000Y-95000000D01*
X83000000Y-104000000D02*
X83000000Y-100000000D01*
X82000000Y-105000000D02*
X83000000Y-104000000D01*
X82000000Y-113000000D02*
X82000000Y-109000000D01*
X82000000Y-120000000D02*
X82000000Y-118000000D01*
X81000000Y-121000000D02*
X82000000Y-120000000D01*
X81000000Y-126000000D02*
X81000000Y-124000000D01*
X80000000Y-127000000D02*
X81000000Y-126000000D01*
X76250000Y-127750000D02*
X77500000Y-127750000D01*
X75250000Y-128000000D02*
X76250000Y-127750000D01*
X138200000Y-90500000D02*
X135590000Y-90500000D01*
X135590000Y-90500000D02*
X135480000Y-90390000D01*
X133790000Y-87860000D02*
X132680000Y-87710000D01*
X132680000Y-87710000D02*
X131410000Y-87600000D01*
X128840000Y-88130000D02*
X128840000Y-87950000D01*
X127280000Y-89690000D02*
X128840000Y-88130000D01*
X128470000Y-90630000D02*
X128470000Y-90160000D01*
X127830000Y-91270000D02*
X128470000Y-90630000D01*
X127560000Y-95010000D02*
X127560000Y-92660000D01*
X127500000Y-95070000D02*
X127560000Y-95010000D01*
X80010000Y-50210000D02*
X79880000Y-50340000D01*
X79880000Y-50340000D02*
X79880000Y-51260000D01*
X76760000Y-36980000D02*
X76870000Y-36870000D01*
X76870000Y-36870000D02*
X76870000Y-36210000D01*
X72700000Y-53800000D02*
X72710000Y-53800000D01*
X72470000Y-124980000D02*
X72470000Y-124990000D01*
X74600000Y-110200000D02*
X74800000Y-110400000D01*
X74800000Y-110400000D02*
X74800000Y-111400000D01*
X74590000Y-114150000D02*
X74940000Y-113800000D01*
X74940000Y-113800000D02*
X75700000Y-113800000D01*
X146110000Y-122480000D02*
X146120000Y-122480000D01*
X150870000Y-92550000D02*
X150880000Y-92550000D01*
X148770000Y-52890000D02*
X148770000Y-52900000D01*
X149880000Y-51800000D02*
X149880000Y-51810000D01*
X148830000Y-44830000D02*
X149560000Y-44100000D01*
X149560000Y-44100000D02*
X149800000Y-44100000D01*
X151210000Y-44610000D02*
X150860000Y-44260000D01*
X150860000Y-44260000D02*
X150860000Y-43740000D01*
X137920000Y-42440000D02*
X137950000Y-42410000D01*
X137950000Y-42410000D02*
X139070000Y-42410000D01*
X139250000Y-43630000D02*
X139730000Y-44110000D01*
X139730000Y-44110000D02*
X139730000Y-44180000D01*
X142830000Y-44840000D02*
X142590000Y-45080000D01*
X142590000Y-45080000D02*
X142590000Y-45290000D01*
X141300000Y-43700000D02*
X141700000Y-44100000D01*
X141700000Y-44100000D02*
X142400000Y-44100000D01*
X143500000Y-44400000D02*
X144900000Y-44400000D01*
X66200000Y-111940000D02*
X66160000Y-111900000D01*
D21*
X75520000Y-103880000D02*
X75530000Y-103880000D01*
X74020000Y-102900000D02*
X74030000Y-102900000D01*
X74010000Y-102890000D02*
X74020000Y-102900000D01*
X75910000Y-101360000D02*
X75910000Y-101350000D01*
D20*
X134130000Y-109830000D02*
X134140000Y-109830000D01*
X135400000Y-108150000D02*
X135400000Y-108440000D01*
X134930000Y-107680000D02*
X135400000Y-108150000D01*
X140210000Y-108060000D02*
X140520000Y-108060000D01*
X139610000Y-107460000D02*
X140210000Y-108060000D01*
X149210000Y-115990000D02*
X149210000Y-115890000D01*
X148740000Y-116460000D02*
X149210000Y-115990000D01*
X150610000Y-116010000D02*
X150610000Y-116740000D01*
X150480000Y-115880000D02*
X150610000Y-116010000D01*
X148000000Y-115910000D02*
X148000000Y-116300000D01*
X148510000Y-115400000D02*
X148000000Y-115910000D01*
X150430000Y-118190000D02*
X150430000Y-117530000D01*
X150100000Y-118520000D02*
X150430000Y-118190000D01*
X148780000Y-117970000D02*
X149020000Y-117970000D01*
X148200000Y-117390000D02*
X148780000Y-117970000D01*
X146200000Y-44400000D02*
X147900000Y-44400000D01*
X60810000Y-123310000D02*
X61870000Y-123310000D01*
X60550000Y-123570000D02*
X60810000Y-123310000D01*
X60640000Y-125630000D02*
X60640000Y-124540000D01*
X60660000Y-125650000D02*
X60640000Y-125630000D01*
X60550000Y-128080000D02*
X60550000Y-126810000D01*
X60870000Y-128400000D02*
X60550000Y-128080000D01*
X74070000Y-54710000D02*
X74070000Y-55420000D01*
X73990000Y-54630000D02*
X74070000Y-54710000D01*
X146110000Y-89220000D02*
X146280000Y-89220000D01*
X146280000Y-89220000D02*
X147030000Y-89970000D01*
X147640000Y-89410000D02*
X147930000Y-89700000D01*
X147930000Y-89700000D02*
X148600000Y-89700000D01*
X141500000Y-89200000D02*
X144910000Y-89200000D01*
X144910000Y-89200000D02*
X144960000Y-89150000D01*
X147440000Y-90550000D02*
X147440000Y-90940000D01*
X141000000Y-89700000D02*
X141000000Y-90600000D01*
X141500000Y-89200000D02*
X141000000Y-89700000D01*
X138850000Y-89320000D02*
X140280000Y-89320000D01*
X138760000Y-89230000D02*
X138850000Y-89320000D01*
X133960000Y-47880000D02*
X135060000Y-47880000D01*
X133950000Y-47870000D02*
X133960000Y-47880000D01*
X133760000Y-44180000D02*
X133760000Y-43420000D01*
X133960000Y-44380000D02*
X133760000Y-44180000D01*
X129100000Y-95170000D02*
X128460000Y-95810000D01*
X137900000Y-96960000D02*
X137900000Y-94400000D01*
X137080000Y-97780000D02*
X137900000Y-96960000D01*
X133250000Y-97860000D02*
X135070000Y-97860000D01*
X132950000Y-97560000D02*
X133250000Y-97860000D01*
X130230000Y-97050000D02*
X131230000Y-97050000D01*
X129800000Y-96620000D02*
X130230000Y-97050000D01*
X78800000Y-52990000D02*
X78800000Y-52600000D01*
X79130000Y-53320000D02*
X78800000Y-52990000D01*
X79250000Y-55250000D02*
X79250000Y-54270000D01*
X79130000Y-55370000D02*
X79250000Y-55250000D01*
X78120000Y-56270000D02*
X78490000Y-56270000D01*
X77670000Y-56720000D02*
X78120000Y-56270000D01*
D22*
X110000000Y-97700000D02*
X111300000Y-97700000D01*
X108400000Y-96100000D02*
X110000000Y-97700000D01*
X104900000Y-93200000D02*
X105400000Y-93200000D01*
X102400000Y-90700000D02*
X104900000Y-93200000D01*
X100100000Y-83600000D02*
X100100000Y-88300000D01*
X99700000Y-83200000D02*
X100100000Y-83600000D01*
X99400000Y-75600000D02*
X99400000Y-79200000D01*
X99600000Y-75400000D02*
X99400000Y-75600000D01*
X99500000Y-69800000D02*
X99500000Y-72000000D01*
X100500000Y-68800000D02*
X99500000Y-69800000D01*
D20*
X68000000Y-106900000D02*
X68000000Y-106700000D01*
X68290000Y-107470000D02*
X68000000Y-106900000D01*
X71200000Y-108100000D02*
X70200000Y-108100000D01*
X71300000Y-108200000D02*
X71200000Y-108100000D01*
X73600000Y-108410000D02*
X72500000Y-108100000D01*
X73700000Y-108510000D02*
X73600000Y-108410000D01*
X73500000Y-107000000D02*
X73400000Y-107000000D01*
X74400000Y-107900000D02*
X73500000Y-107000000D01*
X74650000Y-109410000D02*
X74450000Y-108840000D01*
X74750000Y-109510000D02*
X74650000Y-109410000D01*
X75700000Y-111400000D02*
X74800000Y-111400000D01*
X76300000Y-112000000D02*
X75700000Y-111400000D01*
X76500000Y-109100000D02*
X76500000Y-110700000D01*
X75900000Y-107500000D02*
X76300000Y-107500000D01*
X75200000Y-106800000D02*
X75900000Y-107500000D01*
X75900000Y-120100000D02*
X75900000Y-120600000D01*
X76100000Y-119900000D02*
X75900000Y-120100000D01*
X76500000Y-117100000D02*
X76500000Y-118100000D01*
X76600000Y-114000000D02*
X76600000Y-115800000D01*
X75400000Y-113800000D02*
X75700000Y-113800000D01*
D22*
X155500000Y-52000000D02*
X153000000Y-52000000D01*
X152000000Y-40000000D02*
X154500000Y-40000000D01*
X149000000Y-128800000D02*
X149000000Y-130000000D01*
X148600000Y-128400000D02*
X149000000Y-128800000D01*
D21*
X144800000Y-120000000D02*
X144400000Y-119000000D01*
X144800000Y-120800000D02*
X144800000Y-120000000D01*
X144800000Y-121400000D02*
X144800000Y-120800000D01*
X143400000Y-123200000D02*
X143400000Y-122800000D01*
X142600000Y-124000000D02*
X143400000Y-123200000D01*
D20*
X64100000Y-97100000D02*
X66200000Y-97100000D01*
X64000000Y-97000000D02*
X64100000Y-97100000D01*
X61000000Y-96800000D02*
X62800000Y-96800000D01*
X59000000Y-96800000D02*
X59400000Y-96400000D01*
X59400000Y-96400000D02*
X59400000Y-95000000D01*
X59200000Y-93400000D02*
X59200000Y-92400000D01*
X59200000Y-92400000D02*
X59500000Y-92100000D01*
X59500000Y-92100000D02*
X59020000Y-87870000D01*
X73500000Y-127300000D02*
X73580000Y-125610000D01*
X73600000Y-127400000D02*
X73500000Y-127300000D01*
X73200000Y-128800000D02*
X73200000Y-128400000D01*
X72600000Y-129400000D02*
X73200000Y-128800000D01*
X74000000Y-118000000D02*
X74800000Y-118800000D01*
X74400000Y-120000000D02*
X74800000Y-119600000D01*
X74800000Y-119600000D02*
X74800000Y-118800000D01*
X75000000Y-117600000D02*
X75200000Y-117400000D01*
X75200000Y-117400000D02*
X75200000Y-116200000D01*
X73660000Y-116040000D02*
X73700000Y-117100000D01*
X73700000Y-117100000D02*
X73400000Y-117400000D01*
D22*
X81000000Y-34000000D02*
X81000000Y-34600000D01*
X81400000Y-33600000D02*
X81000000Y-34000000D01*
X84600000Y-33600000D02*
X82800000Y-33600000D01*
X92600000Y-47200000D02*
X92000000Y-46600000D01*
X92000000Y-46600000D02*
X92000000Y-46000000D01*
X91200000Y-38600000D02*
X91200000Y-36000000D01*
X91400000Y-38800000D02*
X91200000Y-38600000D01*
X91600000Y-42000000D02*
X91600000Y-40600000D01*
X92000000Y-42400000D02*
X91600000Y-42000000D01*
X89400000Y-61000000D02*
X89800000Y-61000000D01*
X88400000Y-62000000D02*
X89400000Y-61000000D01*
X85600000Y-62600000D02*
X86600000Y-62600000D01*
X85200000Y-63000000D02*
X85600000Y-62600000D01*
X81000000Y-63200000D02*
X82800000Y-63200000D01*
X80800000Y-63400000D02*
X81000000Y-63200000D01*
X76000000Y-63400000D02*
X78400000Y-63400000D01*
X72000000Y-63400000D02*
X73200000Y-63400000D01*
X71200000Y-62600000D02*
X72000000Y-63400000D01*
X66400000Y-60800000D02*
X67800000Y-60800000D01*
X63800000Y-60600000D02*
X64800000Y-60600000D01*
X63400000Y-60200000D02*
X63800000Y-60600000D01*
X61800000Y-59800000D02*
X62000000Y-59800000D01*
X61000000Y-59000000D02*
X61800000Y-59800000D01*
X58000000Y-47400000D02*
X58200000Y-47200000D01*
X58200000Y-47200000D02*
X59600000Y-47200000D01*
X61800000Y-47200000D02*
X63000000Y-47200000D01*
X64200000Y-47800000D02*
X64600000Y-48200000D01*
X64600000Y-48200000D02*
X64600000Y-49000000D01*
X65400000Y-50400000D02*
X65800000Y-50800000D01*
X65800000Y-50800000D02*
X67200000Y-50800000D01*
X68800000Y-51200000D02*
X69400000Y-50600000D01*
X69400000Y-50600000D02*
X71400000Y-50600000D01*
X72800000Y-49200000D02*
X72800000Y-47600000D01*
X72800000Y-46000000D02*
X72600000Y-45800000D01*
X72600000Y-45800000D02*
X72600000Y-44000000D01*
X72400000Y-43000000D02*
X72600000Y-41300000D01*
X72600000Y-39800000D02*
X72400000Y-39600000D01*
X72400000Y-39600000D02*
X72400000Y-37600000D01*
X85800000Y-56800000D02*
X85800000Y-57800000D01*
X86000000Y-54800000D02*
X86000000Y-53800000D01*
X85800000Y-55000000D02*
X86000000Y-54800000D01*
D20*
X80200000Y-44200000D02*
X80200000Y-43400000D01*
X80600000Y-44600000D02*
X80200000Y-44200000D01*
X80800000Y-47000000D02*
X80800000Y-46400000D01*
X81600000Y-47800000D02*
X80800000Y-47000000D01*
X82000000Y-51200000D02*
X82000000Y-49400000D01*
X82000000Y-51600000D02*
X82000000Y-51200000D01*
X71800000Y-58600000D02*
X71800000Y-58400000D01*
X72400000Y-59200000D02*
X71800000Y-58600000D01*
X75600000Y-59400000D02*
X74400000Y-59400000D01*
X78800000Y-59400000D02*
X77200000Y-59400000D01*
X79000000Y-59200000D02*
X78800000Y-59400000D01*
X80200000Y-57800000D02*
X79800000Y-58400000D01*
X80800000Y-57200000D02*
X80200000Y-57800000D01*
X81200000Y-55400000D02*
X81200000Y-56200000D01*
X81400000Y-55200000D02*
X81200000Y-55400000D01*
X82200000Y-53000000D02*
X81600000Y-54200000D01*
X82000000Y-52800000D02*
X82200000Y-53000000D01*
X73800000Y-56000000D02*
X73800000Y-56200000D01*
X78590000Y-51160000D02*
X78780000Y-50560000D01*
X78790000Y-51360000D02*
X78590000Y-51160000D01*
X75400000Y-56800000D02*
X76600000Y-56800000D01*
X73800000Y-56200000D02*
X74200000Y-56600000D01*
X77750000Y-37840000D02*
X77800000Y-38720000D01*
X77820000Y-39660000D02*
X77860000Y-40710000D01*
X78720000Y-41180000D02*
X79600000Y-41800000D01*
X73600000Y-106200000D02*
X73800000Y-106400000D01*
X73800000Y-106400000D02*
X73800000Y-107300000D01*
X68000000Y-106700000D02*
X68240000Y-105980000D01*
X68240000Y-105980000D02*
X68440000Y-105980000D01*
X68970000Y-105360000D02*
X70700000Y-105300000D01*
X71800000Y-105300000D02*
X72000000Y-105500000D01*
X72000000Y-105500000D02*
X72900000Y-105500000D01*
X70700000Y-106200000D02*
X71500000Y-106200000D01*
X68440000Y-105980000D02*
X69600000Y-106300000D01*
X136800000Y-116800000D02*
X137100000Y-116800000D01*
X135900000Y-117700000D02*
X136800000Y-116800000D01*
X135500000Y-119400000D02*
X135500000Y-118700000D01*
X135800000Y-119700000D02*
X135500000Y-119400000D01*
X139100000Y-120300000D02*
X139800000Y-120300000D01*
X138700000Y-120700000D02*
X139100000Y-120300000D01*
X136700000Y-120300000D02*
X137100000Y-120300000D01*
X135900000Y-121100000D02*
X136700000Y-120300000D01*
X135700000Y-123800000D02*
X135700000Y-122900000D01*
X135600000Y-123900000D02*
X135700000Y-123800000D01*
X137600000Y-123800000D02*
X137200000Y-123800000D01*
X138200000Y-124400000D02*
X137600000Y-123800000D01*
X127700000Y-127700000D02*
X127400000Y-127700000D01*
X130800000Y-127600000D02*
X129800000Y-127600000D01*
X131400000Y-128200000D02*
X130800000Y-127600000D01*
X130100000Y-129500000D02*
X131300000Y-129500000D01*
X129800000Y-129200000D02*
X130100000Y-129500000D01*
X127000000Y-129300000D02*
X128500000Y-129300000D01*
X126800000Y-129500000D02*
X127000000Y-129300000D01*
X141200000Y-115200000D02*
X142200000Y-116200000D01*
X142200000Y-116200000D02*
X142800000Y-116200000D01*
X138100000Y-113400000D02*
X137300000Y-113400000D01*
X138300000Y-113600000D02*
X138100000Y-113400000D01*
X140800000Y-113500000D02*
X139800000Y-113500000D01*
X141000000Y-113700000D02*
X140800000Y-113500000D01*
X141800000Y-114400000D02*
X141800000Y-114300000D01*
X142700000Y-115300000D02*
X141800000Y-114400000D01*
X147200000Y-116300000D02*
X148000000Y-116300000D01*
X147100000Y-116400000D02*
X147200000Y-116300000D01*
X144900000Y-116700000D02*
X146000000Y-116700000D01*
X144600000Y-116400000D02*
X144900000Y-116700000D01*
X133300000Y-119500000D02*
X133800000Y-120000000D01*
X134500000Y-120800000D02*
X134500000Y-121600000D01*
X134500000Y-121600000D02*
X134500000Y-122700000D01*
X133900000Y-123800000D02*
X133500000Y-123400000D01*
X133500000Y-123400000D02*
X133500000Y-123100000D01*
X133300000Y-119500000D02*
X133300000Y-119400000D01*
X137600000Y-107900000D02*
X137600000Y-107500000D01*
X137300000Y-108200000D02*
X137600000Y-107900000D01*
X136100000Y-109900000D02*
X137000000Y-109000000D01*
X135160000Y-109340000D02*
X135160000Y-109640000D01*
X134500000Y-109100000D02*
X135160000Y-109340000D01*
X138000000Y-92400000D02*
X138000000Y-91500000D01*
X137900000Y-92500000D02*
X138000000Y-92400000D01*
X137900000Y-94400000D02*
X138000000Y-94300000D01*
X138000000Y-94300000D02*
X138000000Y-93400000D01*
X150100000Y-91100000D02*
X149700000Y-90700000D01*
X149700000Y-90700000D02*
X149700000Y-90000000D01*
X148600000Y-89700000D02*
X148900000Y-90000000D01*
X148900000Y-90000000D02*
X148900000Y-90900000D01*
X136800000Y-42000000D02*
X136700000Y-42100000D01*
X136700000Y-42100000D02*
X135700000Y-42100000D01*
X134400000Y-42600000D02*
X134300000Y-42700000D01*
X136650000Y-42750000D02*
X136750000Y-42650000D01*
X136750000Y-42650000D02*
X137420000Y-42780000D01*
D21*
X141200000Y-105800000D02*
X141200000Y-106025000D01*
X153000000Y-106410000D02*
X153000000Y-106500000D01*
X151400000Y-106200000D02*
X153000000Y-106410000D01*
X147775000Y-106100000D02*
X149400000Y-106200000D01*
X146800000Y-106125000D02*
X147775000Y-106100000D01*
X142870000Y-105945000D02*
X144700000Y-105900000D01*
X142850000Y-105925000D02*
X142870000Y-105945000D01*
X141200000Y-106025000D02*
X139300000Y-106000000D01*
X131600000Y-105400000D02*
X133200000Y-105800000D01*
X134000000Y-105800000D02*
X135200000Y-106000000D01*
X133200000Y-105800000D02*
X134000000Y-105800000D01*
D22*
X150150000Y-97750000D02*
X153500000Y-97750000D01*
X115500000Y-99500000D02*
X115800000Y-99800000D01*
X115800000Y-99800000D02*
X119200000Y-99800000D01*
X123300000Y-99700000D02*
X123700000Y-99300000D01*
X123700000Y-99300000D02*
X126800000Y-99300000D01*
X130500000Y-99700000D02*
X130700000Y-99500000D01*
X130700000Y-99500000D02*
X134900000Y-99500000D01*
X138900000Y-99600000D02*
X139100000Y-99400000D01*
X139100000Y-99400000D02*
X142800000Y-99400000D01*
X145900000Y-98900000D02*
X147100000Y-97700000D01*
X147100000Y-97700000D02*
X147400000Y-97700000D01*
X149300000Y-96900000D02*
X150150000Y-97750000D01*
X153800000Y-67100000D02*
X151500000Y-67100000D01*
X149100000Y-67200000D02*
X149000000Y-67100000D01*
X149000000Y-67100000D02*
X145300000Y-67100000D01*
X142500000Y-67000000D02*
X138700000Y-67000000D01*
X134300000Y-67000000D02*
X134100000Y-66800000D01*
X134100000Y-66800000D02*
X129700000Y-66800000D01*
X124500000Y-66600000D02*
X124200000Y-66900000D01*
X124200000Y-66900000D02*
X120300000Y-66900000D01*
X114600000Y-66900000D02*
X110600000Y-66900000D01*
X106900000Y-66800000D02*
X106700000Y-67000000D01*
X106700000Y-67000000D02*
X102800000Y-67000000D01*
D21*
X155460000Y-122590000D02*
X155460000Y-125080000D01*
X155380000Y-122510000D02*
X155460000Y-122590000D01*
X155420000Y-119060000D02*
X155420000Y-120750000D01*
D20*
X141200000Y-111300000D02*
X141200000Y-109600000D01*
X141200000Y-109600000D02*
X141200000Y-109500000D01*
X138500000Y-122000000D02*
X140000000Y-122000000D01*
X135200000Y-121900000D02*
X136800000Y-121900000D01*
X81200000Y-52000000D02*
X80600000Y-54200000D01*
X81000000Y-51800000D02*
X81200000Y-52000000D01*
X78600000Y-57800000D02*
X74800000Y-57800000D01*
X78800000Y-58000000D02*
X78600000Y-57800000D01*
G36*
X69517000Y-33046750D02*
X69675250Y-33205000D01*
X70775000Y-33205000D01*
X70775000Y-33080000D01*
X72025000Y-33080000D01*
X72025000Y-33205000D01*
X73124750Y-33205000D01*
X73283000Y-33046750D01*
X73283000Y-32450000D01*
X77017000Y-32450000D01*
X77017000Y-33046750D01*
X77175250Y-33205000D01*
X78275000Y-33205000D01*
X78275000Y-33080000D01*
X79525000Y-33080000D01*
X79525000Y-33205000D01*
X80624750Y-33205000D01*
X80783000Y-33046750D01*
X80783000Y-32450000D01*
X85417000Y-32450000D01*
X85417000Y-33166750D01*
X85575250Y-33325000D01*
X86925000Y-33325000D01*
X86925000Y-32805000D01*
X88675000Y-32805000D01*
X88675000Y-33325000D01*
X90024750Y-33325000D01*
X90183000Y-33166750D01*
X90183000Y-32450000D01*
X156550000Y-32450000D01*
X156550000Y-40717000D01*
X155703250Y-40717000D01*
X155545000Y-40875250D01*
X155545000Y-41975000D01*
X155670000Y-41975000D01*
X155670000Y-43225000D01*
X155545000Y-43225000D01*
X155545000Y-44324750D01*
X155703250Y-44483000D01*
X156550000Y-44483000D01*
X156550000Y-48217000D01*
X155703250Y-48217000D01*
X155545000Y-48375250D01*
X155545000Y-49475000D01*
X155670000Y-49475000D01*
X155670000Y-50725000D01*
X155545000Y-50725000D01*
X155545000Y-51824750D01*
X155703250Y-51983000D01*
X156550000Y-51983000D01*
X156550000Y-52367000D01*
X155428250Y-52367000D01*
X155270000Y-52525250D01*
X155270000Y-53625000D01*
X155395000Y-53625000D01*
X155395000Y-54875000D01*
X155270000Y-54875000D01*
X155270000Y-55974750D01*
X155428250Y-56133000D01*
X156550000Y-56133000D01*
X156550000Y-59867000D01*
X155428250Y-59867000D01*
X155270000Y-60025250D01*
X155270000Y-61125000D01*
X155395000Y-61125000D01*
X155395000Y-62375000D01*
X155270000Y-62375000D01*
X155270000Y-63474750D01*
X155428250Y-63633000D01*
X156550000Y-63633000D01*
X156550000Y-88614803D01*
X156398566Y-88463369D01*
X156165912Y-88367000D01*
X154928250Y-88367000D01*
X154770000Y-88525250D01*
X154770000Y-89625000D01*
X154895000Y-89625000D01*
X154895000Y-90875000D01*
X154770000Y-90875000D01*
X154770000Y-91974750D01*
X154928250Y-92133000D01*
X156165912Y-92133000D01*
X156398566Y-92036631D01*
X156550000Y-91885197D01*
X156550000Y-96114803D01*
X156398566Y-95963369D01*
X156165912Y-95867000D01*
X154928250Y-95867000D01*
X154770000Y-96025250D01*
X154770000Y-97125000D01*
X154895000Y-97125000D01*
X154895000Y-98375000D01*
X154770000Y-98375000D01*
X154770000Y-99474750D01*
X154928250Y-99633000D01*
X156165912Y-99633000D01*
X156398566Y-99536631D01*
X156550000Y-99385197D01*
X156550000Y-107614803D01*
X156398566Y-107463369D01*
X156165912Y-107367000D01*
X154928250Y-107367000D01*
X154770000Y-107525250D01*
X154770000Y-108625000D01*
X154895000Y-108625000D01*
X154895000Y-109875000D01*
X154770000Y-109875000D01*
X154770000Y-110974750D01*
X154928250Y-111133000D01*
X156165912Y-111133000D01*
X156398566Y-111036631D01*
X156550000Y-110885197D01*
X156550000Y-115114803D01*
X156398566Y-114963369D01*
X156165912Y-114867000D01*
X154928250Y-114867000D01*
X154770000Y-115025250D01*
X154770000Y-116125000D01*
X154895000Y-116125000D01*
X154895000Y-117375000D01*
X154770000Y-117375000D01*
X154770000Y-118000000D01*
X152230000Y-118000000D01*
X152230000Y-117375000D01*
X150485250Y-117375000D01*
X150327000Y-117533250D01*
X150327000Y-118125911D01*
X150423368Y-118358565D01*
X150601434Y-118536631D01*
X150834088Y-118633000D01*
X151918442Y-118633000D01*
X151861034Y-118643802D01*
X151733401Y-118725931D01*
X151647777Y-118851246D01*
X151617654Y-119000000D01*
X151617654Y-121000000D01*
X151643802Y-121138966D01*
X151725931Y-121266599D01*
X151851246Y-121352223D01*
X152000000Y-121382346D01*
X154000000Y-121382346D01*
X154138966Y-121356198D01*
X154266599Y-121274069D01*
X154352223Y-121148754D01*
X154382346Y-121000000D01*
X154382346Y-119000000D01*
X154356198Y-118861034D01*
X154274069Y-118733401D01*
X154148754Y-118647777D01*
X154075782Y-118633000D01*
X154875002Y-118633000D01*
X154875002Y-118579752D01*
X154928250Y-118633000D01*
X156165912Y-118633000D01*
X156398566Y-118536631D01*
X156550000Y-118385197D01*
X156550000Y-131550000D01*
X143743479Y-131550000D01*
X144026659Y-131126190D01*
X144131325Y-130600000D01*
X144026659Y-130073810D01*
X143728597Y-129627728D01*
X143282515Y-129329666D01*
X142756325Y-129225000D01*
X139643675Y-129225000D01*
X139117485Y-129329666D01*
X138671403Y-129627728D01*
X138373341Y-130073810D01*
X138268675Y-130600000D01*
X138373341Y-131126190D01*
X138656521Y-131550000D01*
X136743479Y-131550000D01*
X137026659Y-131126190D01*
X137131325Y-130600000D01*
X137026659Y-130073810D01*
X136728597Y-129627728D01*
X136282515Y-129329666D01*
X135756325Y-129225000D01*
X132643675Y-129225000D01*
X132117485Y-129329666D01*
X131671403Y-129627728D01*
X131373341Y-130073810D01*
X131268675Y-130600000D01*
X131373341Y-131126190D01*
X131656521Y-131550000D01*
X72533000Y-131550000D01*
X72533000Y-130428250D01*
X72513000Y-130408250D01*
X120967000Y-130408250D01*
X120967000Y-130625912D01*
X121063369Y-130858566D01*
X121241435Y-131036632D01*
X121474089Y-131133000D01*
X122441750Y-131133000D01*
X122600000Y-130974750D01*
X122600000Y-130250000D01*
X124600000Y-130250000D01*
X124600000Y-130974750D01*
X124758250Y-131133000D01*
X125725911Y-131133000D01*
X125958565Y-131036632D01*
X126136631Y-130858566D01*
X126233000Y-130625912D01*
X126233000Y-130408250D01*
X126074750Y-130250000D01*
X124600000Y-130250000D01*
X122600000Y-130250000D01*
X121125250Y-130250000D01*
X120967000Y-130408250D01*
X72513000Y-130408250D01*
X72374750Y-130270000D01*
X71275000Y-130270000D01*
X71275000Y-130395000D01*
X70025000Y-130395000D01*
X70025000Y-130270000D01*
X68925250Y-130270000D01*
X68767000Y-130428250D01*
X68767000Y-131550000D01*
X65033000Y-131550000D01*
X65033000Y-130428250D01*
X64874750Y-130270000D01*
X63775000Y-130270000D01*
X63775000Y-130395000D01*
X62525000Y-130395000D01*
X62525000Y-130270000D01*
X61425250Y-130270000D01*
X61267000Y-130428250D01*
X61267000Y-131550000D01*
X57450000Y-131550000D01*
X57450000Y-129374088D01*
X120967000Y-129374088D01*
X120967000Y-129591750D01*
X121125250Y-129750000D01*
X122600000Y-129750000D01*
X122600000Y-129025250D01*
X124600000Y-129025250D01*
X124600000Y-129750000D01*
X126074750Y-129750000D01*
X126233000Y-129591750D01*
X126233000Y-129374088D01*
X126136631Y-129141434D01*
X125958565Y-128963368D01*
X125725911Y-128867000D01*
X124758250Y-128867000D01*
X124600000Y-129025250D01*
X122600000Y-129025250D01*
X122441750Y-128867000D01*
X121474089Y-128867000D01*
X121241435Y-128963368D01*
X121063369Y-129141434D01*
X120967000Y-129374088D01*
X57450000Y-129374088D01*
X57450000Y-126334088D01*
X61267000Y-126334088D01*
X61267000Y-127571750D01*
X61425250Y-127730000D01*
X62525000Y-127730000D01*
X62525000Y-125985250D01*
X63775000Y-125985250D01*
X63775000Y-127730000D01*
X64874750Y-127730000D01*
X65033000Y-127571750D01*
X65033000Y-126334088D01*
X68767000Y-126334088D01*
X68767000Y-127571750D01*
X68925250Y-127730000D01*
X70025000Y-127730000D01*
X70025000Y-125985250D01*
X71275000Y-125985250D01*
X71275000Y-127730000D01*
X72374750Y-127730000D01*
X72533000Y-127571750D01*
X72533000Y-126334088D01*
X72436631Y-126101434D01*
X72258565Y-125923368D01*
X72025911Y-125827000D01*
X71433250Y-125827000D01*
X71275000Y-125985250D01*
X70025000Y-125985250D01*
X69866750Y-125827000D01*
X69274089Y-125827000D01*
X69041435Y-125923368D01*
X68863369Y-126101434D01*
X68767000Y-126334088D01*
X65033000Y-126334088D01*
X64936631Y-126101434D01*
X64758565Y-125923368D01*
X64525911Y-125827000D01*
X63933250Y-125827000D01*
X63775000Y-125985250D01*
X62525000Y-125985250D01*
X62366750Y-125827000D01*
X61774089Y-125827000D01*
X61541435Y-125923368D01*
X61363369Y-126101434D01*
X61267000Y-126334088D01*
X57450000Y-126334088D01*
X57450000Y-123093000D01*
X58201750Y-123093000D01*
X58360000Y-122934750D01*
X58360000Y-121835000D01*
X60900000Y-121835000D01*
X60900000Y-122934750D01*
X61058250Y-123093000D01*
X62295912Y-123093000D01*
X62528566Y-122996631D01*
X62706632Y-122818565D01*
X62803000Y-122585911D01*
X62803000Y-122543675D01*
X118625000Y-122543675D01*
X118625000Y-126656325D01*
X118691605Y-126991173D01*
X118881282Y-127275043D01*
X119165152Y-127464720D01*
X119500000Y-127531325D01*
X119834848Y-127464720D01*
X120118718Y-127275043D01*
X120218974Y-127125000D01*
X120523376Y-127125000D01*
X120468675Y-127400000D01*
X120573341Y-127926190D01*
X120871403Y-128372272D01*
X121317485Y-128670334D01*
X121843675Y-128775000D01*
X124956325Y-128775000D01*
X125482515Y-128670334D01*
X125928597Y-128372272D01*
X126226659Y-127926190D01*
X126331325Y-127400000D01*
X126276624Y-127125000D01*
X130000000Y-127125000D01*
X130048632Y-127115152D01*
X130089601Y-127087159D01*
X130116451Y-127045432D01*
X130125000Y-127000000D01*
X130125000Y-123500000D01*
X130115152Y-123451368D01*
X130087159Y-123410399D01*
X130045432Y-123383549D01*
X130000000Y-123375000D01*
X125949746Y-123375000D01*
X126188599Y-123017531D01*
X126231868Y-122800000D01*
X147217654Y-122800000D01*
X147217654Y-124800000D01*
X147243802Y-124938966D01*
X147325931Y-125066599D01*
X147451246Y-125152223D01*
X147600000Y-125182346D01*
X149600000Y-125182346D01*
X149738966Y-125156198D01*
X149866599Y-125074069D01*
X149952223Y-124948754D01*
X149982346Y-124800000D01*
X149982346Y-124658250D01*
X151567000Y-124658250D01*
X151567000Y-125125912D01*
X151663369Y-125358566D01*
X151841435Y-125536632D01*
X152074089Y-125633000D01*
X152541750Y-125633000D01*
X152700000Y-125474750D01*
X152700000Y-124500000D01*
X153700000Y-124500000D01*
X153700000Y-125474750D01*
X153858250Y-125633000D01*
X154325911Y-125633000D01*
X154558565Y-125536632D01*
X154736631Y-125358566D01*
X154833000Y-125125912D01*
X154833000Y-124658250D01*
X154674750Y-124500000D01*
X153700000Y-124500000D01*
X152700000Y-124500000D01*
X151725250Y-124500000D01*
X151567000Y-124658250D01*
X149982346Y-124658250D01*
X149982346Y-122874088D01*
X151567000Y-122874088D01*
X151567000Y-123341750D01*
X151725250Y-123500000D01*
X152700000Y-123500000D01*
X152700000Y-122525250D01*
X153700000Y-122525250D01*
X153700000Y-123500000D01*
X154674750Y-123500000D01*
X154833000Y-123341750D01*
X154833000Y-122874088D01*
X154736631Y-122641434D01*
X154558565Y-122463368D01*
X154325911Y-122367000D01*
X153858250Y-122367000D01*
X153700000Y-122525250D01*
X152700000Y-122525250D01*
X152541750Y-122367000D01*
X152074089Y-122367000D01*
X151841435Y-122463368D01*
X151663369Y-122641434D01*
X151567000Y-122874088D01*
X149982346Y-122874088D01*
X149982346Y-122800000D01*
X149956198Y-122661034D01*
X149874069Y-122533401D01*
X149748754Y-122447777D01*
X149600000Y-122417654D01*
X147600000Y-122417654D01*
X147461034Y-122443802D01*
X147333401Y-122525931D01*
X147247777Y-122651246D01*
X147217654Y-122800000D01*
X126231868Y-122800000D01*
X126331325Y-122300000D01*
X126278350Y-122033677D01*
X134524883Y-122033677D01*
X134627429Y-122281857D01*
X134817144Y-122471903D01*
X135065145Y-122574883D01*
X135333677Y-122575117D01*
X135581857Y-122472571D01*
X135654555Y-122400000D01*
X136345366Y-122400000D01*
X136417144Y-122471903D01*
X136665145Y-122574883D01*
X136933677Y-122575117D01*
X137181857Y-122472571D01*
X137371903Y-122282856D01*
X137433848Y-122133677D01*
X137824883Y-122133677D01*
X137927429Y-122381857D01*
X138117144Y-122571903D01*
X138365145Y-122674883D01*
X138633677Y-122675117D01*
X138881857Y-122572571D01*
X138954555Y-122500000D01*
X139545366Y-122500000D01*
X139617144Y-122571903D01*
X139865145Y-122674883D01*
X140133677Y-122675117D01*
X140381857Y-122572571D01*
X140571903Y-122382856D01*
X140674883Y-122134855D01*
X140675117Y-121866323D01*
X140572571Y-121618143D01*
X140382856Y-121428097D01*
X140134855Y-121325117D01*
X139866323Y-121324883D01*
X139618143Y-121427429D01*
X139545445Y-121500000D01*
X138954634Y-121500000D01*
X138882856Y-121428097D01*
X138634855Y-121325117D01*
X138366323Y-121324883D01*
X138118143Y-121427429D01*
X137928097Y-121617144D01*
X137825117Y-121865145D01*
X137824883Y-122133677D01*
X137433848Y-122133677D01*
X137474883Y-122034855D01*
X137475117Y-121766323D01*
X137372571Y-121518143D01*
X137182856Y-121328097D01*
X136934855Y-121225117D01*
X136666323Y-121224883D01*
X136418143Y-121327429D01*
X136345445Y-121400000D01*
X135654634Y-121400000D01*
X135582856Y-121328097D01*
X135334855Y-121225117D01*
X135066323Y-121224883D01*
X134818143Y-121327429D01*
X134628097Y-121517144D01*
X134525117Y-121765145D01*
X134524883Y-122033677D01*
X126278350Y-122033677D01*
X126188599Y-121582469D01*
X125782150Y-120974175D01*
X125173856Y-120567726D01*
X124456325Y-120425000D01*
X122343675Y-120425000D01*
X121626144Y-120567726D01*
X121017850Y-120974175D01*
X120611401Y-121582469D01*
X120468675Y-122300000D01*
X120611401Y-123017531D01*
X120850254Y-123375000D01*
X120375000Y-123375000D01*
X120375000Y-122543675D01*
X120308395Y-122208827D01*
X120118718Y-121924957D01*
X119834848Y-121735280D01*
X119500000Y-121668675D01*
X119165152Y-121735280D01*
X118881282Y-121924957D01*
X118691605Y-122208827D01*
X118625000Y-122543675D01*
X62803000Y-122543675D01*
X62803000Y-121993250D01*
X62644750Y-121835000D01*
X60900000Y-121835000D01*
X58360000Y-121835000D01*
X58235000Y-121835000D01*
X58235000Y-120585000D01*
X58360000Y-120585000D01*
X58360000Y-119485250D01*
X60900000Y-119485250D01*
X60900000Y-120585000D01*
X62644750Y-120585000D01*
X62803000Y-120426750D01*
X62803000Y-119834089D01*
X62706632Y-119601435D01*
X62528566Y-119423369D01*
X62295912Y-119327000D01*
X61058250Y-119327000D01*
X60900000Y-119485250D01*
X58360000Y-119485250D01*
X58201750Y-119327000D01*
X57450000Y-119327000D01*
X57450000Y-119000000D01*
X147017654Y-119000000D01*
X147017654Y-121000000D01*
X147043802Y-121138966D01*
X147125931Y-121266599D01*
X147251246Y-121352223D01*
X147400000Y-121382346D01*
X149400000Y-121382346D01*
X149538966Y-121356198D01*
X149666599Y-121274069D01*
X149752223Y-121148754D01*
X149782346Y-121000000D01*
X149782346Y-119000000D01*
X149756198Y-118861034D01*
X149674069Y-118733401D01*
X149548754Y-118647777D01*
X149400000Y-118617654D01*
X147400000Y-118617654D01*
X147261034Y-118643802D01*
X147133401Y-118725931D01*
X147047777Y-118851246D01*
X147017654Y-119000000D01*
X57450000Y-119000000D01*
X57450000Y-116158250D01*
X121117000Y-116158250D01*
X121117000Y-116375912D01*
X121213369Y-116608566D01*
X121391435Y-116786632D01*
X121624089Y-116883000D01*
X122591750Y-116883000D01*
X122750000Y-116724750D01*
X122750000Y-116000000D01*
X124750000Y-116000000D01*
X124750000Y-116724750D01*
X124908250Y-116883000D01*
X125875911Y-116883000D01*
X126108565Y-116786632D01*
X126286631Y-116608566D01*
X126383000Y-116375912D01*
X126383000Y-116158250D01*
X126224750Y-116000000D01*
X124750000Y-116000000D01*
X122750000Y-116000000D01*
X121275250Y-116000000D01*
X121117000Y-116158250D01*
X57450000Y-116158250D01*
X57450000Y-115593000D01*
X58201750Y-115593000D01*
X58360000Y-115434750D01*
X58360000Y-114335000D01*
X60900000Y-114335000D01*
X60900000Y-115434750D01*
X61058250Y-115593000D01*
X62295912Y-115593000D01*
X62528566Y-115496631D01*
X62706632Y-115318565D01*
X62787186Y-115124088D01*
X121117000Y-115124088D01*
X121117000Y-115341750D01*
X121275250Y-115500000D01*
X122750000Y-115500000D01*
X122750000Y-114775250D01*
X124750000Y-114775250D01*
X124750000Y-115500000D01*
X126224750Y-115500000D01*
X126350661Y-115374089D01*
X150327000Y-115374089D01*
X150327000Y-115966750D01*
X150485250Y-116125000D01*
X152230000Y-116125000D01*
X152230000Y-115025250D01*
X152071750Y-114867000D01*
X150834088Y-114867000D01*
X150601434Y-114963369D01*
X150423368Y-115141435D01*
X150327000Y-115374089D01*
X126350661Y-115374089D01*
X126383000Y-115341750D01*
X126383000Y-115124088D01*
X126286631Y-114891434D01*
X126108565Y-114713368D01*
X125875911Y-114617000D01*
X124908250Y-114617000D01*
X124750000Y-114775250D01*
X122750000Y-114775250D01*
X122591750Y-114617000D01*
X121624089Y-114617000D01*
X121391435Y-114713368D01*
X121213369Y-114891434D01*
X121117000Y-115124088D01*
X62787186Y-115124088D01*
X62803000Y-115085911D01*
X62803000Y-114493250D01*
X62644750Y-114335000D01*
X60900000Y-114335000D01*
X58360000Y-114335000D01*
X58235000Y-114335000D01*
X58235000Y-113085000D01*
X58360000Y-113085000D01*
X58360000Y-111985250D01*
X60900000Y-111985250D01*
X60900000Y-113085000D01*
X62644750Y-113085000D01*
X62803000Y-112926750D01*
X62803000Y-112334089D01*
X62706632Y-112101435D01*
X62528566Y-111923369D01*
X62295912Y-111827000D01*
X61058250Y-111827000D01*
X60900000Y-111985250D01*
X58360000Y-111985250D01*
X58201750Y-111827000D01*
X57450000Y-111827000D01*
X57450000Y-109043675D01*
X118125000Y-109043675D01*
X118125000Y-113156325D01*
X118191605Y-113491173D01*
X118381282Y-113775043D01*
X118665152Y-113964720D01*
X119000000Y-114031325D01*
X119334848Y-113964720D01*
X119618718Y-113775043D01*
X119808395Y-113491173D01*
X119875000Y-113156325D01*
X119875000Y-112625000D01*
X120705955Y-112625000D01*
X120673341Y-112673810D01*
X120568675Y-113200000D01*
X120673341Y-113726190D01*
X120971403Y-114172272D01*
X121417485Y-114470334D01*
X121943675Y-114575000D01*
X125056325Y-114575000D01*
X125582515Y-114470334D01*
X126028597Y-114172272D01*
X126326659Y-113726190D01*
X126431325Y-113200000D01*
X126326659Y-112673810D01*
X126294045Y-112625000D01*
X130500000Y-112625000D01*
X130548632Y-112615152D01*
X130589601Y-112587159D01*
X130616451Y-112545432D01*
X130625000Y-112500000D01*
X130625000Y-109633677D01*
X140524883Y-109633677D01*
X140627429Y-109881857D01*
X140700000Y-109954555D01*
X140700000Y-110845366D01*
X140628097Y-110917144D01*
X140525117Y-111165145D01*
X140524883Y-111433677D01*
X140627429Y-111681857D01*
X140817144Y-111871903D01*
X141065145Y-111974883D01*
X141333677Y-111975117D01*
X141581857Y-111872571D01*
X141771903Y-111682856D01*
X141874883Y-111434855D01*
X141875117Y-111166323D01*
X141772571Y-110918143D01*
X141700000Y-110845445D01*
X141700000Y-110033250D01*
X150327000Y-110033250D01*
X150327000Y-110625911D01*
X150423368Y-110858565D01*
X150601434Y-111036631D01*
X150834088Y-111133000D01*
X152071750Y-111133000D01*
X152230000Y-110974750D01*
X152230000Y-109875000D01*
X150485250Y-109875000D01*
X150327000Y-110033250D01*
X141700000Y-110033250D01*
X141700000Y-109954634D01*
X141771903Y-109882856D01*
X141874883Y-109634855D01*
X141875117Y-109366323D01*
X141772571Y-109118143D01*
X141582856Y-108928097D01*
X141334855Y-108825117D01*
X141066323Y-108824883D01*
X140818143Y-108927429D01*
X140628097Y-109117144D01*
X140525117Y-109365145D01*
X140524883Y-109633677D01*
X130625000Y-109633677D01*
X130625000Y-109000000D01*
X130615152Y-108951368D01*
X130587159Y-108910399D01*
X130545432Y-108883549D01*
X130500000Y-108875000D01*
X128176924Y-108875000D01*
X128211733Y-108700000D01*
X128145128Y-108365152D01*
X127955451Y-108081282D01*
X127671581Y-107891605D01*
X127583522Y-107874089D01*
X150327000Y-107874089D01*
X150327000Y-108466750D01*
X150485250Y-108625000D01*
X152230000Y-108625000D01*
X152230000Y-107525250D01*
X152071750Y-107367000D01*
X150834088Y-107367000D01*
X150601434Y-107463369D01*
X150423368Y-107641435D01*
X150327000Y-107874089D01*
X127583522Y-107874089D01*
X127336733Y-107825000D01*
X125263267Y-107825000D01*
X124928419Y-107891605D01*
X124644549Y-108081282D01*
X124454872Y-108365152D01*
X124388267Y-108700000D01*
X124423076Y-108875000D01*
X123857032Y-108875000D01*
X123911733Y-108600000D01*
X123845128Y-108265152D01*
X123655451Y-107981282D01*
X123371581Y-107791605D01*
X123036733Y-107725000D01*
X120963267Y-107725000D01*
X120628419Y-107791605D01*
X120344549Y-107981282D01*
X120154872Y-108265152D01*
X120088267Y-108600000D01*
X120142968Y-108875000D01*
X119841449Y-108875000D01*
X119808395Y-108708827D01*
X119618718Y-108424957D01*
X119334848Y-108235280D01*
X119000000Y-108168675D01*
X118665152Y-108235280D01*
X118381282Y-108424957D01*
X118191605Y-108708827D01*
X118125000Y-109043675D01*
X57450000Y-109043675D01*
X57450000Y-108103000D01*
X58011750Y-108103000D01*
X58170000Y-107944750D01*
X58170000Y-106845000D01*
X60710000Y-106845000D01*
X60710000Y-107944750D01*
X60868250Y-108103000D01*
X62105912Y-108103000D01*
X62338566Y-108006631D01*
X62516632Y-107828565D01*
X62613000Y-107595911D01*
X62613000Y-107003250D01*
X62454750Y-106845000D01*
X60710000Y-106845000D01*
X58170000Y-106845000D01*
X58045000Y-106845000D01*
X58045000Y-105595000D01*
X58170000Y-105595000D01*
X58170000Y-104495250D01*
X60710000Y-104495250D01*
X60710000Y-105595000D01*
X62454750Y-105595000D01*
X62613000Y-105436750D01*
X62613000Y-104844089D01*
X62516632Y-104611435D01*
X62338566Y-104433369D01*
X62105912Y-104337000D01*
X60868250Y-104337000D01*
X60710000Y-104495250D01*
X58170000Y-104495250D01*
X58011750Y-104337000D01*
X57450000Y-104337000D01*
X57450000Y-103800000D01*
X131068675Y-103800000D01*
X131173341Y-104326190D01*
X131471403Y-104772272D01*
X131917485Y-105070334D01*
X132443675Y-105175000D01*
X135556325Y-105175000D01*
X136082515Y-105070334D01*
X136528597Y-104772272D01*
X136826659Y-104326190D01*
X136931325Y-103800000D01*
X138068675Y-103800000D01*
X138173341Y-104326190D01*
X138471403Y-104772272D01*
X138917485Y-105070334D01*
X139443675Y-105175000D01*
X142556325Y-105175000D01*
X143082515Y-105070334D01*
X143528597Y-104772272D01*
X143826659Y-104326190D01*
X143931325Y-103800000D01*
X143826659Y-103273810D01*
X143528597Y-102827728D01*
X143082515Y-102529666D01*
X142556325Y-102425000D01*
X139443675Y-102425000D01*
X138917485Y-102529666D01*
X138471403Y-102827728D01*
X138173341Y-103273810D01*
X138068675Y-103800000D01*
X136931325Y-103800000D01*
X136826659Y-103273810D01*
X136528597Y-102827728D01*
X136082515Y-102529666D01*
X135556325Y-102425000D01*
X132443675Y-102425000D01*
X131917485Y-102529666D01*
X131471403Y-102827728D01*
X131173341Y-103273810D01*
X131068675Y-103800000D01*
X57450000Y-103800000D01*
X57450000Y-100603000D01*
X58011750Y-100603000D01*
X58170000Y-100444750D01*
X58170000Y-99345000D01*
X60710000Y-99345000D01*
X60710000Y-100444750D01*
X60868250Y-100603000D01*
X62105912Y-100603000D01*
X62338566Y-100506631D01*
X62516632Y-100328565D01*
X62613000Y-100095911D01*
X62613000Y-99503250D01*
X62454750Y-99345000D01*
X60710000Y-99345000D01*
X58170000Y-99345000D01*
X58045000Y-99345000D01*
X58045000Y-98533250D01*
X150327000Y-98533250D01*
X150327000Y-99125911D01*
X150423368Y-99358565D01*
X150601434Y-99536631D01*
X150834088Y-99633000D01*
X152071750Y-99633000D01*
X152230000Y-99474750D01*
X152230000Y-98375000D01*
X150485250Y-98375000D01*
X150327000Y-98533250D01*
X58045000Y-98533250D01*
X58045000Y-98095000D01*
X58170000Y-98095000D01*
X58170000Y-96995250D01*
X60710000Y-96995250D01*
X60710000Y-98095000D01*
X62454750Y-98095000D01*
X62613000Y-97936750D01*
X62613000Y-97344089D01*
X62516632Y-97111435D01*
X62338566Y-96933369D01*
X62105912Y-96837000D01*
X60868250Y-96837000D01*
X60710000Y-96995250D01*
X58170000Y-96995250D01*
X58011750Y-96837000D01*
X57450000Y-96837000D01*
X57450000Y-95961814D01*
X116374718Y-95961814D01*
X116621588Y-96559286D01*
X117078309Y-97016805D01*
X117675349Y-97264718D01*
X118321814Y-97265282D01*
X118919286Y-97018412D01*
X119376805Y-96561691D01*
X119454704Y-96374089D01*
X150327000Y-96374089D01*
X150327000Y-96966750D01*
X150485250Y-97125000D01*
X152230000Y-97125000D01*
X152230000Y-96025250D01*
X152071750Y-95867000D01*
X150834088Y-95867000D01*
X150601434Y-95963369D01*
X150423368Y-96141435D01*
X150327000Y-96374089D01*
X119454704Y-96374089D01*
X119624718Y-95964651D01*
X119625282Y-95318186D01*
X119378412Y-94720714D01*
X118921691Y-94263195D01*
X118324651Y-94015282D01*
X117678186Y-94014718D01*
X117080714Y-94261588D01*
X116623195Y-94718309D01*
X116375282Y-95315349D01*
X116374718Y-95961814D01*
X57450000Y-95961814D01*
X57450000Y-90820000D01*
X59887654Y-90820000D01*
X59887654Y-94320000D01*
X59913802Y-94458966D01*
X59995931Y-94586599D01*
X60121246Y-94672223D01*
X60270000Y-94702346D01*
X63770000Y-94702346D01*
X63908966Y-94676198D01*
X64036599Y-94594069D01*
X64122223Y-94468754D01*
X64152346Y-94320000D01*
X64152346Y-90850000D01*
X108667654Y-90850000D01*
X108667654Y-92550000D01*
X108693802Y-92688966D01*
X108775931Y-92816599D01*
X108901246Y-92902223D01*
X109050000Y-92932346D01*
X110750000Y-92932346D01*
X110888966Y-92906198D01*
X111016599Y-92824069D01*
X111102223Y-92698754D01*
X111132346Y-92550000D01*
X111132346Y-90921814D01*
X113874718Y-90921814D01*
X114121588Y-91519286D01*
X114578309Y-91976805D01*
X115175349Y-92224718D01*
X115821814Y-92225282D01*
X116419286Y-91978412D01*
X116876805Y-91521691D01*
X117124718Y-90924651D01*
X117124720Y-90921814D01*
X118874718Y-90921814D01*
X119121588Y-91519286D01*
X119578309Y-91976805D01*
X120175349Y-92224718D01*
X120821814Y-92225282D01*
X121419286Y-91978412D01*
X121876805Y-91521691D01*
X122079623Y-91033250D01*
X150327000Y-91033250D01*
X150327000Y-91625911D01*
X150423368Y-91858565D01*
X150601434Y-92036631D01*
X150834088Y-92133000D01*
X152071750Y-92133000D01*
X152230000Y-91974750D01*
X152230000Y-90875000D01*
X150485250Y-90875000D01*
X150327000Y-91033250D01*
X122079623Y-91033250D01*
X122124718Y-90924651D01*
X122125282Y-90278186D01*
X121878412Y-89680714D01*
X121421691Y-89223195D01*
X120824651Y-88975282D01*
X120178186Y-88974718D01*
X119580714Y-89221588D01*
X119123195Y-89678309D01*
X118875282Y-90275349D01*
X118874718Y-90921814D01*
X117124720Y-90921814D01*
X117125282Y-90278186D01*
X116878412Y-89680714D01*
X116421691Y-89223195D01*
X115824651Y-88975282D01*
X115178186Y-88974718D01*
X114580714Y-89221588D01*
X114123195Y-89678309D01*
X113875282Y-90275349D01*
X113874718Y-90921814D01*
X111132346Y-90921814D01*
X111132346Y-90850000D01*
X111106198Y-90711034D01*
X111024069Y-90583401D01*
X110898754Y-90497777D01*
X110750000Y-90467654D01*
X109050000Y-90467654D01*
X108911034Y-90493802D01*
X108783401Y-90575931D01*
X108697777Y-90701246D01*
X108667654Y-90850000D01*
X64152346Y-90850000D01*
X64152346Y-90820000D01*
X64126198Y-90681034D01*
X64044069Y-90553401D01*
X63918754Y-90467777D01*
X63770000Y-90437654D01*
X60270000Y-90437654D01*
X60131034Y-90463802D01*
X60003401Y-90545931D01*
X59917777Y-90671246D01*
X59887654Y-90820000D01*
X57450000Y-90820000D01*
X57450000Y-90253000D01*
X57986750Y-90253000D01*
X58145000Y-90094750D01*
X58145000Y-88745000D01*
X59895000Y-88745000D01*
X59895000Y-90094750D01*
X60053250Y-90253000D01*
X60895911Y-90253000D01*
X61128565Y-90156632D01*
X61306631Y-89978566D01*
X61403000Y-89745912D01*
X61403000Y-88903250D01*
X61244750Y-88745000D01*
X59895000Y-88745000D01*
X58145000Y-88745000D01*
X57625000Y-88745000D01*
X57625000Y-86995000D01*
X58145000Y-86995000D01*
X58145000Y-85645250D01*
X59895000Y-85645250D01*
X59895000Y-86995000D01*
X61244750Y-86995000D01*
X61403000Y-86836750D01*
X61403000Y-86120000D01*
X62887654Y-86120000D01*
X62887654Y-89620000D01*
X62913802Y-89758966D01*
X62995931Y-89886599D01*
X63121246Y-89972223D01*
X63270000Y-90002346D01*
X66770000Y-90002346D01*
X66908966Y-89976198D01*
X67036599Y-89894069D01*
X67122223Y-89768754D01*
X67152346Y-89620000D01*
X67152346Y-89160000D01*
X108651001Y-89160000D01*
X108744249Y-89628787D01*
X109009795Y-90026206D01*
X109407214Y-90291752D01*
X109876001Y-90385000D01*
X109923999Y-90385000D01*
X110392786Y-90291752D01*
X110790205Y-90026206D01*
X111055751Y-89628787D01*
X111148999Y-89160000D01*
X111092128Y-88874089D01*
X150327000Y-88874089D01*
X150327000Y-89466750D01*
X150485250Y-89625000D01*
X152230000Y-89625000D01*
X152230000Y-88525250D01*
X152071750Y-88367000D01*
X150834088Y-88367000D01*
X150601434Y-88463369D01*
X150423368Y-88641435D01*
X150327000Y-88874089D01*
X111092128Y-88874089D01*
X111055751Y-88691213D01*
X110790205Y-88293794D01*
X110392786Y-88028248D01*
X109923999Y-87935000D01*
X109876001Y-87935000D01*
X109407214Y-88028248D01*
X109009795Y-88293794D01*
X108744249Y-88691213D01*
X108651001Y-89160000D01*
X67152346Y-89160000D01*
X67152346Y-86120000D01*
X67126198Y-85981034D01*
X67044069Y-85853401D01*
X66918754Y-85767777D01*
X66770000Y-85737654D01*
X63270000Y-85737654D01*
X63131034Y-85763802D01*
X63003401Y-85845931D01*
X62917777Y-85971246D01*
X62887654Y-86120000D01*
X61403000Y-86120000D01*
X61403000Y-85994088D01*
X61306631Y-85761434D01*
X61128565Y-85583368D01*
X60895911Y-85487000D01*
X60053250Y-85487000D01*
X59895000Y-85645250D01*
X58145000Y-85645250D01*
X57986750Y-85487000D01*
X57450000Y-85487000D01*
X57450000Y-84600000D01*
X68317654Y-84600000D01*
X68317654Y-86600000D01*
X68343802Y-86738966D01*
X68425931Y-86866599D01*
X68551246Y-86952223D01*
X68700000Y-86982346D01*
X70700000Y-86982346D01*
X70838966Y-86956198D01*
X70966599Y-86874069D01*
X71052223Y-86748754D01*
X71082346Y-86600000D01*
X71082346Y-85958250D01*
X73767000Y-85958250D01*
X73767000Y-86425912D01*
X73863369Y-86658566D01*
X74041435Y-86836632D01*
X74274089Y-86933000D01*
X74741750Y-86933000D01*
X74900000Y-86774750D01*
X74900000Y-85800000D01*
X75900000Y-85800000D01*
X75900000Y-86774750D01*
X76058250Y-86933000D01*
X76525911Y-86933000D01*
X76758565Y-86836632D01*
X76936631Y-86658566D01*
X76952605Y-86620000D01*
X108651001Y-86620000D01*
X108744249Y-87088787D01*
X109009795Y-87486206D01*
X109407214Y-87751752D01*
X109876001Y-87845000D01*
X109923999Y-87845000D01*
X110392786Y-87751752D01*
X110790205Y-87486206D01*
X111055751Y-87088787D01*
X111148999Y-86620000D01*
X111055751Y-86151213D01*
X110790205Y-85753794D01*
X110392786Y-85488248D01*
X109923999Y-85395000D01*
X109876001Y-85395000D01*
X109407214Y-85488248D01*
X109009795Y-85753794D01*
X108744249Y-86151213D01*
X108651001Y-86620000D01*
X76952605Y-86620000D01*
X77033000Y-86425912D01*
X77033000Y-85958250D01*
X76874750Y-85800000D01*
X75900000Y-85800000D01*
X74900000Y-85800000D01*
X73925250Y-85800000D01*
X73767000Y-85958250D01*
X71082346Y-85958250D01*
X71082346Y-84600000D01*
X71056198Y-84461034D01*
X70974069Y-84333401D01*
X70848754Y-84247777D01*
X70700000Y-84217654D01*
X68700000Y-84217654D01*
X68561034Y-84243802D01*
X68433401Y-84325931D01*
X68347777Y-84451246D01*
X68317654Y-84600000D01*
X57450000Y-84600000D01*
X57450000Y-84174088D01*
X73767000Y-84174088D01*
X73767000Y-84641750D01*
X73925250Y-84800000D01*
X74900000Y-84800000D01*
X74900000Y-83825250D01*
X75900000Y-83825250D01*
X75900000Y-84800000D01*
X76874750Y-84800000D01*
X77033000Y-84641750D01*
X77033000Y-84174088D01*
X76936631Y-83941434D01*
X76758565Y-83763368D01*
X76525911Y-83667000D01*
X76058250Y-83667000D01*
X75900000Y-83825250D01*
X74900000Y-83825250D01*
X74741750Y-83667000D01*
X74274089Y-83667000D01*
X74041435Y-83763368D01*
X73863369Y-83941434D01*
X73767000Y-84174088D01*
X57450000Y-84174088D01*
X57450000Y-79100000D01*
X68217654Y-79100000D01*
X68217654Y-81100000D01*
X68243802Y-81238966D01*
X68325931Y-81366599D01*
X68451246Y-81452223D01*
X68600000Y-81482346D01*
X70600000Y-81482346D01*
X70738966Y-81456198D01*
X70866599Y-81374069D01*
X70952223Y-81248754D01*
X70982346Y-81100000D01*
X70982346Y-79100000D01*
X70963530Y-79000000D01*
X73817654Y-79000000D01*
X73817654Y-81000000D01*
X73843802Y-81138966D01*
X73925931Y-81266599D01*
X74051246Y-81352223D01*
X74200000Y-81382346D01*
X76200000Y-81382346D01*
X76338966Y-81356198D01*
X76466599Y-81274069D01*
X76552223Y-81148754D01*
X76582346Y-81000000D01*
X76582346Y-79450000D01*
X105967654Y-79450000D01*
X105967654Y-82950000D01*
X105993802Y-83088966D01*
X106075931Y-83216599D01*
X106201246Y-83302223D01*
X106350000Y-83332346D01*
X109850000Y-83332346D01*
X109988966Y-83306198D01*
X110116599Y-83224069D01*
X110202223Y-83098754D01*
X110232346Y-82950000D01*
X110232346Y-79450000D01*
X110206198Y-79311034D01*
X110124069Y-79183401D01*
X109998754Y-79097777D01*
X109850000Y-79067654D01*
X106350000Y-79067654D01*
X106211034Y-79093802D01*
X106083401Y-79175931D01*
X105997777Y-79301246D01*
X105967654Y-79450000D01*
X76582346Y-79450000D01*
X76582346Y-79000000D01*
X76556198Y-78861034D01*
X76474069Y-78733401D01*
X76348754Y-78647777D01*
X76200000Y-78617654D01*
X74200000Y-78617654D01*
X74061034Y-78643802D01*
X73933401Y-78725931D01*
X73847777Y-78851246D01*
X73817654Y-79000000D01*
X70963530Y-79000000D01*
X70956198Y-78961034D01*
X70874069Y-78833401D01*
X70748754Y-78747777D01*
X70600000Y-78717654D01*
X68600000Y-78717654D01*
X68461034Y-78743802D01*
X68333401Y-78825931D01*
X68247777Y-78951246D01*
X68217654Y-79100000D01*
X57450000Y-79100000D01*
X57450000Y-77533250D01*
X102717000Y-77533250D01*
X102717000Y-78375912D01*
X102813369Y-78608566D01*
X102991435Y-78786632D01*
X103224089Y-78883000D01*
X104066750Y-78883000D01*
X104225000Y-78724750D01*
X104225000Y-77375000D01*
X105975000Y-77375000D01*
X105975000Y-78724750D01*
X106133250Y-78883000D01*
X106975911Y-78883000D01*
X107208565Y-78786632D01*
X107386631Y-78608566D01*
X107483000Y-78375912D01*
X107483000Y-77533250D01*
X107324750Y-77375000D01*
X105975000Y-77375000D01*
X104225000Y-77375000D01*
X102875250Y-77375000D01*
X102717000Y-77533250D01*
X57450000Y-77533250D01*
X57450000Y-74624088D01*
X102717000Y-74624088D01*
X102717000Y-75466750D01*
X102875250Y-75625000D01*
X104225000Y-75625000D01*
X104225000Y-74275250D01*
X105975000Y-74275250D01*
X105975000Y-75625000D01*
X107324750Y-75625000D01*
X107483000Y-75466750D01*
X107483000Y-74750000D01*
X108967654Y-74750000D01*
X108967654Y-78250000D01*
X108993802Y-78388966D01*
X109075931Y-78516599D01*
X109201246Y-78602223D01*
X109350000Y-78632346D01*
X112850000Y-78632346D01*
X112988966Y-78606198D01*
X113116599Y-78524069D01*
X113202223Y-78398754D01*
X113232346Y-78250000D01*
X113232346Y-74750000D01*
X113206198Y-74611034D01*
X113124069Y-74483401D01*
X112998754Y-74397777D01*
X112850000Y-74367654D01*
X109350000Y-74367654D01*
X109211034Y-74393802D01*
X109083401Y-74475931D01*
X108997777Y-74601246D01*
X108967654Y-74750000D01*
X107483000Y-74750000D01*
X107483000Y-74624088D01*
X107386631Y-74391434D01*
X107208565Y-74213368D01*
X106975911Y-74117000D01*
X106133250Y-74117000D01*
X105975000Y-74275250D01*
X104225000Y-74275250D01*
X104066750Y-74117000D01*
X103224089Y-74117000D01*
X102991435Y-74213368D01*
X102813369Y-74391434D01*
X102717000Y-74624088D01*
X57450000Y-74624088D01*
X57450000Y-62533250D01*
X150827000Y-62533250D01*
X150827000Y-63125911D01*
X150923368Y-63358565D01*
X151101434Y-63536631D01*
X151334088Y-63633000D01*
X152571750Y-63633000D01*
X152730000Y-63474750D01*
X152730000Y-62375000D01*
X150985250Y-62375000D01*
X150827000Y-62533250D01*
X57450000Y-62533250D01*
X57450000Y-60374089D01*
X150827000Y-60374089D01*
X150827000Y-60966750D01*
X150985250Y-61125000D01*
X152730000Y-61125000D01*
X152730000Y-60025250D01*
X152571750Y-59867000D01*
X151334088Y-59867000D01*
X151101434Y-59963369D01*
X150923368Y-60141435D01*
X150827000Y-60374089D01*
X57450000Y-60374089D01*
X57450000Y-58598169D01*
X57534088Y-58633000D01*
X58771750Y-58633000D01*
X58930000Y-58474750D01*
X58930000Y-57375000D01*
X61470000Y-57375000D01*
X61470000Y-58474750D01*
X61628250Y-58633000D01*
X62865912Y-58633000D01*
X63098566Y-58536631D01*
X63276632Y-58358565D01*
X63373000Y-58125911D01*
X63373000Y-57933677D01*
X74124883Y-57933677D01*
X74227429Y-58181857D01*
X74417144Y-58371903D01*
X74665145Y-58474883D01*
X74933677Y-58475117D01*
X75181857Y-58372571D01*
X75254555Y-58300000D01*
X78193606Y-58300000D01*
X78227429Y-58381857D01*
X78417144Y-58571903D01*
X78665145Y-58674883D01*
X78933677Y-58675117D01*
X79181857Y-58572571D01*
X79371903Y-58382856D01*
X79474883Y-58134855D01*
X79475117Y-57866323D01*
X79372571Y-57618143D01*
X79182856Y-57428097D01*
X78934855Y-57325117D01*
X78725355Y-57324934D01*
X78600000Y-57300000D01*
X75254634Y-57300000D01*
X75182856Y-57228097D01*
X74934855Y-57125117D01*
X74666323Y-57124883D01*
X74418143Y-57227429D01*
X74228097Y-57417144D01*
X74125117Y-57665145D01*
X74124883Y-57933677D01*
X63373000Y-57933677D01*
X63373000Y-57533250D01*
X63214750Y-57375000D01*
X61470000Y-57375000D01*
X58930000Y-57375000D01*
X58805000Y-57375000D01*
X58805000Y-56125000D01*
X58930000Y-56125000D01*
X58930000Y-55025250D01*
X61470000Y-55025250D01*
X61470000Y-56125000D01*
X63214750Y-56125000D01*
X63373000Y-55966750D01*
X63373000Y-55374089D01*
X63276632Y-55141435D01*
X63098566Y-54963369D01*
X62865912Y-54867000D01*
X61628250Y-54867000D01*
X61470000Y-55025250D01*
X58930000Y-55025250D01*
X58771750Y-54867000D01*
X57534088Y-54867000D01*
X57450000Y-54901831D01*
X57450000Y-54333677D01*
X79924883Y-54333677D01*
X80027429Y-54581857D01*
X80217144Y-54771903D01*
X80465145Y-54874883D01*
X80733677Y-54875117D01*
X80981857Y-54772571D01*
X81171903Y-54582856D01*
X81274883Y-54334855D01*
X81275117Y-54066323D01*
X81202590Y-53890795D01*
X81254625Y-53700000D01*
X127268675Y-53700000D01*
X127373341Y-54226190D01*
X127671403Y-54672272D01*
X128117485Y-54970334D01*
X128643675Y-55075000D01*
X131756325Y-55075000D01*
X132282515Y-54970334D01*
X132728597Y-54672272D01*
X133026659Y-54226190D01*
X133131325Y-53700000D01*
X134468675Y-53700000D01*
X134573341Y-54226190D01*
X134871403Y-54672272D01*
X135317485Y-54970334D01*
X135843675Y-55075000D01*
X138956325Y-55075000D01*
X139166215Y-55033250D01*
X150827000Y-55033250D01*
X150827000Y-55625911D01*
X150923368Y-55858565D01*
X151101434Y-56036631D01*
X151334088Y-56133000D01*
X152571750Y-56133000D01*
X152730000Y-55974750D01*
X152730000Y-54875000D01*
X150985250Y-54875000D01*
X150827000Y-55033250D01*
X139166215Y-55033250D01*
X139482515Y-54970334D01*
X139928597Y-54672272D01*
X140226659Y-54226190D01*
X140331325Y-53700000D01*
X140226659Y-53173810D01*
X140026393Y-52874089D01*
X150827000Y-52874089D01*
X150827000Y-53466750D01*
X150985250Y-53625000D01*
X152730000Y-53625000D01*
X152730000Y-52525250D01*
X152571750Y-52367000D01*
X151334088Y-52367000D01*
X151101434Y-52463369D01*
X150923368Y-52641435D01*
X150827000Y-52874089D01*
X140026393Y-52874089D01*
X139928597Y-52727728D01*
X139482515Y-52429666D01*
X138956325Y-52325000D01*
X135843675Y-52325000D01*
X135317485Y-52429666D01*
X134871403Y-52727728D01*
X134573341Y-53173810D01*
X134468675Y-53700000D01*
X133131325Y-53700000D01*
X133026659Y-53173810D01*
X132728597Y-52727728D01*
X132282515Y-52429666D01*
X131756325Y-52325000D01*
X128643675Y-52325000D01*
X128117485Y-52429666D01*
X127671403Y-52727728D01*
X127373341Y-53173810D01*
X127268675Y-53700000D01*
X81254625Y-53700000D01*
X81682382Y-52131559D01*
X81687027Y-52065222D01*
X81700000Y-52000000D01*
X81693782Y-51968739D01*
X81696008Y-51936944D01*
X81674936Y-51873949D01*
X81675117Y-51666323D01*
X81572571Y-51418143D01*
X81382856Y-51228097D01*
X81134855Y-51125117D01*
X80866323Y-51124883D01*
X80618143Y-51227429D01*
X80428097Y-51417144D01*
X80325117Y-51665145D01*
X80324883Y-51933677D01*
X80427429Y-52181857D01*
X80588214Y-52342922D01*
X80240402Y-53618232D01*
X80218143Y-53627429D01*
X80028097Y-53817144D01*
X79925117Y-54065145D01*
X79924883Y-54333677D01*
X57450000Y-54333677D01*
X57450000Y-51098169D01*
X57534088Y-51133000D01*
X58771750Y-51133000D01*
X58930000Y-50974750D01*
X58930000Y-49875000D01*
X61470000Y-49875000D01*
X61470000Y-50974750D01*
X61628250Y-51133000D01*
X62865912Y-51133000D01*
X63098566Y-51036631D01*
X63276632Y-50858565D01*
X63373000Y-50625911D01*
X63373000Y-50033250D01*
X63214750Y-49875000D01*
X61470000Y-49875000D01*
X58930000Y-49875000D01*
X58805000Y-49875000D01*
X58805000Y-49400000D01*
X83617654Y-49400000D01*
X83617654Y-51400000D01*
X83643802Y-51538966D01*
X83725931Y-51666599D01*
X83851246Y-51752223D01*
X84000000Y-51782346D01*
X86000000Y-51782346D01*
X86138966Y-51756198D01*
X86266599Y-51674069D01*
X86352223Y-51548754D01*
X86382346Y-51400000D01*
X86382346Y-49400000D01*
X88417654Y-49400000D01*
X88417654Y-51400000D01*
X88443802Y-51538966D01*
X88525931Y-51666599D01*
X88651246Y-51752223D01*
X88800000Y-51782346D01*
X90800000Y-51782346D01*
X90938966Y-51756198D01*
X91066599Y-51674069D01*
X91152223Y-51548754D01*
X91182346Y-51400000D01*
X91182346Y-49400000D01*
X91156198Y-49261034D01*
X91074069Y-49133401D01*
X90948754Y-49047777D01*
X90800000Y-49017654D01*
X88800000Y-49017654D01*
X88661034Y-49043802D01*
X88533401Y-49125931D01*
X88447777Y-49251246D01*
X88417654Y-49400000D01*
X86382346Y-49400000D01*
X86356198Y-49261034D01*
X86274069Y-49133401D01*
X86148754Y-49047777D01*
X86000000Y-49017654D01*
X84000000Y-49017654D01*
X83861034Y-49043802D01*
X83733401Y-49125931D01*
X83647777Y-49251246D01*
X83617654Y-49400000D01*
X58805000Y-49400000D01*
X58805000Y-48625000D01*
X58930000Y-48625000D01*
X58930000Y-47525250D01*
X61470000Y-47525250D01*
X61470000Y-48625000D01*
X63214750Y-48625000D01*
X63373000Y-48466750D01*
X63373000Y-47874089D01*
X63276632Y-47641435D01*
X63135197Y-47500000D01*
X120375000Y-47500000D01*
X120375000Y-51500000D01*
X120384848Y-51548632D01*
X120412841Y-51589601D01*
X120454568Y-51616451D01*
X120500000Y-51625000D01*
X121060212Y-51625000D01*
X121189651Y-51818718D01*
X121473521Y-52008395D01*
X121808369Y-52075000D01*
X124391631Y-52075000D01*
X124726479Y-52008395D01*
X125010349Y-51818718D01*
X125139788Y-51625000D01*
X125798015Y-51625000D01*
X125799974Y-51634848D01*
X125989651Y-51918718D01*
X126273521Y-52108395D01*
X126608369Y-52175000D01*
X129191631Y-52175000D01*
X129526479Y-52108395D01*
X129810349Y-51918718D01*
X130000026Y-51634848D01*
X130001985Y-51625000D01*
X131500000Y-51625000D01*
X131548632Y-51615152D01*
X131589601Y-51587159D01*
X131616451Y-51545432D01*
X131625000Y-51500000D01*
X131625000Y-50883250D01*
X151102000Y-50883250D01*
X151102000Y-51475911D01*
X151198368Y-51708565D01*
X151376434Y-51886631D01*
X151609088Y-51983000D01*
X152846750Y-51983000D01*
X153005000Y-51824750D01*
X153005000Y-50725000D01*
X151260250Y-50725000D01*
X151102000Y-50883250D01*
X131625000Y-50883250D01*
X131625000Y-48724089D01*
X151102000Y-48724089D01*
X151102000Y-49316750D01*
X151260250Y-49475000D01*
X153005000Y-49475000D01*
X153005000Y-48375250D01*
X152846750Y-48217000D01*
X151609088Y-48217000D01*
X151376434Y-48313369D01*
X151198368Y-48491435D01*
X151102000Y-48724089D01*
X131625000Y-48724089D01*
X131625000Y-47500000D01*
X131615152Y-47451368D01*
X131587159Y-47410399D01*
X131545432Y-47383549D01*
X131500000Y-47375000D01*
X126930397Y-47375000D01*
X127407582Y-47056155D01*
X127976611Y-46204544D01*
X128176427Y-45200000D01*
X127976611Y-44195456D01*
X127433912Y-43383250D01*
X151102000Y-43383250D01*
X151102000Y-43975911D01*
X151198368Y-44208565D01*
X151376434Y-44386631D01*
X151609088Y-44483000D01*
X152846750Y-44483000D01*
X153005000Y-44324750D01*
X153005000Y-43225000D01*
X151260250Y-43225000D01*
X151102000Y-43383250D01*
X127433912Y-43383250D01*
X127407582Y-43343845D01*
X126555971Y-42774816D01*
X125551427Y-42575000D01*
X125448573Y-42575000D01*
X124444029Y-42774816D01*
X123592418Y-43343845D01*
X123023389Y-44195456D01*
X122823573Y-45200000D01*
X123023389Y-46204544D01*
X123592418Y-47056155D01*
X124069603Y-47375000D01*
X122415000Y-47375000D01*
X122415000Y-44883675D01*
X122348395Y-44548827D01*
X122158718Y-44264957D01*
X121874848Y-44075280D01*
X121540000Y-44008675D01*
X121205152Y-44075280D01*
X120921282Y-44264957D01*
X120731605Y-44548827D01*
X120665000Y-44883675D01*
X120665000Y-47375000D01*
X120500000Y-47375000D01*
X120451368Y-47384848D01*
X120410399Y-47412841D01*
X120383549Y-47454568D01*
X120375000Y-47500000D01*
X63135197Y-47500000D01*
X63098566Y-47463369D01*
X62865912Y-47367000D01*
X61628250Y-47367000D01*
X61470000Y-47525250D01*
X58930000Y-47525250D01*
X58771750Y-47367000D01*
X57534088Y-47367000D01*
X57450000Y-47401831D01*
X57450000Y-46258250D01*
X83167000Y-46258250D01*
X83167000Y-46725912D01*
X83263369Y-46958566D01*
X83441435Y-47136632D01*
X83674089Y-47233000D01*
X84141750Y-47233000D01*
X84300000Y-47074750D01*
X84300000Y-46100000D01*
X85300000Y-46100000D01*
X85300000Y-47074750D01*
X85458250Y-47233000D01*
X85925911Y-47233000D01*
X86158565Y-47136632D01*
X86336631Y-46958566D01*
X86433000Y-46725912D01*
X86433000Y-46258250D01*
X86274750Y-46100000D01*
X85300000Y-46100000D01*
X84300000Y-46100000D01*
X83325250Y-46100000D01*
X83167000Y-46258250D01*
X57450000Y-46258250D01*
X57450000Y-44474088D01*
X83167000Y-44474088D01*
X83167000Y-44941750D01*
X83325250Y-45100000D01*
X84300000Y-45100000D01*
X84300000Y-44125250D01*
X85300000Y-44125250D01*
X85300000Y-45100000D01*
X86274750Y-45100000D01*
X86433000Y-44941750D01*
X86433000Y-44600000D01*
X88417654Y-44600000D01*
X88417654Y-46600000D01*
X88443802Y-46738966D01*
X88525931Y-46866599D01*
X88651246Y-46952223D01*
X88800000Y-46982346D01*
X90800000Y-46982346D01*
X90938966Y-46956198D01*
X91066599Y-46874069D01*
X91152223Y-46748754D01*
X91182346Y-46600000D01*
X91182346Y-44600000D01*
X91156198Y-44461034D01*
X91074069Y-44333401D01*
X90948754Y-44247777D01*
X90800000Y-44217654D01*
X88800000Y-44217654D01*
X88661034Y-44243802D01*
X88533401Y-44325931D01*
X88447777Y-44451246D01*
X88417654Y-44600000D01*
X86433000Y-44600000D01*
X86433000Y-44474088D01*
X86336631Y-44241434D01*
X86158565Y-44063368D01*
X85925911Y-43967000D01*
X85458250Y-43967000D01*
X85300000Y-44125250D01*
X84300000Y-44125250D01*
X84141750Y-43967000D01*
X83674089Y-43967000D01*
X83441435Y-44063368D01*
X83263369Y-44241434D01*
X83167000Y-44474088D01*
X57450000Y-44474088D01*
X57450000Y-35903250D01*
X69517000Y-35903250D01*
X69517000Y-37140912D01*
X69613369Y-37373566D01*
X69791435Y-37551632D01*
X70024089Y-37648000D01*
X70616750Y-37648000D01*
X70775000Y-37489750D01*
X70775000Y-35745000D01*
X72025000Y-35745000D01*
X72025000Y-37489750D01*
X72183250Y-37648000D01*
X72775911Y-37648000D01*
X73008565Y-37551632D01*
X73186631Y-37373566D01*
X73283000Y-37140912D01*
X73283000Y-35903250D01*
X77017000Y-35903250D01*
X77017000Y-37140912D01*
X77113369Y-37373566D01*
X77291435Y-37551632D01*
X77524089Y-37648000D01*
X78116750Y-37648000D01*
X78275000Y-37489750D01*
X78275000Y-35745000D01*
X79525000Y-35745000D01*
X79525000Y-37489750D01*
X79683250Y-37648000D01*
X80275911Y-37648000D01*
X80508565Y-37551632D01*
X80686631Y-37373566D01*
X80783000Y-37140912D01*
X80783000Y-35903250D01*
X80624750Y-35745000D01*
X79525000Y-35745000D01*
X78275000Y-35745000D01*
X77175250Y-35745000D01*
X77017000Y-35903250D01*
X73283000Y-35903250D01*
X73124750Y-35745000D01*
X72025000Y-35745000D01*
X70775000Y-35745000D01*
X69675250Y-35745000D01*
X69517000Y-35903250D01*
X57450000Y-35903250D01*
X57450000Y-35450000D01*
X80967654Y-35450000D01*
X80967654Y-38950000D01*
X80993802Y-39088966D01*
X81075931Y-39216599D01*
X81201246Y-39302223D01*
X81350000Y-39332346D01*
X84850000Y-39332346D01*
X84988966Y-39306198D01*
X85116599Y-39224069D01*
X85202223Y-39098754D01*
X85232346Y-38950000D01*
X85232346Y-38450000D01*
X85667654Y-38450000D01*
X85667654Y-41950000D01*
X85693802Y-42088966D01*
X85775931Y-42216599D01*
X85901246Y-42302223D01*
X86050000Y-42332346D01*
X89550000Y-42332346D01*
X89688966Y-42306198D01*
X89816599Y-42224069D01*
X89902223Y-42098754D01*
X89932346Y-41950000D01*
X89932346Y-39223267D01*
X120635000Y-39223267D01*
X120635000Y-41296733D01*
X120701605Y-41631581D01*
X120891282Y-41915451D01*
X121175152Y-42105128D01*
X121510000Y-42171733D01*
X121844848Y-42105128D01*
X121967000Y-42023509D01*
X121967000Y-42675002D01*
X123205000Y-42675002D01*
X123205000Y-42433000D01*
X123441750Y-42433000D01*
X123600000Y-42274750D01*
X123600000Y-41550000D01*
X125600000Y-41550000D01*
X125600000Y-42274750D01*
X125758250Y-42433000D01*
X126725911Y-42433000D01*
X126958565Y-42336632D01*
X127136631Y-42158566D01*
X127233000Y-41925912D01*
X127233000Y-41708250D01*
X127074750Y-41550000D01*
X125600000Y-41550000D01*
X123600000Y-41550000D01*
X123205000Y-41550000D01*
X123205000Y-41224089D01*
X151102000Y-41224089D01*
X151102000Y-41816750D01*
X151260250Y-41975000D01*
X153005000Y-41975000D01*
X153005000Y-40875250D01*
X152846750Y-40717000D01*
X151609088Y-40717000D01*
X151376434Y-40813369D01*
X151198368Y-40991435D01*
X151102000Y-41224089D01*
X123205000Y-41224089D01*
X123205000Y-41050000D01*
X123600000Y-41050000D01*
X123600000Y-40325250D01*
X125600000Y-40325250D01*
X125600000Y-41050000D01*
X127074750Y-41050000D01*
X127233000Y-40891750D01*
X127233000Y-40674088D01*
X127136631Y-40441434D01*
X126958565Y-40263368D01*
X126725911Y-40167000D01*
X125758250Y-40167000D01*
X125600000Y-40325250D01*
X123600000Y-40325250D01*
X123441750Y-40167000D01*
X123205000Y-40167000D01*
X123205000Y-39924998D01*
X122385000Y-39924998D01*
X122385000Y-39223267D01*
X122318395Y-38888419D01*
X122128718Y-38604549D01*
X121972251Y-38500000D01*
X131117654Y-38500000D01*
X131117654Y-40500000D01*
X131143802Y-40638966D01*
X131225931Y-40766599D01*
X131351246Y-40852223D01*
X131500000Y-40882346D01*
X133500000Y-40882346D01*
X133638966Y-40856198D01*
X133766599Y-40774069D01*
X133852223Y-40648754D01*
X133882346Y-40500000D01*
X133882346Y-40158250D01*
X135367000Y-40158250D01*
X135367000Y-40625912D01*
X135463369Y-40858566D01*
X135641435Y-41036632D01*
X135874089Y-41133000D01*
X136341750Y-41133000D01*
X136500000Y-40974750D01*
X136500000Y-40000000D01*
X137500000Y-40000000D01*
X137500000Y-40974750D01*
X137658250Y-41133000D01*
X138125911Y-41133000D01*
X138358565Y-41036632D01*
X138536631Y-40858566D01*
X138633000Y-40625912D01*
X138633000Y-40158250D01*
X138474750Y-40000000D01*
X137500000Y-40000000D01*
X136500000Y-40000000D01*
X135525250Y-40000000D01*
X135367000Y-40158250D01*
X133882346Y-40158250D01*
X133882346Y-38500000D01*
X133856198Y-38361034D01*
X133774069Y-38233401D01*
X133648754Y-38147777D01*
X133500000Y-38117654D01*
X131500000Y-38117654D01*
X131361034Y-38143802D01*
X131233401Y-38225931D01*
X131147777Y-38351246D01*
X131117654Y-38500000D01*
X121972251Y-38500000D01*
X121844848Y-38414872D01*
X121510000Y-38348267D01*
X121175152Y-38414872D01*
X120891282Y-38604549D01*
X120701605Y-38888419D01*
X120635000Y-39223267D01*
X89932346Y-39223267D01*
X89932346Y-38450000D01*
X89906198Y-38311034D01*
X89824069Y-38183401D01*
X89698754Y-38097777D01*
X89550000Y-38067654D01*
X86050000Y-38067654D01*
X85911034Y-38093802D01*
X85783401Y-38175931D01*
X85697777Y-38301246D01*
X85667654Y-38450000D01*
X85232346Y-38450000D01*
X85232346Y-35450000D01*
X85206198Y-35311034D01*
X85156146Y-35233250D01*
X85417000Y-35233250D01*
X85417000Y-36075911D01*
X85513368Y-36308565D01*
X85691434Y-36486631D01*
X85924088Y-36583000D01*
X86766750Y-36583000D01*
X86925000Y-36424750D01*
X86925000Y-35075000D01*
X88675000Y-35075000D01*
X88675000Y-36424750D01*
X88833250Y-36583000D01*
X89675912Y-36583000D01*
X89908566Y-36486631D01*
X90086632Y-36308565D01*
X90183000Y-36075911D01*
X90183000Y-35233250D01*
X90024750Y-35075000D01*
X88675000Y-35075000D01*
X86925000Y-35075000D01*
X85575250Y-35075000D01*
X85417000Y-35233250D01*
X85156146Y-35233250D01*
X85124069Y-35183401D01*
X84998754Y-35097777D01*
X84850000Y-35067654D01*
X81350000Y-35067654D01*
X81211034Y-35093802D01*
X81083401Y-35175931D01*
X80997777Y-35301246D01*
X80967654Y-35450000D01*
X57450000Y-35450000D01*
X57450000Y-34000000D01*
X127068675Y-34000000D01*
X127173341Y-34526190D01*
X127471403Y-34972272D01*
X127917485Y-35270334D01*
X128443675Y-35375000D01*
X131142967Y-35375000D01*
X131117654Y-35500000D01*
X131117654Y-37500000D01*
X131143802Y-37638966D01*
X131225931Y-37766599D01*
X131351246Y-37852223D01*
X131500000Y-37882346D01*
X133500000Y-37882346D01*
X133638966Y-37856198D01*
X133766599Y-37774069D01*
X133852223Y-37648754D01*
X133882346Y-37500000D01*
X133882346Y-35500000D01*
X133856198Y-35361034D01*
X133774069Y-35233401D01*
X133648754Y-35147777D01*
X133500000Y-35117654D01*
X132311017Y-35117654D01*
X132528597Y-34972272D01*
X132826659Y-34526190D01*
X132931325Y-34000000D01*
X134568675Y-34000000D01*
X134673341Y-34526190D01*
X134971403Y-34972272D01*
X135417485Y-35270334D01*
X135668893Y-35320342D01*
X135647777Y-35351246D01*
X135617654Y-35500000D01*
X135617654Y-37500000D01*
X135643802Y-37638966D01*
X135725931Y-37766599D01*
X135851246Y-37852223D01*
X135924218Y-37867000D01*
X135624998Y-37867000D01*
X135624998Y-37979805D01*
X135463369Y-38141434D01*
X135367000Y-38374088D01*
X135367000Y-38841750D01*
X135525250Y-39000000D01*
X136500000Y-39000000D01*
X136500000Y-38500000D01*
X137500000Y-38500000D01*
X137500000Y-39000000D01*
X138474750Y-39000000D01*
X138633000Y-38841750D01*
X138633000Y-38374088D01*
X138536631Y-38141434D01*
X138375002Y-37979805D01*
X138375002Y-37867000D01*
X138081558Y-37867000D01*
X138138966Y-37856198D01*
X138266599Y-37774069D01*
X138352223Y-37648754D01*
X138382346Y-37500000D01*
X138382346Y-35500000D01*
X138358826Y-35375000D01*
X139056325Y-35375000D01*
X139582515Y-35270334D01*
X140028597Y-34972272D01*
X140326659Y-34526190D01*
X140431325Y-34000000D01*
X140326659Y-33473810D01*
X140028597Y-33027728D01*
X139582515Y-32729666D01*
X139056325Y-32625000D01*
X135943675Y-32625000D01*
X135417485Y-32729666D01*
X134971403Y-33027728D01*
X134673341Y-33473810D01*
X134568675Y-34000000D01*
X132931325Y-34000000D01*
X132826659Y-33473810D01*
X132528597Y-33027728D01*
X132082515Y-32729666D01*
X131556325Y-32625000D01*
X128443675Y-32625000D01*
X127917485Y-32729666D01*
X127471403Y-33027728D01*
X127173341Y-33473810D01*
X127068675Y-34000000D01*
X57450000Y-34000000D01*
X57450000Y-32450000D01*
X69517000Y-32450000D01*
X69517000Y-33046750D01*
X69517000Y-33046750D01*
G37*
X69517000Y-33046750D02*
X69675250Y-33205000D01*
X70775000Y-33205000D01*
X70775000Y-33080000D01*
X72025000Y-33080000D01*
X72025000Y-33205000D01*
X73124750Y-33205000D01*
X73283000Y-33046750D01*
X73283000Y-32450000D01*
X77017000Y-32450000D01*
X77017000Y-33046750D01*
X77175250Y-33205000D01*
X78275000Y-33205000D01*
X78275000Y-33080000D01*
X79525000Y-33080000D01*
X79525000Y-33205000D01*
X80624750Y-33205000D01*
X80783000Y-33046750D01*
X80783000Y-32450000D01*
X85417000Y-32450000D01*
X85417000Y-33166750D01*
X85575250Y-33325000D01*
X86925000Y-33325000D01*
X86925000Y-32805000D01*
X88675000Y-32805000D01*
X88675000Y-33325000D01*
X90024750Y-33325000D01*
X90183000Y-33166750D01*
X90183000Y-32450000D01*
X156550000Y-32450000D01*
X156550000Y-40717000D01*
X155703250Y-40717000D01*
X155545000Y-40875250D01*
X155545000Y-41975000D01*
X155670000Y-41975000D01*
X155670000Y-43225000D01*
X155545000Y-43225000D01*
X155545000Y-44324750D01*
X155703250Y-44483000D01*
X156550000Y-44483000D01*
X156550000Y-48217000D01*
X155703250Y-48217000D01*
X155545000Y-48375250D01*
X155545000Y-49475000D01*
X155670000Y-49475000D01*
X155670000Y-50725000D01*
X155545000Y-50725000D01*
X155545000Y-51824750D01*
X155703250Y-51983000D01*
X156550000Y-51983000D01*
X156550000Y-52367000D01*
X155428250Y-52367000D01*
X155270000Y-52525250D01*
X155270000Y-53625000D01*
X155395000Y-53625000D01*
X155395000Y-54875000D01*
X155270000Y-54875000D01*
X155270000Y-55974750D01*
X155428250Y-56133000D01*
X156550000Y-56133000D01*
X156550000Y-59867000D01*
X155428250Y-59867000D01*
X155270000Y-60025250D01*
X155270000Y-61125000D01*
X155395000Y-61125000D01*
X155395000Y-62375000D01*
X155270000Y-62375000D01*
X155270000Y-63474750D01*
X155428250Y-63633000D01*
X156550000Y-63633000D01*
X156550000Y-88614803D01*
X156398566Y-88463369D01*
X156165912Y-88367000D01*
X154928250Y-88367000D01*
X154770000Y-88525250D01*
X154770000Y-89625000D01*
X154895000Y-89625000D01*
X154895000Y-90875000D01*
X154770000Y-90875000D01*
X154770000Y-91974750D01*
X154928250Y-92133000D01*
X156165912Y-92133000D01*
X156398566Y-92036631D01*
X156550000Y-91885197D01*
X156550000Y-96114803D01*
X156398566Y-95963369D01*
X156165912Y-95867000D01*
X154928250Y-95867000D01*
X154770000Y-96025250D01*
X154770000Y-97125000D01*
X154895000Y-97125000D01*
X154895000Y-98375000D01*
X154770000Y-98375000D01*
X154770000Y-99474750D01*
X154928250Y-99633000D01*
X156165912Y-99633000D01*
X156398566Y-99536631D01*
X156550000Y-99385197D01*
X156550000Y-107614803D01*
X156398566Y-107463369D01*
X156165912Y-107367000D01*
X154928250Y-107367000D01*
X154770000Y-107525250D01*
X154770000Y-108625000D01*
X154895000Y-108625000D01*
X154895000Y-109875000D01*
X154770000Y-109875000D01*
X154770000Y-110974750D01*
X154928250Y-111133000D01*
X156165912Y-111133000D01*
X156398566Y-111036631D01*
X156550000Y-110885197D01*
X156550000Y-115114803D01*
X156398566Y-114963369D01*
X156165912Y-114867000D01*
X154928250Y-114867000D01*
X154770000Y-115025250D01*
X154770000Y-116125000D01*
X154895000Y-116125000D01*
X154895000Y-117375000D01*
X154770000Y-117375000D01*
X154770000Y-118000000D01*
X152230000Y-118000000D01*
X152230000Y-117375000D01*
X150485250Y-117375000D01*
X150327000Y-117533250D01*
X150327000Y-118125911D01*
X150423368Y-118358565D01*
X150601434Y-118536631D01*
X150834088Y-118633000D01*
X151918442Y-118633000D01*
X151861034Y-118643802D01*
X151733401Y-118725931D01*
X151647777Y-118851246D01*
X151617654Y-119000000D01*
X151617654Y-121000000D01*
X151643802Y-121138966D01*
X151725931Y-121266599D01*
X151851246Y-121352223D01*
X152000000Y-121382346D01*
X154000000Y-121382346D01*
X154138966Y-121356198D01*
X154266599Y-121274069D01*
X154352223Y-121148754D01*
X154382346Y-121000000D01*
X154382346Y-119000000D01*
X154356198Y-118861034D01*
X154274069Y-118733401D01*
X154148754Y-118647777D01*
X154075782Y-118633000D01*
X154875002Y-118633000D01*
X154875002Y-118579752D01*
X154928250Y-118633000D01*
X156165912Y-118633000D01*
X156398566Y-118536631D01*
X156550000Y-118385197D01*
X156550000Y-131550000D01*
X143743479Y-131550000D01*
X144026659Y-131126190D01*
X144131325Y-130600000D01*
X144026659Y-130073810D01*
X143728597Y-129627728D01*
X143282515Y-129329666D01*
X142756325Y-129225000D01*
X139643675Y-129225000D01*
X139117485Y-129329666D01*
X138671403Y-129627728D01*
X138373341Y-130073810D01*
X138268675Y-130600000D01*
X138373341Y-131126190D01*
X138656521Y-131550000D01*
X136743479Y-131550000D01*
X137026659Y-131126190D01*
X137131325Y-130600000D01*
X137026659Y-130073810D01*
X136728597Y-129627728D01*
X136282515Y-129329666D01*
X135756325Y-129225000D01*
X132643675Y-129225000D01*
X132117485Y-129329666D01*
X131671403Y-129627728D01*
X131373341Y-130073810D01*
X131268675Y-130600000D01*
X131373341Y-131126190D01*
X131656521Y-131550000D01*
X72533000Y-131550000D01*
X72533000Y-130428250D01*
X72513000Y-130408250D01*
X120967000Y-130408250D01*
X120967000Y-130625912D01*
X121063369Y-130858566D01*
X121241435Y-131036632D01*
X121474089Y-131133000D01*
X122441750Y-131133000D01*
X122600000Y-130974750D01*
X122600000Y-130250000D01*
X124600000Y-130250000D01*
X124600000Y-130974750D01*
X124758250Y-131133000D01*
X125725911Y-131133000D01*
X125958565Y-131036632D01*
X126136631Y-130858566D01*
X126233000Y-130625912D01*
X126233000Y-130408250D01*
X126074750Y-130250000D01*
X124600000Y-130250000D01*
X122600000Y-130250000D01*
X121125250Y-130250000D01*
X120967000Y-130408250D01*
X72513000Y-130408250D01*
X72374750Y-130270000D01*
X71275000Y-130270000D01*
X71275000Y-130395000D01*
X70025000Y-130395000D01*
X70025000Y-130270000D01*
X68925250Y-130270000D01*
X68767000Y-130428250D01*
X68767000Y-131550000D01*
X65033000Y-131550000D01*
X65033000Y-130428250D01*
X64874750Y-130270000D01*
X63775000Y-130270000D01*
X63775000Y-130395000D01*
X62525000Y-130395000D01*
X62525000Y-130270000D01*
X61425250Y-130270000D01*
X61267000Y-130428250D01*
X61267000Y-131550000D01*
X57450000Y-131550000D01*
X57450000Y-129374088D01*
X120967000Y-129374088D01*
X120967000Y-129591750D01*
X121125250Y-129750000D01*
X122600000Y-129750000D01*
X122600000Y-129025250D01*
X124600000Y-129025250D01*
X124600000Y-129750000D01*
X126074750Y-129750000D01*
X126233000Y-129591750D01*
X126233000Y-129374088D01*
X126136631Y-129141434D01*
X125958565Y-128963368D01*
X125725911Y-128867000D01*
X124758250Y-128867000D01*
X124600000Y-129025250D01*
X122600000Y-129025250D01*
X122441750Y-128867000D01*
X121474089Y-128867000D01*
X121241435Y-128963368D01*
X121063369Y-129141434D01*
X120967000Y-129374088D01*
X57450000Y-129374088D01*
X57450000Y-126334088D01*
X61267000Y-126334088D01*
X61267000Y-127571750D01*
X61425250Y-127730000D01*
X62525000Y-127730000D01*
X62525000Y-125985250D01*
X63775000Y-125985250D01*
X63775000Y-127730000D01*
X64874750Y-127730000D01*
X65033000Y-127571750D01*
X65033000Y-126334088D01*
X68767000Y-126334088D01*
X68767000Y-127571750D01*
X68925250Y-127730000D01*
X70025000Y-127730000D01*
X70025000Y-125985250D01*
X71275000Y-125985250D01*
X71275000Y-127730000D01*
X72374750Y-127730000D01*
X72533000Y-127571750D01*
X72533000Y-126334088D01*
X72436631Y-126101434D01*
X72258565Y-125923368D01*
X72025911Y-125827000D01*
X71433250Y-125827000D01*
X71275000Y-125985250D01*
X70025000Y-125985250D01*
X69866750Y-125827000D01*
X69274089Y-125827000D01*
X69041435Y-125923368D01*
X68863369Y-126101434D01*
X68767000Y-126334088D01*
X65033000Y-126334088D01*
X64936631Y-126101434D01*
X64758565Y-125923368D01*
X64525911Y-125827000D01*
X63933250Y-125827000D01*
X63775000Y-125985250D01*
X62525000Y-125985250D01*
X62366750Y-125827000D01*
X61774089Y-125827000D01*
X61541435Y-125923368D01*
X61363369Y-126101434D01*
X61267000Y-126334088D01*
X57450000Y-126334088D01*
X57450000Y-123093000D01*
X58201750Y-123093000D01*
X58360000Y-122934750D01*
X58360000Y-121835000D01*
X60900000Y-121835000D01*
X60900000Y-122934750D01*
X61058250Y-123093000D01*
X62295912Y-123093000D01*
X62528566Y-122996631D01*
X62706632Y-122818565D01*
X62803000Y-122585911D01*
X62803000Y-122543675D01*
X118625000Y-122543675D01*
X118625000Y-126656325D01*
X118691605Y-126991173D01*
X118881282Y-127275043D01*
X119165152Y-127464720D01*
X119500000Y-127531325D01*
X119834848Y-127464720D01*
X120118718Y-127275043D01*
X120218974Y-127125000D01*
X120523376Y-127125000D01*
X120468675Y-127400000D01*
X120573341Y-127926190D01*
X120871403Y-128372272D01*
X121317485Y-128670334D01*
X121843675Y-128775000D01*
X124956325Y-128775000D01*
X125482515Y-128670334D01*
X125928597Y-128372272D01*
X126226659Y-127926190D01*
X126331325Y-127400000D01*
X126276624Y-127125000D01*
X130000000Y-127125000D01*
X130048632Y-127115152D01*
X130089601Y-127087159D01*
X130116451Y-127045432D01*
X130125000Y-127000000D01*
X130125000Y-123500000D01*
X130115152Y-123451368D01*
X130087159Y-123410399D01*
X130045432Y-123383549D01*
X130000000Y-123375000D01*
X125949746Y-123375000D01*
X126188599Y-123017531D01*
X126231868Y-122800000D01*
X147217654Y-122800000D01*
X147217654Y-124800000D01*
X147243802Y-124938966D01*
X147325931Y-125066599D01*
X147451246Y-125152223D01*
X147600000Y-125182346D01*
X149600000Y-125182346D01*
X149738966Y-125156198D01*
X149866599Y-125074069D01*
X149952223Y-124948754D01*
X149982346Y-124800000D01*
X149982346Y-124658250D01*
X151567000Y-124658250D01*
X151567000Y-125125912D01*
X151663369Y-125358566D01*
X151841435Y-125536632D01*
X152074089Y-125633000D01*
X152541750Y-125633000D01*
X152700000Y-125474750D01*
X152700000Y-124500000D01*
X153700000Y-124500000D01*
X153700000Y-125474750D01*
X153858250Y-125633000D01*
X154325911Y-125633000D01*
X154558565Y-125536632D01*
X154736631Y-125358566D01*
X154833000Y-125125912D01*
X154833000Y-124658250D01*
X154674750Y-124500000D01*
X153700000Y-124500000D01*
X152700000Y-124500000D01*
X151725250Y-124500000D01*
X151567000Y-124658250D01*
X149982346Y-124658250D01*
X149982346Y-122874088D01*
X151567000Y-122874088D01*
X151567000Y-123341750D01*
X151725250Y-123500000D01*
X152700000Y-123500000D01*
X152700000Y-122525250D01*
X153700000Y-122525250D01*
X153700000Y-123500000D01*
X154674750Y-123500000D01*
X154833000Y-123341750D01*
X154833000Y-122874088D01*
X154736631Y-122641434D01*
X154558565Y-122463368D01*
X154325911Y-122367000D01*
X153858250Y-122367000D01*
X153700000Y-122525250D01*
X152700000Y-122525250D01*
X152541750Y-122367000D01*
X152074089Y-122367000D01*
X151841435Y-122463368D01*
X151663369Y-122641434D01*
X151567000Y-122874088D01*
X149982346Y-122874088D01*
X149982346Y-122800000D01*
X149956198Y-122661034D01*
X149874069Y-122533401D01*
X149748754Y-122447777D01*
X149600000Y-122417654D01*
X147600000Y-122417654D01*
X147461034Y-122443802D01*
X147333401Y-122525931D01*
X147247777Y-122651246D01*
X147217654Y-122800000D01*
X126231868Y-122800000D01*
X126331325Y-122300000D01*
X126278350Y-122033677D01*
X134524883Y-122033677D01*
X134627429Y-122281857D01*
X134817144Y-122471903D01*
X135065145Y-122574883D01*
X135333677Y-122575117D01*
X135581857Y-122472571D01*
X135654555Y-122400000D01*
X136345366Y-122400000D01*
X136417144Y-122471903D01*
X136665145Y-122574883D01*
X136933677Y-122575117D01*
X137181857Y-122472571D01*
X137371903Y-122282856D01*
X137433848Y-122133677D01*
X137824883Y-122133677D01*
X137927429Y-122381857D01*
X138117144Y-122571903D01*
X138365145Y-122674883D01*
X138633677Y-122675117D01*
X138881857Y-122572571D01*
X138954555Y-122500000D01*
X139545366Y-122500000D01*
X139617144Y-122571903D01*
X139865145Y-122674883D01*
X140133677Y-122675117D01*
X140381857Y-122572571D01*
X140571903Y-122382856D01*
X140674883Y-122134855D01*
X140675117Y-121866323D01*
X140572571Y-121618143D01*
X140382856Y-121428097D01*
X140134855Y-121325117D01*
X139866323Y-121324883D01*
X139618143Y-121427429D01*
X139545445Y-121500000D01*
X138954634Y-121500000D01*
X138882856Y-121428097D01*
X138634855Y-121325117D01*
X138366323Y-121324883D01*
X138118143Y-121427429D01*
X137928097Y-121617144D01*
X137825117Y-121865145D01*
X137824883Y-122133677D01*
X137433848Y-122133677D01*
X137474883Y-122034855D01*
X137475117Y-121766323D01*
X137372571Y-121518143D01*
X137182856Y-121328097D01*
X136934855Y-121225117D01*
X136666323Y-121224883D01*
X136418143Y-121327429D01*
X136345445Y-121400000D01*
X135654634Y-121400000D01*
X135582856Y-121328097D01*
X135334855Y-121225117D01*
X135066323Y-121224883D01*
X134818143Y-121327429D01*
X134628097Y-121517144D01*
X134525117Y-121765145D01*
X134524883Y-122033677D01*
X126278350Y-122033677D01*
X126188599Y-121582469D01*
X125782150Y-120974175D01*
X125173856Y-120567726D01*
X124456325Y-120425000D01*
X122343675Y-120425000D01*
X121626144Y-120567726D01*
X121017850Y-120974175D01*
X120611401Y-121582469D01*
X120468675Y-122300000D01*
X120611401Y-123017531D01*
X120850254Y-123375000D01*
X120375000Y-123375000D01*
X120375000Y-122543675D01*
X120308395Y-122208827D01*
X120118718Y-121924957D01*
X119834848Y-121735280D01*
X119500000Y-121668675D01*
X119165152Y-121735280D01*
X118881282Y-121924957D01*
X118691605Y-122208827D01*
X118625000Y-122543675D01*
X62803000Y-122543675D01*
X62803000Y-121993250D01*
X62644750Y-121835000D01*
X60900000Y-121835000D01*
X58360000Y-121835000D01*
X58235000Y-121835000D01*
X58235000Y-120585000D01*
X58360000Y-120585000D01*
X58360000Y-119485250D01*
X60900000Y-119485250D01*
X60900000Y-120585000D01*
X62644750Y-120585000D01*
X62803000Y-120426750D01*
X62803000Y-119834089D01*
X62706632Y-119601435D01*
X62528566Y-119423369D01*
X62295912Y-119327000D01*
X61058250Y-119327000D01*
X60900000Y-119485250D01*
X58360000Y-119485250D01*
X58201750Y-119327000D01*
X57450000Y-119327000D01*
X57450000Y-119000000D01*
X147017654Y-119000000D01*
X147017654Y-121000000D01*
X147043802Y-121138966D01*
X147125931Y-121266599D01*
X147251246Y-121352223D01*
X147400000Y-121382346D01*
X149400000Y-121382346D01*
X149538966Y-121356198D01*
X149666599Y-121274069D01*
X149752223Y-121148754D01*
X149782346Y-121000000D01*
X149782346Y-119000000D01*
X149756198Y-118861034D01*
X149674069Y-118733401D01*
X149548754Y-118647777D01*
X149400000Y-118617654D01*
X147400000Y-118617654D01*
X147261034Y-118643802D01*
X147133401Y-118725931D01*
X147047777Y-118851246D01*
X147017654Y-119000000D01*
X57450000Y-119000000D01*
X57450000Y-116158250D01*
X121117000Y-116158250D01*
X121117000Y-116375912D01*
X121213369Y-116608566D01*
X121391435Y-116786632D01*
X121624089Y-116883000D01*
X122591750Y-116883000D01*
X122750000Y-116724750D01*
X122750000Y-116000000D01*
X124750000Y-116000000D01*
X124750000Y-116724750D01*
X124908250Y-116883000D01*
X125875911Y-116883000D01*
X126108565Y-116786632D01*
X126286631Y-116608566D01*
X126383000Y-116375912D01*
X126383000Y-116158250D01*
X126224750Y-116000000D01*
X124750000Y-116000000D01*
X122750000Y-116000000D01*
X121275250Y-116000000D01*
X121117000Y-116158250D01*
X57450000Y-116158250D01*
X57450000Y-115593000D01*
X58201750Y-115593000D01*
X58360000Y-115434750D01*
X58360000Y-114335000D01*
X60900000Y-114335000D01*
X60900000Y-115434750D01*
X61058250Y-115593000D01*
X62295912Y-115593000D01*
X62528566Y-115496631D01*
X62706632Y-115318565D01*
X62787186Y-115124088D01*
X121117000Y-115124088D01*
X121117000Y-115341750D01*
X121275250Y-115500000D01*
X122750000Y-115500000D01*
X122750000Y-114775250D01*
X124750000Y-114775250D01*
X124750000Y-115500000D01*
X126224750Y-115500000D01*
X126350661Y-115374089D01*
X150327000Y-115374089D01*
X150327000Y-115966750D01*
X150485250Y-116125000D01*
X152230000Y-116125000D01*
X152230000Y-115025250D01*
X152071750Y-114867000D01*
X150834088Y-114867000D01*
X150601434Y-114963369D01*
X150423368Y-115141435D01*
X150327000Y-115374089D01*
X126350661Y-115374089D01*
X126383000Y-115341750D01*
X126383000Y-115124088D01*
X126286631Y-114891434D01*
X126108565Y-114713368D01*
X125875911Y-114617000D01*
X124908250Y-114617000D01*
X124750000Y-114775250D01*
X122750000Y-114775250D01*
X122591750Y-114617000D01*
X121624089Y-114617000D01*
X121391435Y-114713368D01*
X121213369Y-114891434D01*
X121117000Y-115124088D01*
X62787186Y-115124088D01*
X62803000Y-115085911D01*
X62803000Y-114493250D01*
X62644750Y-114335000D01*
X60900000Y-114335000D01*
X58360000Y-114335000D01*
X58235000Y-114335000D01*
X58235000Y-113085000D01*
X58360000Y-113085000D01*
X58360000Y-111985250D01*
X60900000Y-111985250D01*
X60900000Y-113085000D01*
X62644750Y-113085000D01*
X62803000Y-112926750D01*
X62803000Y-112334089D01*
X62706632Y-112101435D01*
X62528566Y-111923369D01*
X62295912Y-111827000D01*
X61058250Y-111827000D01*
X60900000Y-111985250D01*
X58360000Y-111985250D01*
X58201750Y-111827000D01*
X57450000Y-111827000D01*
X57450000Y-109043675D01*
X118125000Y-109043675D01*
X118125000Y-113156325D01*
X118191605Y-113491173D01*
X118381282Y-113775043D01*
X118665152Y-113964720D01*
X119000000Y-114031325D01*
X119334848Y-113964720D01*
X119618718Y-113775043D01*
X119808395Y-113491173D01*
X119875000Y-113156325D01*
X119875000Y-112625000D01*
X120705955Y-112625000D01*
X120673341Y-112673810D01*
X120568675Y-113200000D01*
X120673341Y-113726190D01*
X120971403Y-114172272D01*
X121417485Y-114470334D01*
X121943675Y-114575000D01*
X125056325Y-114575000D01*
X125582515Y-114470334D01*
X126028597Y-114172272D01*
X126326659Y-113726190D01*
X126431325Y-113200000D01*
X126326659Y-112673810D01*
X126294045Y-112625000D01*
X130500000Y-112625000D01*
X130548632Y-112615152D01*
X130589601Y-112587159D01*
X130616451Y-112545432D01*
X130625000Y-112500000D01*
X130625000Y-109633677D01*
X140524883Y-109633677D01*
X140627429Y-109881857D01*
X140700000Y-109954555D01*
X140700000Y-110845366D01*
X140628097Y-110917144D01*
X140525117Y-111165145D01*
X140524883Y-111433677D01*
X140627429Y-111681857D01*
X140817144Y-111871903D01*
X141065145Y-111974883D01*
X141333677Y-111975117D01*
X141581857Y-111872571D01*
X141771903Y-111682856D01*
X141874883Y-111434855D01*
X141875117Y-111166323D01*
X141772571Y-110918143D01*
X141700000Y-110845445D01*
X141700000Y-110033250D01*
X150327000Y-110033250D01*
X150327000Y-110625911D01*
X150423368Y-110858565D01*
X150601434Y-111036631D01*
X150834088Y-111133000D01*
X152071750Y-111133000D01*
X152230000Y-110974750D01*
X152230000Y-109875000D01*
X150485250Y-109875000D01*
X150327000Y-110033250D01*
X141700000Y-110033250D01*
X141700000Y-109954634D01*
X141771903Y-109882856D01*
X141874883Y-109634855D01*
X141875117Y-109366323D01*
X141772571Y-109118143D01*
X141582856Y-108928097D01*
X141334855Y-108825117D01*
X141066323Y-108824883D01*
X140818143Y-108927429D01*
X140628097Y-109117144D01*
X140525117Y-109365145D01*
X140524883Y-109633677D01*
X130625000Y-109633677D01*
X130625000Y-109000000D01*
X130615152Y-108951368D01*
X130587159Y-108910399D01*
X130545432Y-108883549D01*
X130500000Y-108875000D01*
X128176924Y-108875000D01*
X128211733Y-108700000D01*
X128145128Y-108365152D01*
X127955451Y-108081282D01*
X127671581Y-107891605D01*
X127583522Y-107874089D01*
X150327000Y-107874089D01*
X150327000Y-108466750D01*
X150485250Y-108625000D01*
X152230000Y-108625000D01*
X152230000Y-107525250D01*
X152071750Y-107367000D01*
X150834088Y-107367000D01*
X150601434Y-107463369D01*
X150423368Y-107641435D01*
X150327000Y-107874089D01*
X127583522Y-107874089D01*
X127336733Y-107825000D01*
X125263267Y-107825000D01*
X124928419Y-107891605D01*
X124644549Y-108081282D01*
X124454872Y-108365152D01*
X124388267Y-108700000D01*
X124423076Y-108875000D01*
X123857032Y-108875000D01*
X123911733Y-108600000D01*
X123845128Y-108265152D01*
X123655451Y-107981282D01*
X123371581Y-107791605D01*
X123036733Y-107725000D01*
X120963267Y-107725000D01*
X120628419Y-107791605D01*
X120344549Y-107981282D01*
X120154872Y-108265152D01*
X120088267Y-108600000D01*
X120142968Y-108875000D01*
X119841449Y-108875000D01*
X119808395Y-108708827D01*
X119618718Y-108424957D01*
X119334848Y-108235280D01*
X119000000Y-108168675D01*
X118665152Y-108235280D01*
X118381282Y-108424957D01*
X118191605Y-108708827D01*
X118125000Y-109043675D01*
X57450000Y-109043675D01*
X57450000Y-108103000D01*
X58011750Y-108103000D01*
X58170000Y-107944750D01*
X58170000Y-106845000D01*
X60710000Y-106845000D01*
X60710000Y-107944750D01*
X60868250Y-108103000D01*
X62105912Y-108103000D01*
X62338566Y-108006631D01*
X62516632Y-107828565D01*
X62613000Y-107595911D01*
X62613000Y-107003250D01*
X62454750Y-106845000D01*
X60710000Y-106845000D01*
X58170000Y-106845000D01*
X58045000Y-106845000D01*
X58045000Y-105595000D01*
X58170000Y-105595000D01*
X58170000Y-104495250D01*
X60710000Y-104495250D01*
X60710000Y-105595000D01*
X62454750Y-105595000D01*
X62613000Y-105436750D01*
X62613000Y-104844089D01*
X62516632Y-104611435D01*
X62338566Y-104433369D01*
X62105912Y-104337000D01*
X60868250Y-104337000D01*
X60710000Y-104495250D01*
X58170000Y-104495250D01*
X58011750Y-104337000D01*
X57450000Y-104337000D01*
X57450000Y-103800000D01*
X131068675Y-103800000D01*
X131173341Y-104326190D01*
X131471403Y-104772272D01*
X131917485Y-105070334D01*
X132443675Y-105175000D01*
X135556325Y-105175000D01*
X136082515Y-105070334D01*
X136528597Y-104772272D01*
X136826659Y-104326190D01*
X136931325Y-103800000D01*
X138068675Y-103800000D01*
X138173341Y-104326190D01*
X138471403Y-104772272D01*
X138917485Y-105070334D01*
X139443675Y-105175000D01*
X142556325Y-105175000D01*
X143082515Y-105070334D01*
X143528597Y-104772272D01*
X143826659Y-104326190D01*
X143931325Y-103800000D01*
X143826659Y-103273810D01*
X143528597Y-102827728D01*
X143082515Y-102529666D01*
X142556325Y-102425000D01*
X139443675Y-102425000D01*
X138917485Y-102529666D01*
X138471403Y-102827728D01*
X138173341Y-103273810D01*
X138068675Y-103800000D01*
X136931325Y-103800000D01*
X136826659Y-103273810D01*
X136528597Y-102827728D01*
X136082515Y-102529666D01*
X135556325Y-102425000D01*
X132443675Y-102425000D01*
X131917485Y-102529666D01*
X131471403Y-102827728D01*
X131173341Y-103273810D01*
X131068675Y-103800000D01*
X57450000Y-103800000D01*
X57450000Y-100603000D01*
X58011750Y-100603000D01*
X58170000Y-100444750D01*
X58170000Y-99345000D01*
X60710000Y-99345000D01*
X60710000Y-100444750D01*
X60868250Y-100603000D01*
X62105912Y-100603000D01*
X62338566Y-100506631D01*
X62516632Y-100328565D01*
X62613000Y-100095911D01*
X62613000Y-99503250D01*
X62454750Y-99345000D01*
X60710000Y-99345000D01*
X58170000Y-99345000D01*
X58045000Y-99345000D01*
X58045000Y-98533250D01*
X150327000Y-98533250D01*
X150327000Y-99125911D01*
X150423368Y-99358565D01*
X150601434Y-99536631D01*
X150834088Y-99633000D01*
X152071750Y-99633000D01*
X152230000Y-99474750D01*
X152230000Y-98375000D01*
X150485250Y-98375000D01*
X150327000Y-98533250D01*
X58045000Y-98533250D01*
X58045000Y-98095000D01*
X58170000Y-98095000D01*
X58170000Y-96995250D01*
X60710000Y-96995250D01*
X60710000Y-98095000D01*
X62454750Y-98095000D01*
X62613000Y-97936750D01*
X62613000Y-97344089D01*
X62516632Y-97111435D01*
X62338566Y-96933369D01*
X62105912Y-96837000D01*
X60868250Y-96837000D01*
X60710000Y-96995250D01*
X58170000Y-96995250D01*
X58011750Y-96837000D01*
X57450000Y-96837000D01*
X57450000Y-95961814D01*
X116374718Y-95961814D01*
X116621588Y-96559286D01*
X117078309Y-97016805D01*
X117675349Y-97264718D01*
X118321814Y-97265282D01*
X118919286Y-97018412D01*
X119376805Y-96561691D01*
X119454704Y-96374089D01*
X150327000Y-96374089D01*
X150327000Y-96966750D01*
X150485250Y-97125000D01*
X152230000Y-97125000D01*
X152230000Y-96025250D01*
X152071750Y-95867000D01*
X150834088Y-95867000D01*
X150601434Y-95963369D01*
X150423368Y-96141435D01*
X150327000Y-96374089D01*
X119454704Y-96374089D01*
X119624718Y-95964651D01*
X119625282Y-95318186D01*
X119378412Y-94720714D01*
X118921691Y-94263195D01*
X118324651Y-94015282D01*
X117678186Y-94014718D01*
X117080714Y-94261588D01*
X116623195Y-94718309D01*
X116375282Y-95315349D01*
X116374718Y-95961814D01*
X57450000Y-95961814D01*
X57450000Y-90820000D01*
X59887654Y-90820000D01*
X59887654Y-94320000D01*
X59913802Y-94458966D01*
X59995931Y-94586599D01*
X60121246Y-94672223D01*
X60270000Y-94702346D01*
X63770000Y-94702346D01*
X63908966Y-94676198D01*
X64036599Y-94594069D01*
X64122223Y-94468754D01*
X64152346Y-94320000D01*
X64152346Y-90850000D01*
X108667654Y-90850000D01*
X108667654Y-92550000D01*
X108693802Y-92688966D01*
X108775931Y-92816599D01*
X108901246Y-92902223D01*
X109050000Y-92932346D01*
X110750000Y-92932346D01*
X110888966Y-92906198D01*
X111016599Y-92824069D01*
X111102223Y-92698754D01*
X111132346Y-92550000D01*
X111132346Y-90921814D01*
X113874718Y-90921814D01*
X114121588Y-91519286D01*
X114578309Y-91976805D01*
X115175349Y-92224718D01*
X115821814Y-92225282D01*
X116419286Y-91978412D01*
X116876805Y-91521691D01*
X117124718Y-90924651D01*
X117124720Y-90921814D01*
X118874718Y-90921814D01*
X119121588Y-91519286D01*
X119578309Y-91976805D01*
X120175349Y-92224718D01*
X120821814Y-92225282D01*
X121419286Y-91978412D01*
X121876805Y-91521691D01*
X122079623Y-91033250D01*
X150327000Y-91033250D01*
X150327000Y-91625911D01*
X150423368Y-91858565D01*
X150601434Y-92036631D01*
X150834088Y-92133000D01*
X152071750Y-92133000D01*
X152230000Y-91974750D01*
X152230000Y-90875000D01*
X150485250Y-90875000D01*
X150327000Y-91033250D01*
X122079623Y-91033250D01*
X122124718Y-90924651D01*
X122125282Y-90278186D01*
X121878412Y-89680714D01*
X121421691Y-89223195D01*
X120824651Y-88975282D01*
X120178186Y-88974718D01*
X119580714Y-89221588D01*
X119123195Y-89678309D01*
X118875282Y-90275349D01*
X118874718Y-90921814D01*
X117124720Y-90921814D01*
X117125282Y-90278186D01*
X116878412Y-89680714D01*
X116421691Y-89223195D01*
X115824651Y-88975282D01*
X115178186Y-88974718D01*
X114580714Y-89221588D01*
X114123195Y-89678309D01*
X113875282Y-90275349D01*
X113874718Y-90921814D01*
X111132346Y-90921814D01*
X111132346Y-90850000D01*
X111106198Y-90711034D01*
X111024069Y-90583401D01*
X110898754Y-90497777D01*
X110750000Y-90467654D01*
X109050000Y-90467654D01*
X108911034Y-90493802D01*
X108783401Y-90575931D01*
X108697777Y-90701246D01*
X108667654Y-90850000D01*
X64152346Y-90850000D01*
X64152346Y-90820000D01*
X64126198Y-90681034D01*
X64044069Y-90553401D01*
X63918754Y-90467777D01*
X63770000Y-90437654D01*
X60270000Y-90437654D01*
X60131034Y-90463802D01*
X60003401Y-90545931D01*
X59917777Y-90671246D01*
X59887654Y-90820000D01*
X57450000Y-90820000D01*
X57450000Y-90253000D01*
X57986750Y-90253000D01*
X58145000Y-90094750D01*
X58145000Y-88745000D01*
X59895000Y-88745000D01*
X59895000Y-90094750D01*
X60053250Y-90253000D01*
X60895911Y-90253000D01*
X61128565Y-90156632D01*
X61306631Y-89978566D01*
X61403000Y-89745912D01*
X61403000Y-88903250D01*
X61244750Y-88745000D01*
X59895000Y-88745000D01*
X58145000Y-88745000D01*
X57625000Y-88745000D01*
X57625000Y-86995000D01*
X58145000Y-86995000D01*
X58145000Y-85645250D01*
X59895000Y-85645250D01*
X59895000Y-86995000D01*
X61244750Y-86995000D01*
X61403000Y-86836750D01*
X61403000Y-86120000D01*
X62887654Y-86120000D01*
X62887654Y-89620000D01*
X62913802Y-89758966D01*
X62995931Y-89886599D01*
X63121246Y-89972223D01*
X63270000Y-90002346D01*
X66770000Y-90002346D01*
X66908966Y-89976198D01*
X67036599Y-89894069D01*
X67122223Y-89768754D01*
X67152346Y-89620000D01*
X67152346Y-89160000D01*
X108651001Y-89160000D01*
X108744249Y-89628787D01*
X109009795Y-90026206D01*
X109407214Y-90291752D01*
X109876001Y-90385000D01*
X109923999Y-90385000D01*
X110392786Y-90291752D01*
X110790205Y-90026206D01*
X111055751Y-89628787D01*
X111148999Y-89160000D01*
X111092128Y-88874089D01*
X150327000Y-88874089D01*
X150327000Y-89466750D01*
X150485250Y-89625000D01*
X152230000Y-89625000D01*
X152230000Y-88525250D01*
X152071750Y-88367000D01*
X150834088Y-88367000D01*
X150601434Y-88463369D01*
X150423368Y-88641435D01*
X150327000Y-88874089D01*
X111092128Y-88874089D01*
X111055751Y-88691213D01*
X110790205Y-88293794D01*
X110392786Y-88028248D01*
X109923999Y-87935000D01*
X109876001Y-87935000D01*
X109407214Y-88028248D01*
X109009795Y-88293794D01*
X108744249Y-88691213D01*
X108651001Y-89160000D01*
X67152346Y-89160000D01*
X67152346Y-86120000D01*
X67126198Y-85981034D01*
X67044069Y-85853401D01*
X66918754Y-85767777D01*
X66770000Y-85737654D01*
X63270000Y-85737654D01*
X63131034Y-85763802D01*
X63003401Y-85845931D01*
X62917777Y-85971246D01*
X62887654Y-86120000D01*
X61403000Y-86120000D01*
X61403000Y-85994088D01*
X61306631Y-85761434D01*
X61128565Y-85583368D01*
X60895911Y-85487000D01*
X60053250Y-85487000D01*
X59895000Y-85645250D01*
X58145000Y-85645250D01*
X57986750Y-85487000D01*
X57450000Y-85487000D01*
X57450000Y-84600000D01*
X68317654Y-84600000D01*
X68317654Y-86600000D01*
X68343802Y-86738966D01*
X68425931Y-86866599D01*
X68551246Y-86952223D01*
X68700000Y-86982346D01*
X70700000Y-86982346D01*
X70838966Y-86956198D01*
X70966599Y-86874069D01*
X71052223Y-86748754D01*
X71082346Y-86600000D01*
X71082346Y-85958250D01*
X73767000Y-85958250D01*
X73767000Y-86425912D01*
X73863369Y-86658566D01*
X74041435Y-86836632D01*
X74274089Y-86933000D01*
X74741750Y-86933000D01*
X74900000Y-86774750D01*
X74900000Y-85800000D01*
X75900000Y-85800000D01*
X75900000Y-86774750D01*
X76058250Y-86933000D01*
X76525911Y-86933000D01*
X76758565Y-86836632D01*
X76936631Y-86658566D01*
X76952605Y-86620000D01*
X108651001Y-86620000D01*
X108744249Y-87088787D01*
X109009795Y-87486206D01*
X109407214Y-87751752D01*
X109876001Y-87845000D01*
X109923999Y-87845000D01*
X110392786Y-87751752D01*
X110790205Y-87486206D01*
X111055751Y-87088787D01*
X111148999Y-86620000D01*
X111055751Y-86151213D01*
X110790205Y-85753794D01*
X110392786Y-85488248D01*
X109923999Y-85395000D01*
X109876001Y-85395000D01*
X109407214Y-85488248D01*
X109009795Y-85753794D01*
X108744249Y-86151213D01*
X108651001Y-86620000D01*
X76952605Y-86620000D01*
X77033000Y-86425912D01*
X77033000Y-85958250D01*
X76874750Y-85800000D01*
X75900000Y-85800000D01*
X74900000Y-85800000D01*
X73925250Y-85800000D01*
X73767000Y-85958250D01*
X71082346Y-85958250D01*
X71082346Y-84600000D01*
X71056198Y-84461034D01*
X70974069Y-84333401D01*
X70848754Y-84247777D01*
X70700000Y-84217654D01*
X68700000Y-84217654D01*
X68561034Y-84243802D01*
X68433401Y-84325931D01*
X68347777Y-84451246D01*
X68317654Y-84600000D01*
X57450000Y-84600000D01*
X57450000Y-84174088D01*
X73767000Y-84174088D01*
X73767000Y-84641750D01*
X73925250Y-84800000D01*
X74900000Y-84800000D01*
X74900000Y-83825250D01*
X75900000Y-83825250D01*
X75900000Y-84800000D01*
X76874750Y-84800000D01*
X77033000Y-84641750D01*
X77033000Y-84174088D01*
X76936631Y-83941434D01*
X76758565Y-83763368D01*
X76525911Y-83667000D01*
X76058250Y-83667000D01*
X75900000Y-83825250D01*
X74900000Y-83825250D01*
X74741750Y-83667000D01*
X74274089Y-83667000D01*
X74041435Y-83763368D01*
X73863369Y-83941434D01*
X73767000Y-84174088D01*
X57450000Y-84174088D01*
X57450000Y-79100000D01*
X68217654Y-79100000D01*
X68217654Y-81100000D01*
X68243802Y-81238966D01*
X68325931Y-81366599D01*
X68451246Y-81452223D01*
X68600000Y-81482346D01*
X70600000Y-81482346D01*
X70738966Y-81456198D01*
X70866599Y-81374069D01*
X70952223Y-81248754D01*
X70982346Y-81100000D01*
X70982346Y-79100000D01*
X70963530Y-79000000D01*
X73817654Y-79000000D01*
X73817654Y-81000000D01*
X73843802Y-81138966D01*
X73925931Y-81266599D01*
X74051246Y-81352223D01*
X74200000Y-81382346D01*
X76200000Y-81382346D01*
X76338966Y-81356198D01*
X76466599Y-81274069D01*
X76552223Y-81148754D01*
X76582346Y-81000000D01*
X76582346Y-79450000D01*
X105967654Y-79450000D01*
X105967654Y-82950000D01*
X105993802Y-83088966D01*
X106075931Y-83216599D01*
X106201246Y-83302223D01*
X106350000Y-83332346D01*
X109850000Y-83332346D01*
X109988966Y-83306198D01*
X110116599Y-83224069D01*
X110202223Y-83098754D01*
X110232346Y-82950000D01*
X110232346Y-79450000D01*
X110206198Y-79311034D01*
X110124069Y-79183401D01*
X109998754Y-79097777D01*
X109850000Y-79067654D01*
X106350000Y-79067654D01*
X106211034Y-79093802D01*
X106083401Y-79175931D01*
X105997777Y-79301246D01*
X105967654Y-79450000D01*
X76582346Y-79450000D01*
X76582346Y-79000000D01*
X76556198Y-78861034D01*
X76474069Y-78733401D01*
X76348754Y-78647777D01*
X76200000Y-78617654D01*
X74200000Y-78617654D01*
X74061034Y-78643802D01*
X73933401Y-78725931D01*
X73847777Y-78851246D01*
X73817654Y-79000000D01*
X70963530Y-79000000D01*
X70956198Y-78961034D01*
X70874069Y-78833401D01*
X70748754Y-78747777D01*
X70600000Y-78717654D01*
X68600000Y-78717654D01*
X68461034Y-78743802D01*
X68333401Y-78825931D01*
X68247777Y-78951246D01*
X68217654Y-79100000D01*
X57450000Y-79100000D01*
X57450000Y-77533250D01*
X102717000Y-77533250D01*
X102717000Y-78375912D01*
X102813369Y-78608566D01*
X102991435Y-78786632D01*
X103224089Y-78883000D01*
X104066750Y-78883000D01*
X104225000Y-78724750D01*
X104225000Y-77375000D01*
X105975000Y-77375000D01*
X105975000Y-78724750D01*
X106133250Y-78883000D01*
X106975911Y-78883000D01*
X107208565Y-78786632D01*
X107386631Y-78608566D01*
X107483000Y-78375912D01*
X107483000Y-77533250D01*
X107324750Y-77375000D01*
X105975000Y-77375000D01*
X104225000Y-77375000D01*
X102875250Y-77375000D01*
X102717000Y-77533250D01*
X57450000Y-77533250D01*
X57450000Y-74624088D01*
X102717000Y-74624088D01*
X102717000Y-75466750D01*
X102875250Y-75625000D01*
X104225000Y-75625000D01*
X104225000Y-74275250D01*
X105975000Y-74275250D01*
X105975000Y-75625000D01*
X107324750Y-75625000D01*
X107483000Y-75466750D01*
X107483000Y-74750000D01*
X108967654Y-74750000D01*
X108967654Y-78250000D01*
X108993802Y-78388966D01*
X109075931Y-78516599D01*
X109201246Y-78602223D01*
X109350000Y-78632346D01*
X112850000Y-78632346D01*
X112988966Y-78606198D01*
X113116599Y-78524069D01*
X113202223Y-78398754D01*
X113232346Y-78250000D01*
X113232346Y-74750000D01*
X113206198Y-74611034D01*
X113124069Y-74483401D01*
X112998754Y-74397777D01*
X112850000Y-74367654D01*
X109350000Y-74367654D01*
X109211034Y-74393802D01*
X109083401Y-74475931D01*
X108997777Y-74601246D01*
X108967654Y-74750000D01*
X107483000Y-74750000D01*
X107483000Y-74624088D01*
X107386631Y-74391434D01*
X107208565Y-74213368D01*
X106975911Y-74117000D01*
X106133250Y-74117000D01*
X105975000Y-74275250D01*
X104225000Y-74275250D01*
X104066750Y-74117000D01*
X103224089Y-74117000D01*
X102991435Y-74213368D01*
X102813369Y-74391434D01*
X102717000Y-74624088D01*
X57450000Y-74624088D01*
X57450000Y-62533250D01*
X150827000Y-62533250D01*
X150827000Y-63125911D01*
X150923368Y-63358565D01*
X151101434Y-63536631D01*
X151334088Y-63633000D01*
X152571750Y-63633000D01*
X152730000Y-63474750D01*
X152730000Y-62375000D01*
X150985250Y-62375000D01*
X150827000Y-62533250D01*
X57450000Y-62533250D01*
X57450000Y-60374089D01*
X150827000Y-60374089D01*
X150827000Y-60966750D01*
X150985250Y-61125000D01*
X152730000Y-61125000D01*
X152730000Y-60025250D01*
X152571750Y-59867000D01*
X151334088Y-59867000D01*
X151101434Y-59963369D01*
X150923368Y-60141435D01*
X150827000Y-60374089D01*
X57450000Y-60374089D01*
X57450000Y-58598169D01*
X57534088Y-58633000D01*
X58771750Y-58633000D01*
X58930000Y-58474750D01*
X58930000Y-57375000D01*
X61470000Y-57375000D01*
X61470000Y-58474750D01*
X61628250Y-58633000D01*
X62865912Y-58633000D01*
X63098566Y-58536631D01*
X63276632Y-58358565D01*
X63373000Y-58125911D01*
X63373000Y-57933677D01*
X74124883Y-57933677D01*
X74227429Y-58181857D01*
X74417144Y-58371903D01*
X74665145Y-58474883D01*
X74933677Y-58475117D01*
X75181857Y-58372571D01*
X75254555Y-58300000D01*
X78193606Y-58300000D01*
X78227429Y-58381857D01*
X78417144Y-58571903D01*
X78665145Y-58674883D01*
X78933677Y-58675117D01*
X79181857Y-58572571D01*
X79371903Y-58382856D01*
X79474883Y-58134855D01*
X79475117Y-57866323D01*
X79372571Y-57618143D01*
X79182856Y-57428097D01*
X78934855Y-57325117D01*
X78725355Y-57324934D01*
X78600000Y-57300000D01*
X75254634Y-57300000D01*
X75182856Y-57228097D01*
X74934855Y-57125117D01*
X74666323Y-57124883D01*
X74418143Y-57227429D01*
X74228097Y-57417144D01*
X74125117Y-57665145D01*
X74124883Y-57933677D01*
X63373000Y-57933677D01*
X63373000Y-57533250D01*
X63214750Y-57375000D01*
X61470000Y-57375000D01*
X58930000Y-57375000D01*
X58805000Y-57375000D01*
X58805000Y-56125000D01*
X58930000Y-56125000D01*
X58930000Y-55025250D01*
X61470000Y-55025250D01*
X61470000Y-56125000D01*
X63214750Y-56125000D01*
X63373000Y-55966750D01*
X63373000Y-55374089D01*
X63276632Y-55141435D01*
X63098566Y-54963369D01*
X62865912Y-54867000D01*
X61628250Y-54867000D01*
X61470000Y-55025250D01*
X58930000Y-55025250D01*
X58771750Y-54867000D01*
X57534088Y-54867000D01*
X57450000Y-54901831D01*
X57450000Y-54333677D01*
X79924883Y-54333677D01*
X80027429Y-54581857D01*
X80217144Y-54771903D01*
X80465145Y-54874883D01*
X80733677Y-54875117D01*
X80981857Y-54772571D01*
X81171903Y-54582856D01*
X81274883Y-54334855D01*
X81275117Y-54066323D01*
X81202590Y-53890795D01*
X81254625Y-53700000D01*
X127268675Y-53700000D01*
X127373341Y-54226190D01*
X127671403Y-54672272D01*
X128117485Y-54970334D01*
X128643675Y-55075000D01*
X131756325Y-55075000D01*
X132282515Y-54970334D01*
X132728597Y-54672272D01*
X133026659Y-54226190D01*
X133131325Y-53700000D01*
X134468675Y-53700000D01*
X134573341Y-54226190D01*
X134871403Y-54672272D01*
X135317485Y-54970334D01*
X135843675Y-55075000D01*
X138956325Y-55075000D01*
X139166215Y-55033250D01*
X150827000Y-55033250D01*
X150827000Y-55625911D01*
X150923368Y-55858565D01*
X151101434Y-56036631D01*
X151334088Y-56133000D01*
X152571750Y-56133000D01*
X152730000Y-55974750D01*
X152730000Y-54875000D01*
X150985250Y-54875000D01*
X150827000Y-55033250D01*
X139166215Y-55033250D01*
X139482515Y-54970334D01*
X139928597Y-54672272D01*
X140226659Y-54226190D01*
X140331325Y-53700000D01*
X140226659Y-53173810D01*
X140026393Y-52874089D01*
X150827000Y-52874089D01*
X150827000Y-53466750D01*
X150985250Y-53625000D01*
X152730000Y-53625000D01*
X152730000Y-52525250D01*
X152571750Y-52367000D01*
X151334088Y-52367000D01*
X151101434Y-52463369D01*
X150923368Y-52641435D01*
X150827000Y-52874089D01*
X140026393Y-52874089D01*
X139928597Y-52727728D01*
X139482515Y-52429666D01*
X138956325Y-52325000D01*
X135843675Y-52325000D01*
X135317485Y-52429666D01*
X134871403Y-52727728D01*
X134573341Y-53173810D01*
X134468675Y-53700000D01*
X133131325Y-53700000D01*
X133026659Y-53173810D01*
X132728597Y-52727728D01*
X132282515Y-52429666D01*
X131756325Y-52325000D01*
X128643675Y-52325000D01*
X128117485Y-52429666D01*
X127671403Y-52727728D01*
X127373341Y-53173810D01*
X127268675Y-53700000D01*
X81254625Y-53700000D01*
X81682382Y-52131559D01*
X81687027Y-52065222D01*
X81700000Y-52000000D01*
X81693782Y-51968739D01*
X81696008Y-51936944D01*
X81674936Y-51873949D01*
X81675117Y-51666323D01*
X81572571Y-51418143D01*
X81382856Y-51228097D01*
X81134855Y-51125117D01*
X80866323Y-51124883D01*
X80618143Y-51227429D01*
X80428097Y-51417144D01*
X80325117Y-51665145D01*
X80324883Y-51933677D01*
X80427429Y-52181857D01*
X80588214Y-52342922D01*
X80240402Y-53618232D01*
X80218143Y-53627429D01*
X80028097Y-53817144D01*
X79925117Y-54065145D01*
X79924883Y-54333677D01*
X57450000Y-54333677D01*
X57450000Y-51098169D01*
X57534088Y-51133000D01*
X58771750Y-51133000D01*
X58930000Y-50974750D01*
X58930000Y-49875000D01*
X61470000Y-49875000D01*
X61470000Y-50974750D01*
X61628250Y-51133000D01*
X62865912Y-51133000D01*
X63098566Y-51036631D01*
X63276632Y-50858565D01*
X63373000Y-50625911D01*
X63373000Y-50033250D01*
X63214750Y-49875000D01*
X61470000Y-49875000D01*
X58930000Y-49875000D01*
X58805000Y-49875000D01*
X58805000Y-49400000D01*
X83617654Y-49400000D01*
X83617654Y-51400000D01*
X83643802Y-51538966D01*
X83725931Y-51666599D01*
X83851246Y-51752223D01*
X84000000Y-51782346D01*
X86000000Y-51782346D01*
X86138966Y-51756198D01*
X86266599Y-51674069D01*
X86352223Y-51548754D01*
X86382346Y-51400000D01*
X86382346Y-49400000D01*
X88417654Y-49400000D01*
X88417654Y-51400000D01*
X88443802Y-51538966D01*
X88525931Y-51666599D01*
X88651246Y-51752223D01*
X88800000Y-51782346D01*
X90800000Y-51782346D01*
X90938966Y-51756198D01*
X91066599Y-51674069D01*
X91152223Y-51548754D01*
X91182346Y-51400000D01*
X91182346Y-49400000D01*
X91156198Y-49261034D01*
X91074069Y-49133401D01*
X90948754Y-49047777D01*
X90800000Y-49017654D01*
X88800000Y-49017654D01*
X88661034Y-49043802D01*
X88533401Y-49125931D01*
X88447777Y-49251246D01*
X88417654Y-49400000D01*
X86382346Y-49400000D01*
X86356198Y-49261034D01*
X86274069Y-49133401D01*
X86148754Y-49047777D01*
X86000000Y-49017654D01*
X84000000Y-49017654D01*
X83861034Y-49043802D01*
X83733401Y-49125931D01*
X83647777Y-49251246D01*
X83617654Y-49400000D01*
X58805000Y-49400000D01*
X58805000Y-48625000D01*
X58930000Y-48625000D01*
X58930000Y-47525250D01*
X61470000Y-47525250D01*
X61470000Y-48625000D01*
X63214750Y-48625000D01*
X63373000Y-48466750D01*
X63373000Y-47874089D01*
X63276632Y-47641435D01*
X63135197Y-47500000D01*
X120375000Y-47500000D01*
X120375000Y-51500000D01*
X120384848Y-51548632D01*
X120412841Y-51589601D01*
X120454568Y-51616451D01*
X120500000Y-51625000D01*
X121060212Y-51625000D01*
X121189651Y-51818718D01*
X121473521Y-52008395D01*
X121808369Y-52075000D01*
X124391631Y-52075000D01*
X124726479Y-52008395D01*
X125010349Y-51818718D01*
X125139788Y-51625000D01*
X125798015Y-51625000D01*
X125799974Y-51634848D01*
X125989651Y-51918718D01*
X126273521Y-52108395D01*
X126608369Y-52175000D01*
X129191631Y-52175000D01*
X129526479Y-52108395D01*
X129810349Y-51918718D01*
X130000026Y-51634848D01*
X130001985Y-51625000D01*
X131500000Y-51625000D01*
X131548632Y-51615152D01*
X131589601Y-51587159D01*
X131616451Y-51545432D01*
X131625000Y-51500000D01*
X131625000Y-50883250D01*
X151102000Y-50883250D01*
X151102000Y-51475911D01*
X151198368Y-51708565D01*
X151376434Y-51886631D01*
X151609088Y-51983000D01*
X152846750Y-51983000D01*
X153005000Y-51824750D01*
X153005000Y-50725000D01*
X151260250Y-50725000D01*
X151102000Y-50883250D01*
X131625000Y-50883250D01*
X131625000Y-48724089D01*
X151102000Y-48724089D01*
X151102000Y-49316750D01*
X151260250Y-49475000D01*
X153005000Y-49475000D01*
X153005000Y-48375250D01*
X152846750Y-48217000D01*
X151609088Y-48217000D01*
X151376434Y-48313369D01*
X151198368Y-48491435D01*
X151102000Y-48724089D01*
X131625000Y-48724089D01*
X131625000Y-47500000D01*
X131615152Y-47451368D01*
X131587159Y-47410399D01*
X131545432Y-47383549D01*
X131500000Y-47375000D01*
X126930397Y-47375000D01*
X127407582Y-47056155D01*
X127976611Y-46204544D01*
X128176427Y-45200000D01*
X127976611Y-44195456D01*
X127433912Y-43383250D01*
X151102000Y-43383250D01*
X151102000Y-43975911D01*
X151198368Y-44208565D01*
X151376434Y-44386631D01*
X151609088Y-44483000D01*
X152846750Y-44483000D01*
X153005000Y-44324750D01*
X153005000Y-43225000D01*
X151260250Y-43225000D01*
X151102000Y-43383250D01*
X127433912Y-43383250D01*
X127407582Y-43343845D01*
X126555971Y-42774816D01*
X125551427Y-42575000D01*
X125448573Y-42575000D01*
X124444029Y-42774816D01*
X123592418Y-43343845D01*
X123023389Y-44195456D01*
X122823573Y-45200000D01*
X123023389Y-46204544D01*
X123592418Y-47056155D01*
X124069603Y-47375000D01*
X122415000Y-47375000D01*
X122415000Y-44883675D01*
X122348395Y-44548827D01*
X122158718Y-44264957D01*
X121874848Y-44075280D01*
X121540000Y-44008675D01*
X121205152Y-44075280D01*
X120921282Y-44264957D01*
X120731605Y-44548827D01*
X120665000Y-44883675D01*
X120665000Y-47375000D01*
X120500000Y-47375000D01*
X120451368Y-47384848D01*
X120410399Y-47412841D01*
X120383549Y-47454568D01*
X120375000Y-47500000D01*
X63135197Y-47500000D01*
X63098566Y-47463369D01*
X62865912Y-47367000D01*
X61628250Y-47367000D01*
X61470000Y-47525250D01*
X58930000Y-47525250D01*
X58771750Y-47367000D01*
X57534088Y-47367000D01*
X57450000Y-47401831D01*
X57450000Y-46258250D01*
X83167000Y-46258250D01*
X83167000Y-46725912D01*
X83263369Y-46958566D01*
X83441435Y-47136632D01*
X83674089Y-47233000D01*
X84141750Y-47233000D01*
X84300000Y-47074750D01*
X84300000Y-46100000D01*
X85300000Y-46100000D01*
X85300000Y-47074750D01*
X85458250Y-47233000D01*
X85925911Y-47233000D01*
X86158565Y-47136632D01*
X86336631Y-46958566D01*
X86433000Y-46725912D01*
X86433000Y-46258250D01*
X86274750Y-46100000D01*
X85300000Y-46100000D01*
X84300000Y-46100000D01*
X83325250Y-46100000D01*
X83167000Y-46258250D01*
X57450000Y-46258250D01*
X57450000Y-44474088D01*
X83167000Y-44474088D01*
X83167000Y-44941750D01*
X83325250Y-45100000D01*
X84300000Y-45100000D01*
X84300000Y-44125250D01*
X85300000Y-44125250D01*
X85300000Y-45100000D01*
X86274750Y-45100000D01*
X86433000Y-44941750D01*
X86433000Y-44600000D01*
X88417654Y-44600000D01*
X88417654Y-46600000D01*
X88443802Y-46738966D01*
X88525931Y-46866599D01*
X88651246Y-46952223D01*
X88800000Y-46982346D01*
X90800000Y-46982346D01*
X90938966Y-46956198D01*
X91066599Y-46874069D01*
X91152223Y-46748754D01*
X91182346Y-46600000D01*
X91182346Y-44600000D01*
X91156198Y-44461034D01*
X91074069Y-44333401D01*
X90948754Y-44247777D01*
X90800000Y-44217654D01*
X88800000Y-44217654D01*
X88661034Y-44243802D01*
X88533401Y-44325931D01*
X88447777Y-44451246D01*
X88417654Y-44600000D01*
X86433000Y-44600000D01*
X86433000Y-44474088D01*
X86336631Y-44241434D01*
X86158565Y-44063368D01*
X85925911Y-43967000D01*
X85458250Y-43967000D01*
X85300000Y-44125250D01*
X84300000Y-44125250D01*
X84141750Y-43967000D01*
X83674089Y-43967000D01*
X83441435Y-44063368D01*
X83263369Y-44241434D01*
X83167000Y-44474088D01*
X57450000Y-44474088D01*
X57450000Y-35903250D01*
X69517000Y-35903250D01*
X69517000Y-37140912D01*
X69613369Y-37373566D01*
X69791435Y-37551632D01*
X70024089Y-37648000D01*
X70616750Y-37648000D01*
X70775000Y-37489750D01*
X70775000Y-35745000D01*
X72025000Y-35745000D01*
X72025000Y-37489750D01*
X72183250Y-37648000D01*
X72775911Y-37648000D01*
X73008565Y-37551632D01*
X73186631Y-37373566D01*
X73283000Y-37140912D01*
X73283000Y-35903250D01*
X77017000Y-35903250D01*
X77017000Y-37140912D01*
X77113369Y-37373566D01*
X77291435Y-37551632D01*
X77524089Y-37648000D01*
X78116750Y-37648000D01*
X78275000Y-37489750D01*
X78275000Y-35745000D01*
X79525000Y-35745000D01*
X79525000Y-37489750D01*
X79683250Y-37648000D01*
X80275911Y-37648000D01*
X80508565Y-37551632D01*
X80686631Y-37373566D01*
X80783000Y-37140912D01*
X80783000Y-35903250D01*
X80624750Y-35745000D01*
X79525000Y-35745000D01*
X78275000Y-35745000D01*
X77175250Y-35745000D01*
X77017000Y-35903250D01*
X73283000Y-35903250D01*
X73124750Y-35745000D01*
X72025000Y-35745000D01*
X70775000Y-35745000D01*
X69675250Y-35745000D01*
X69517000Y-35903250D01*
X57450000Y-35903250D01*
X57450000Y-35450000D01*
X80967654Y-35450000D01*
X80967654Y-38950000D01*
X80993802Y-39088966D01*
X81075931Y-39216599D01*
X81201246Y-39302223D01*
X81350000Y-39332346D01*
X84850000Y-39332346D01*
X84988966Y-39306198D01*
X85116599Y-39224069D01*
X85202223Y-39098754D01*
X85232346Y-38950000D01*
X85232346Y-38450000D01*
X85667654Y-38450000D01*
X85667654Y-41950000D01*
X85693802Y-42088966D01*
X85775931Y-42216599D01*
X85901246Y-42302223D01*
X86050000Y-42332346D01*
X89550000Y-42332346D01*
X89688966Y-42306198D01*
X89816599Y-42224069D01*
X89902223Y-42098754D01*
X89932346Y-41950000D01*
X89932346Y-39223267D01*
X120635000Y-39223267D01*
X120635000Y-41296733D01*
X120701605Y-41631581D01*
X120891282Y-41915451D01*
X121175152Y-42105128D01*
X121510000Y-42171733D01*
X121844848Y-42105128D01*
X121967000Y-42023509D01*
X121967000Y-42675002D01*
X123205000Y-42675002D01*
X123205000Y-42433000D01*
X123441750Y-42433000D01*
X123600000Y-42274750D01*
X123600000Y-41550000D01*
X125600000Y-41550000D01*
X125600000Y-42274750D01*
X125758250Y-42433000D01*
X126725911Y-42433000D01*
X126958565Y-42336632D01*
X127136631Y-42158566D01*
X127233000Y-41925912D01*
X127233000Y-41708250D01*
X127074750Y-41550000D01*
X125600000Y-41550000D01*
X123600000Y-41550000D01*
X123205000Y-41550000D01*
X123205000Y-41224089D01*
X151102000Y-41224089D01*
X151102000Y-41816750D01*
X151260250Y-41975000D01*
X153005000Y-41975000D01*
X153005000Y-40875250D01*
X152846750Y-40717000D01*
X151609088Y-40717000D01*
X151376434Y-40813369D01*
X151198368Y-40991435D01*
X151102000Y-41224089D01*
X123205000Y-41224089D01*
X123205000Y-41050000D01*
X123600000Y-41050000D01*
X123600000Y-40325250D01*
X125600000Y-40325250D01*
X125600000Y-41050000D01*
X127074750Y-41050000D01*
X127233000Y-40891750D01*
X127233000Y-40674088D01*
X127136631Y-40441434D01*
X126958565Y-40263368D01*
X126725911Y-40167000D01*
X125758250Y-40167000D01*
X125600000Y-40325250D01*
X123600000Y-40325250D01*
X123441750Y-40167000D01*
X123205000Y-40167000D01*
X123205000Y-39924998D01*
X122385000Y-39924998D01*
X122385000Y-39223267D01*
X122318395Y-38888419D01*
X122128718Y-38604549D01*
X121972251Y-38500000D01*
X131117654Y-38500000D01*
X131117654Y-40500000D01*
X131143802Y-40638966D01*
X131225931Y-40766599D01*
X131351246Y-40852223D01*
X131500000Y-40882346D01*
X133500000Y-40882346D01*
X133638966Y-40856198D01*
X133766599Y-40774069D01*
X133852223Y-40648754D01*
X133882346Y-40500000D01*
X133882346Y-40158250D01*
X135367000Y-40158250D01*
X135367000Y-40625912D01*
X135463369Y-40858566D01*
X135641435Y-41036632D01*
X135874089Y-41133000D01*
X136341750Y-41133000D01*
X136500000Y-40974750D01*
X136500000Y-40000000D01*
X137500000Y-40000000D01*
X137500000Y-40974750D01*
X137658250Y-41133000D01*
X138125911Y-41133000D01*
X138358565Y-41036632D01*
X138536631Y-40858566D01*
X138633000Y-40625912D01*
X138633000Y-40158250D01*
X138474750Y-40000000D01*
X137500000Y-40000000D01*
X136500000Y-40000000D01*
X135525250Y-40000000D01*
X135367000Y-40158250D01*
X133882346Y-40158250D01*
X133882346Y-38500000D01*
X133856198Y-38361034D01*
X133774069Y-38233401D01*
X133648754Y-38147777D01*
X133500000Y-38117654D01*
X131500000Y-38117654D01*
X131361034Y-38143802D01*
X131233401Y-38225931D01*
X131147777Y-38351246D01*
X131117654Y-38500000D01*
X121972251Y-38500000D01*
X121844848Y-38414872D01*
X121510000Y-38348267D01*
X121175152Y-38414872D01*
X120891282Y-38604549D01*
X120701605Y-38888419D01*
X120635000Y-39223267D01*
X89932346Y-39223267D01*
X89932346Y-38450000D01*
X89906198Y-38311034D01*
X89824069Y-38183401D01*
X89698754Y-38097777D01*
X89550000Y-38067654D01*
X86050000Y-38067654D01*
X85911034Y-38093802D01*
X85783401Y-38175931D01*
X85697777Y-38301246D01*
X85667654Y-38450000D01*
X85232346Y-38450000D01*
X85232346Y-35450000D01*
X85206198Y-35311034D01*
X85156146Y-35233250D01*
X85417000Y-35233250D01*
X85417000Y-36075911D01*
X85513368Y-36308565D01*
X85691434Y-36486631D01*
X85924088Y-36583000D01*
X86766750Y-36583000D01*
X86925000Y-36424750D01*
X86925000Y-35075000D01*
X88675000Y-35075000D01*
X88675000Y-36424750D01*
X88833250Y-36583000D01*
X89675912Y-36583000D01*
X89908566Y-36486631D01*
X90086632Y-36308565D01*
X90183000Y-36075911D01*
X90183000Y-35233250D01*
X90024750Y-35075000D01*
X88675000Y-35075000D01*
X86925000Y-35075000D01*
X85575250Y-35075000D01*
X85417000Y-35233250D01*
X85156146Y-35233250D01*
X85124069Y-35183401D01*
X84998754Y-35097777D01*
X84850000Y-35067654D01*
X81350000Y-35067654D01*
X81211034Y-35093802D01*
X81083401Y-35175931D01*
X80997777Y-35301246D01*
X80967654Y-35450000D01*
X57450000Y-35450000D01*
X57450000Y-34000000D01*
X127068675Y-34000000D01*
X127173341Y-34526190D01*
X127471403Y-34972272D01*
X127917485Y-35270334D01*
X128443675Y-35375000D01*
X131142967Y-35375000D01*
X131117654Y-35500000D01*
X131117654Y-37500000D01*
X131143802Y-37638966D01*
X131225931Y-37766599D01*
X131351246Y-37852223D01*
X131500000Y-37882346D01*
X133500000Y-37882346D01*
X133638966Y-37856198D01*
X133766599Y-37774069D01*
X133852223Y-37648754D01*
X133882346Y-37500000D01*
X133882346Y-35500000D01*
X133856198Y-35361034D01*
X133774069Y-35233401D01*
X133648754Y-35147777D01*
X133500000Y-35117654D01*
X132311017Y-35117654D01*
X132528597Y-34972272D01*
X132826659Y-34526190D01*
X132931325Y-34000000D01*
X134568675Y-34000000D01*
X134673341Y-34526190D01*
X134971403Y-34972272D01*
X135417485Y-35270334D01*
X135668893Y-35320342D01*
X135647777Y-35351246D01*
X135617654Y-35500000D01*
X135617654Y-37500000D01*
X135643802Y-37638966D01*
X135725931Y-37766599D01*
X135851246Y-37852223D01*
X135924218Y-37867000D01*
X135624998Y-37867000D01*
X135624998Y-37979805D01*
X135463369Y-38141434D01*
X135367000Y-38374088D01*
X135367000Y-38841750D01*
X135525250Y-39000000D01*
X136500000Y-39000000D01*
X136500000Y-38500000D01*
X137500000Y-38500000D01*
X137500000Y-39000000D01*
X138474750Y-39000000D01*
X138633000Y-38841750D01*
X138633000Y-38374088D01*
X138536631Y-38141434D01*
X138375002Y-37979805D01*
X138375002Y-37867000D01*
X138081558Y-37867000D01*
X138138966Y-37856198D01*
X138266599Y-37774069D01*
X138352223Y-37648754D01*
X138382346Y-37500000D01*
X138382346Y-35500000D01*
X138358826Y-35375000D01*
X139056325Y-35375000D01*
X139582515Y-35270334D01*
X140028597Y-34972272D01*
X140326659Y-34526190D01*
X140431325Y-34000000D01*
X140326659Y-33473810D01*
X140028597Y-33027728D01*
X139582515Y-32729666D01*
X139056325Y-32625000D01*
X135943675Y-32625000D01*
X135417485Y-32729666D01*
X134971403Y-33027728D01*
X134673341Y-33473810D01*
X134568675Y-34000000D01*
X132931325Y-34000000D01*
X132826659Y-33473810D01*
X132528597Y-33027728D01*
X132082515Y-32729666D01*
X131556325Y-32625000D01*
X128443675Y-32625000D01*
X127917485Y-32729666D01*
X127471403Y-33027728D01*
X127173341Y-33473810D01*
X127068675Y-34000000D01*
X57450000Y-34000000D01*
X57450000Y-32450000D01*
X69517000Y-32450000D01*
X69517000Y-33046750D01*
M02*
