M48
;DRILL file {KiCad 4.0.7} date 07/31/20 11:45:55
;FORMAT={-:-/ absolute / metric / decimal}
FMAT,2
METRIC,TZ
T1C1.000
T2C2.000
T3C3.000
T4C4.500
%
G90
G05
M71
T1
X119.Y-113.1G85X119.Y-109.1
G05
X119.5Y-126.6G85X119.5Y-122.6
G05
X121.51Y-41.26G85X121.51Y-39.26
G05
X121.54Y-48.94G85X121.54Y-44.94
G05
X121.Y-108.6G85X123.Y-108.6
G05
X121.85Y-51.2G85X124.35Y-51.2
G05
X125.3Y-108.7G85X127.3Y-108.7
G05
X126.65Y-51.3G85X129.15Y-51.3
G05
T2
X121.9Y-127.4G85X124.9Y-127.4
G05
X122.Y-113.2G85X125.Y-113.2
G05
X128.5Y-34.G85X131.5Y-34.
G05
X128.7Y-53.7G85X131.7Y-53.7
G05
X132.5Y-103.8G85X135.5Y-103.8
G05
X132.7Y-130.6G85X135.7Y-130.6
G05
X135.9Y-53.7G85X138.9Y-53.7
G05
X136.Y-34.G85X139.Y-34.
G05
X139.5Y-103.8G85X142.5Y-103.8
G05
X139.7Y-130.6G85X142.7Y-130.6
G05
T3
X122.4Y-122.3G85X124.4Y-122.3
G05
T4
X125.5Y-45.2G85X125.5Y-45.2
G05
T0
M30
