G04 #@! TF.FileFunction,Legend,Bot*
%FSLAX46Y46*%
G04 Gerber Fmt 4.6, Leading zero omitted, Abs format (unit mm)*
G04 Created by KiCad (PCBNEW 4.0.7) date 07/14/20 19:45:39*
%MOMM*%
%LPD*%
G01*
G04 APERTURE LIST*
%ADD10C,0.100000*%
%ADD11C,0.150000*%
%ADD12C,0.200000*%
G04 APERTURE END LIST*
D10*
D11*
X135971428Y-83702381D02*
X136304762Y-83226190D01*
X136542857Y-83702381D02*
X136542857Y-82702381D01*
X136161904Y-82702381D01*
X136066666Y-82750000D01*
X136019047Y-82797619D01*
X135971428Y-82892857D01*
X135971428Y-83035714D01*
X136019047Y-83130952D01*
X136066666Y-83178571D01*
X136161904Y-83226190D01*
X136542857Y-83226190D01*
X135209523Y-83178571D02*
X135542857Y-83178571D01*
X135542857Y-83702381D02*
X135542857Y-82702381D01*
X135066666Y-82702381D01*
X133923809Y-83702381D02*
X133923809Y-82702381D01*
X133352380Y-83702381D01*
X133352380Y-82702381D01*
X132685714Y-82702381D02*
X132495237Y-82702381D01*
X132399999Y-82750000D01*
X132304761Y-82845238D01*
X132257142Y-83035714D01*
X132257142Y-83369048D01*
X132304761Y-83559524D01*
X132399999Y-83654762D01*
X132495237Y-83702381D01*
X132685714Y-83702381D01*
X132780952Y-83654762D01*
X132876190Y-83559524D01*
X132923809Y-83369048D01*
X132923809Y-83035714D01*
X132876190Y-82845238D01*
X132780952Y-82750000D01*
X132685714Y-82702381D01*
X131828571Y-83702381D02*
X131828571Y-82702381D01*
X131400000Y-83654762D02*
X131257143Y-83702381D01*
X131019047Y-83702381D01*
X130923809Y-83654762D01*
X130876190Y-83607143D01*
X130828571Y-83511905D01*
X130828571Y-83416667D01*
X130876190Y-83321429D01*
X130923809Y-83273810D01*
X131019047Y-83226190D01*
X131209524Y-83178571D01*
X131304762Y-83130952D01*
X131352381Y-83083333D01*
X131400000Y-82988095D01*
X131400000Y-82892857D01*
X131352381Y-82797619D01*
X131304762Y-82750000D01*
X131209524Y-82702381D01*
X130971428Y-82702381D01*
X130828571Y-82750000D01*
X130400000Y-83178571D02*
X130066666Y-83178571D01*
X129923809Y-83702381D02*
X130400000Y-83702381D01*
X130400000Y-82702381D01*
X129923809Y-82702381D01*
X128780952Y-83654762D02*
X128638095Y-83702381D01*
X128399999Y-83702381D01*
X128304761Y-83654762D01*
X128257142Y-83607143D01*
X128209523Y-83511905D01*
X128209523Y-83416667D01*
X128257142Y-83321429D01*
X128304761Y-83273810D01*
X128399999Y-83226190D01*
X128590476Y-83178571D01*
X128685714Y-83130952D01*
X128733333Y-83083333D01*
X128780952Y-82988095D01*
X128780952Y-82892857D01*
X128733333Y-82797619D01*
X128685714Y-82750000D01*
X128590476Y-82702381D01*
X128352380Y-82702381D01*
X128209523Y-82750000D01*
X127590476Y-82702381D02*
X127399999Y-82702381D01*
X127304761Y-82750000D01*
X127209523Y-82845238D01*
X127161904Y-83035714D01*
X127161904Y-83369048D01*
X127209523Y-83559524D01*
X127304761Y-83654762D01*
X127399999Y-83702381D01*
X127590476Y-83702381D01*
X127685714Y-83654762D01*
X127780952Y-83559524D01*
X127828571Y-83369048D01*
X127828571Y-83035714D01*
X127780952Y-82845238D01*
X127685714Y-82750000D01*
X127590476Y-82702381D01*
X126733333Y-82702381D02*
X126733333Y-83511905D01*
X126685714Y-83607143D01*
X126638095Y-83654762D01*
X126542857Y-83702381D01*
X126352380Y-83702381D01*
X126257142Y-83654762D01*
X126209523Y-83607143D01*
X126161904Y-83511905D01*
X126161904Y-82702381D01*
X125114285Y-83702381D02*
X125447619Y-83226190D01*
X125685714Y-83702381D02*
X125685714Y-82702381D01*
X125304761Y-82702381D01*
X125209523Y-82750000D01*
X125161904Y-82797619D01*
X125114285Y-82892857D01*
X125114285Y-83035714D01*
X125161904Y-83130952D01*
X125209523Y-83178571D01*
X125304761Y-83226190D01*
X125685714Y-83226190D01*
X124114285Y-83607143D02*
X124161904Y-83654762D01*
X124304761Y-83702381D01*
X124399999Y-83702381D01*
X124542857Y-83654762D01*
X124638095Y-83559524D01*
X124685714Y-83464286D01*
X124733333Y-83273810D01*
X124733333Y-83130952D01*
X124685714Y-82940476D01*
X124638095Y-82845238D01*
X124542857Y-82750000D01*
X124399999Y-82702381D01*
X124304761Y-82702381D01*
X124161904Y-82750000D01*
X124114285Y-82797619D01*
X123685714Y-83178571D02*
X123352380Y-83178571D01*
X123209523Y-83702381D02*
X123685714Y-83702381D01*
X123685714Y-82702381D01*
X123209523Y-82702381D01*
X136542857Y-84828571D02*
X136400000Y-84876190D01*
X136352381Y-84923810D01*
X136304762Y-85019048D01*
X136304762Y-85161905D01*
X136352381Y-85257143D01*
X136400000Y-85304762D01*
X136495238Y-85352381D01*
X136876191Y-85352381D01*
X136876191Y-84352381D01*
X136542857Y-84352381D01*
X136447619Y-84400000D01*
X136400000Y-84447619D01*
X136352381Y-84542857D01*
X136352381Y-84638095D01*
X136400000Y-84733333D01*
X136447619Y-84780952D01*
X136542857Y-84828571D01*
X136876191Y-84828571D01*
X135685715Y-84876190D02*
X135685715Y-85352381D01*
X136019048Y-84352381D02*
X135685715Y-84876190D01*
X135352381Y-84352381D01*
X134257143Y-85352381D02*
X134257143Y-84352381D01*
X134019048Y-84352381D01*
X133876190Y-84400000D01*
X133780952Y-84495238D01*
X133733333Y-84590476D01*
X133685714Y-84780952D01*
X133685714Y-84923810D01*
X133733333Y-85114286D01*
X133780952Y-85209524D01*
X133876190Y-85304762D01*
X134019048Y-85352381D01*
X134257143Y-85352381D01*
X132495238Y-85352381D02*
X132495238Y-84352381D01*
X132161904Y-85066667D01*
X131828571Y-84352381D01*
X131828571Y-85352381D01*
X131400000Y-85066667D02*
X130923809Y-85066667D01*
X131495238Y-85352381D02*
X131161905Y-84352381D01*
X130828571Y-85352381D01*
X129923809Y-85352381D02*
X130257143Y-84876190D01*
X130495238Y-85352381D02*
X130495238Y-84352381D01*
X130114285Y-84352381D01*
X130019047Y-84400000D01*
X129971428Y-84447619D01*
X129923809Y-84542857D01*
X129923809Y-84685714D01*
X129971428Y-84780952D01*
X130019047Y-84828571D01*
X130114285Y-84876190D01*
X130495238Y-84876190D01*
X129495238Y-85352381D02*
X129495238Y-84352381D01*
X128923809Y-85352381D02*
X129352381Y-84780952D01*
X128923809Y-84352381D02*
X129495238Y-84923810D01*
X128542857Y-85304762D02*
X128400000Y-85352381D01*
X128161904Y-85352381D01*
X128066666Y-85304762D01*
X128019047Y-85257143D01*
X127971428Y-85161905D01*
X127971428Y-85066667D01*
X128019047Y-84971429D01*
X128066666Y-84923810D01*
X128161904Y-84876190D01*
X128352381Y-84828571D01*
X128447619Y-84780952D01*
X128495238Y-84733333D01*
X128542857Y-84638095D01*
X128542857Y-84542857D01*
X128495238Y-84447619D01*
X128447619Y-84400000D01*
X128352381Y-84352381D01*
X128114285Y-84352381D01*
X127971428Y-84400000D01*
X126780952Y-85352381D02*
X126780952Y-84352381D01*
X126209523Y-85352381D02*
X126638095Y-84780952D01*
X126209523Y-84352381D02*
X126780952Y-84923810D01*
X125876190Y-84352381D02*
X125638095Y-85352381D01*
X125447618Y-84638095D01*
X125257142Y-85352381D01*
X125019047Y-84352381D01*
X124209523Y-84685714D02*
X124209523Y-85352381D01*
X124447619Y-84304762D02*
X124685714Y-85019048D01*
X124066666Y-85019048D01*
X123828571Y-84352381D02*
X123257142Y-84352381D01*
X123542857Y-85352381D02*
X123542857Y-84352381D01*
X122923809Y-85352381D02*
X122923809Y-84352381D01*
X134733333Y-86907143D02*
X134780952Y-86954762D01*
X134923809Y-87002381D01*
X135019047Y-87002381D01*
X135161905Y-86954762D01*
X135257143Y-86859524D01*
X135304762Y-86764286D01*
X135352381Y-86573810D01*
X135352381Y-86430952D01*
X135304762Y-86240476D01*
X135257143Y-86145238D01*
X135161905Y-86050000D01*
X135019047Y-86002381D01*
X134923809Y-86002381D01*
X134780952Y-86050000D01*
X134733333Y-86097619D01*
X133733333Y-86907143D02*
X133780952Y-86954762D01*
X133923809Y-87002381D01*
X134019047Y-87002381D01*
X134161905Y-86954762D01*
X134257143Y-86859524D01*
X134304762Y-86764286D01*
X134352381Y-86573810D01*
X134352381Y-86430952D01*
X134304762Y-86240476D01*
X134257143Y-86145238D01*
X134161905Y-86050000D01*
X134019047Y-86002381D01*
X133923809Y-86002381D01*
X133780952Y-86050000D01*
X133733333Y-86097619D01*
X133304762Y-86621429D02*
X132542857Y-86621429D01*
X131733333Y-86478571D02*
X131590476Y-86526190D01*
X131542857Y-86573810D01*
X131495238Y-86669048D01*
X131495238Y-86811905D01*
X131542857Y-86907143D01*
X131590476Y-86954762D01*
X131685714Y-87002381D01*
X132066667Y-87002381D01*
X132066667Y-86002381D01*
X131733333Y-86002381D01*
X131638095Y-86050000D01*
X131590476Y-86097619D01*
X131542857Y-86192857D01*
X131542857Y-86288095D01*
X131590476Y-86383333D01*
X131638095Y-86430952D01*
X131733333Y-86478571D01*
X132066667Y-86478571D01*
X130876191Y-86526190D02*
X130876191Y-87002381D01*
X131209524Y-86002381D02*
X130876191Y-86526190D01*
X130542857Y-86002381D01*
X130209524Y-86621429D02*
X129447619Y-86621429D01*
X129019048Y-86954762D02*
X128876191Y-87002381D01*
X128638095Y-87002381D01*
X128542857Y-86954762D01*
X128495238Y-86907143D01*
X128447619Y-86811905D01*
X128447619Y-86716667D01*
X128495238Y-86621429D01*
X128542857Y-86573810D01*
X128638095Y-86526190D01*
X128828572Y-86478571D01*
X128923810Y-86430952D01*
X128971429Y-86383333D01*
X129019048Y-86288095D01*
X129019048Y-86192857D01*
X128971429Y-86097619D01*
X128923810Y-86050000D01*
X128828572Y-86002381D01*
X128590476Y-86002381D01*
X128447619Y-86050000D01*
X128066667Y-86716667D02*
X127590476Y-86716667D01*
X128161905Y-87002381D02*
X127828572Y-86002381D01*
X127495238Y-87002381D01*
X125971428Y-86335714D02*
X125971428Y-87002381D01*
X126209524Y-85954762D02*
X126447619Y-86669048D01*
X125828571Y-86669048D01*
X125447619Y-86907143D02*
X125400000Y-86954762D01*
X125447619Y-87002381D01*
X125495238Y-86954762D01*
X125447619Y-86907143D01*
X125447619Y-87002381D01*
X124780953Y-86002381D02*
X124685714Y-86002381D01*
X124590476Y-86050000D01*
X124542857Y-86097619D01*
X124495238Y-86192857D01*
X124447619Y-86383333D01*
X124447619Y-86621429D01*
X124495238Y-86811905D01*
X124542857Y-86907143D01*
X124590476Y-86954762D01*
X124685714Y-87002381D01*
X124780953Y-87002381D01*
X124876191Y-86954762D01*
X124923810Y-86907143D01*
X124971429Y-86811905D01*
X125019048Y-86621429D01*
X125019048Y-86383333D01*
X124971429Y-86192857D01*
X124923810Y-86097619D01*
X124876191Y-86050000D01*
X124780953Y-86002381D01*
D12*
X95000000Y-32000000D02*
X95000000Y-65000000D01*
X92000000Y-132000000D02*
X92000000Y-65000000D01*
X92000000Y-102000000D02*
X156000000Y-102000000D01*
X157000000Y-65000000D02*
X57000000Y-65000000D01*
D11*
X74858333Y-56203571D02*
X74715476Y-56251190D01*
X74667857Y-56298810D01*
X74620238Y-56394048D01*
X74620238Y-56536905D01*
X74667857Y-56632143D01*
X74715476Y-56679762D01*
X74810714Y-56727381D01*
X75191667Y-56727381D01*
X75191667Y-55727381D01*
X74858333Y-55727381D01*
X74763095Y-55775000D01*
X74715476Y-55822619D01*
X74667857Y-55917857D01*
X74667857Y-56013095D01*
X74715476Y-56108333D01*
X74763095Y-56155952D01*
X74858333Y-56203571D01*
X75191667Y-56203571D01*
X73620238Y-56727381D02*
X73953572Y-56251190D01*
X74191667Y-56727381D02*
X74191667Y-55727381D01*
X73810714Y-55727381D01*
X73715476Y-55775000D01*
X73667857Y-55822619D01*
X73620238Y-55917857D01*
X73620238Y-56060714D01*
X73667857Y-56155952D01*
X73715476Y-56203571D01*
X73810714Y-56251190D01*
X74191667Y-56251190D01*
X73001191Y-55727381D02*
X72810714Y-55727381D01*
X72715476Y-55775000D01*
X72620238Y-55870238D01*
X72572619Y-56060714D01*
X72572619Y-56394048D01*
X72620238Y-56584524D01*
X72715476Y-56679762D01*
X72810714Y-56727381D01*
X73001191Y-56727381D01*
X73096429Y-56679762D01*
X73191667Y-56584524D01*
X73239286Y-56394048D01*
X73239286Y-56060714D01*
X73191667Y-55870238D01*
X73096429Y-55775000D01*
X73001191Y-55727381D01*
X72191667Y-56441667D02*
X71715476Y-56441667D01*
X72286905Y-56727381D02*
X71953572Y-55727381D01*
X71620238Y-56727381D01*
X71286905Y-56727381D02*
X71286905Y-55727381D01*
X71048810Y-55727381D01*
X70905952Y-55775000D01*
X70810714Y-55870238D01*
X70763095Y-55965476D01*
X70715476Y-56155952D01*
X70715476Y-56298810D01*
X70763095Y-56489286D01*
X70810714Y-56584524D01*
X70905952Y-56679762D01*
X71048810Y-56727381D01*
X71286905Y-56727381D01*
X69953571Y-56203571D02*
X69810714Y-56251190D01*
X69763095Y-56298810D01*
X69715476Y-56394048D01*
X69715476Y-56536905D01*
X69763095Y-56632143D01*
X69810714Y-56679762D01*
X69905952Y-56727381D01*
X70286905Y-56727381D01*
X70286905Y-55727381D01*
X69953571Y-55727381D01*
X69858333Y-55775000D01*
X69810714Y-55822619D01*
X69763095Y-55917857D01*
X69763095Y-56013095D01*
X69810714Y-56108333D01*
X69858333Y-56155952D01*
X69953571Y-56203571D01*
X70286905Y-56203571D01*
X69334524Y-56441667D02*
X68858333Y-56441667D01*
X69429762Y-56727381D02*
X69096429Y-55727381D01*
X68763095Y-56727381D01*
X68429762Y-56727381D02*
X68429762Y-55727381D01*
X67858333Y-56727381D01*
X67858333Y-55727381D01*
X67382143Y-56727381D02*
X67382143Y-55727381D01*
X67144048Y-55727381D01*
X67001190Y-55775000D01*
X66905952Y-55870238D01*
X66858333Y-55965476D01*
X66810714Y-56155952D01*
X66810714Y-56298810D01*
X66858333Y-56489286D01*
X66905952Y-56584524D01*
X67001190Y-56679762D01*
X67144048Y-56727381D01*
X67382143Y-56727381D01*
X74596428Y-58091667D02*
X74120237Y-58091667D01*
X74691666Y-58377381D02*
X74358333Y-57377381D01*
X74024999Y-58377381D01*
X73691666Y-58377381D02*
X73691666Y-57377381D01*
X73358332Y-58091667D01*
X73024999Y-57377381D01*
X73024999Y-58377381D01*
X72548809Y-58377381D02*
X72548809Y-57377381D01*
X72167856Y-57377381D01*
X72072618Y-57425000D01*
X72024999Y-57472619D01*
X71977380Y-57567857D01*
X71977380Y-57710714D01*
X72024999Y-57805952D01*
X72072618Y-57853571D01*
X72167856Y-57901190D01*
X72548809Y-57901190D01*
X71072618Y-58377381D02*
X71548809Y-58377381D01*
X71548809Y-57377381D01*
X70739285Y-58377381D02*
X70739285Y-57377381D01*
X69929761Y-57853571D02*
X70263095Y-57853571D01*
X70263095Y-58377381D02*
X70263095Y-57377381D01*
X69786904Y-57377381D01*
X69405952Y-58377381D02*
X69405952Y-57377381D01*
X68929762Y-57853571D02*
X68596428Y-57853571D01*
X68453571Y-58377381D02*
X68929762Y-58377381D01*
X68929762Y-57377381D01*
X68453571Y-57377381D01*
X67453571Y-58377381D02*
X67786905Y-57901190D01*
X68025000Y-58377381D02*
X68025000Y-57377381D01*
X67644047Y-57377381D01*
X67548809Y-57425000D01*
X67501190Y-57472619D01*
X67453571Y-57567857D01*
X67453571Y-57710714D01*
X67501190Y-57805952D01*
X67548809Y-57853571D01*
X67644047Y-57901190D01*
X68025000Y-57901190D01*
X75120238Y-59503571D02*
X74977381Y-59551190D01*
X74929762Y-59598810D01*
X74882143Y-59694048D01*
X74882143Y-59836905D01*
X74929762Y-59932143D01*
X74977381Y-59979762D01*
X75072619Y-60027381D01*
X75453572Y-60027381D01*
X75453572Y-59027381D01*
X75120238Y-59027381D01*
X75025000Y-59075000D01*
X74977381Y-59122619D01*
X74929762Y-59217857D01*
X74929762Y-59313095D01*
X74977381Y-59408333D01*
X75025000Y-59455952D01*
X75120238Y-59503571D01*
X75453572Y-59503571D01*
X74263096Y-59551190D02*
X74263096Y-60027381D01*
X74596429Y-59027381D02*
X74263096Y-59551190D01*
X73929762Y-59027381D01*
X72834524Y-60027381D02*
X72834524Y-59027381D01*
X72596429Y-59027381D01*
X72453571Y-59075000D01*
X72358333Y-59170238D01*
X72310714Y-59265476D01*
X72263095Y-59455952D01*
X72263095Y-59598810D01*
X72310714Y-59789286D01*
X72358333Y-59884524D01*
X72453571Y-59979762D01*
X72596429Y-60027381D01*
X72834524Y-60027381D01*
X71072619Y-60027381D02*
X71072619Y-59027381D01*
X70739285Y-59741667D01*
X70405952Y-59027381D01*
X70405952Y-60027381D01*
X69977381Y-59741667D02*
X69501190Y-59741667D01*
X70072619Y-60027381D02*
X69739286Y-59027381D01*
X69405952Y-60027381D01*
X68501190Y-60027381D02*
X68834524Y-59551190D01*
X69072619Y-60027381D02*
X69072619Y-59027381D01*
X68691666Y-59027381D01*
X68596428Y-59075000D01*
X68548809Y-59122619D01*
X68501190Y-59217857D01*
X68501190Y-59360714D01*
X68548809Y-59455952D01*
X68596428Y-59503571D01*
X68691666Y-59551190D01*
X69072619Y-59551190D01*
X68072619Y-60027381D02*
X68072619Y-59027381D01*
X67501190Y-60027381D02*
X67929762Y-59455952D01*
X67501190Y-59027381D02*
X68072619Y-59598810D01*
X67120238Y-59979762D02*
X66977381Y-60027381D01*
X66739285Y-60027381D01*
X66644047Y-59979762D01*
X66596428Y-59932143D01*
X66548809Y-59836905D01*
X66548809Y-59741667D01*
X66596428Y-59646429D01*
X66644047Y-59598810D01*
X66739285Y-59551190D01*
X66929762Y-59503571D01*
X67025000Y-59455952D01*
X67072619Y-59408333D01*
X67120238Y-59313095D01*
X67120238Y-59217857D01*
X67072619Y-59122619D01*
X67025000Y-59075000D01*
X66929762Y-59027381D01*
X66691666Y-59027381D01*
X66548809Y-59075000D01*
X72953571Y-61677381D02*
X72953571Y-60677381D01*
X72382142Y-61677381D02*
X72810714Y-61105952D01*
X72382142Y-60677381D02*
X72953571Y-61248810D01*
X72048809Y-60677381D02*
X71810714Y-61677381D01*
X71620237Y-60963095D01*
X71429761Y-61677381D01*
X71191666Y-60677381D01*
X70382142Y-61010714D02*
X70382142Y-61677381D01*
X70620238Y-60629762D02*
X70858333Y-61344048D01*
X70239285Y-61344048D01*
X70001190Y-60677381D02*
X69429761Y-60677381D01*
X69715476Y-61677381D02*
X69715476Y-60677381D01*
X69096428Y-61677381D02*
X69096428Y-60677381D01*
X75858333Y-63232143D02*
X75905952Y-63279762D01*
X76048809Y-63327381D01*
X76144047Y-63327381D01*
X76286905Y-63279762D01*
X76382143Y-63184524D01*
X76429762Y-63089286D01*
X76477381Y-62898810D01*
X76477381Y-62755952D01*
X76429762Y-62565476D01*
X76382143Y-62470238D01*
X76286905Y-62375000D01*
X76144047Y-62327381D01*
X76048809Y-62327381D01*
X75905952Y-62375000D01*
X75858333Y-62422619D01*
X74858333Y-63232143D02*
X74905952Y-63279762D01*
X75048809Y-63327381D01*
X75144047Y-63327381D01*
X75286905Y-63279762D01*
X75382143Y-63184524D01*
X75429762Y-63089286D01*
X75477381Y-62898810D01*
X75477381Y-62755952D01*
X75429762Y-62565476D01*
X75382143Y-62470238D01*
X75286905Y-62375000D01*
X75144047Y-62327381D01*
X75048809Y-62327381D01*
X74905952Y-62375000D01*
X74858333Y-62422619D01*
X74429762Y-62946429D02*
X73667857Y-62946429D01*
X72858333Y-62803571D02*
X72715476Y-62851190D01*
X72667857Y-62898810D01*
X72620238Y-62994048D01*
X72620238Y-63136905D01*
X72667857Y-63232143D01*
X72715476Y-63279762D01*
X72810714Y-63327381D01*
X73191667Y-63327381D01*
X73191667Y-62327381D01*
X72858333Y-62327381D01*
X72763095Y-62375000D01*
X72715476Y-62422619D01*
X72667857Y-62517857D01*
X72667857Y-62613095D01*
X72715476Y-62708333D01*
X72763095Y-62755952D01*
X72858333Y-62803571D01*
X73191667Y-62803571D01*
X72001191Y-62851190D02*
X72001191Y-63327381D01*
X72334524Y-62327381D02*
X72001191Y-62851190D01*
X71667857Y-62327381D01*
X71334524Y-62946429D02*
X70572619Y-62946429D01*
X70144048Y-63279762D02*
X70001191Y-63327381D01*
X69763095Y-63327381D01*
X69667857Y-63279762D01*
X69620238Y-63232143D01*
X69572619Y-63136905D01*
X69572619Y-63041667D01*
X69620238Y-62946429D01*
X69667857Y-62898810D01*
X69763095Y-62851190D01*
X69953572Y-62803571D01*
X70048810Y-62755952D01*
X70096429Y-62708333D01*
X70144048Y-62613095D01*
X70144048Y-62517857D01*
X70096429Y-62422619D01*
X70048810Y-62375000D01*
X69953572Y-62327381D01*
X69715476Y-62327381D01*
X69572619Y-62375000D01*
X69191667Y-63041667D02*
X68715476Y-63041667D01*
X69286905Y-63327381D02*
X68953572Y-62327381D01*
X68620238Y-63327381D01*
X67096428Y-62660714D02*
X67096428Y-63327381D01*
X67334524Y-62279762D02*
X67572619Y-62994048D01*
X66953571Y-62994048D01*
X66572619Y-63232143D02*
X66525000Y-63279762D01*
X66572619Y-63327381D01*
X66620238Y-63279762D01*
X66572619Y-63232143D01*
X66572619Y-63327381D01*
X65905953Y-62327381D02*
X65810714Y-62327381D01*
X65715476Y-62375000D01*
X65667857Y-62422619D01*
X65620238Y-62517857D01*
X65572619Y-62708333D01*
X65572619Y-62946429D01*
X65620238Y-63136905D01*
X65667857Y-63232143D01*
X65715476Y-63279762D01*
X65810714Y-63327381D01*
X65905953Y-63327381D01*
X66001191Y-63279762D01*
X66048810Y-63232143D01*
X66096429Y-63136905D01*
X66144048Y-62946429D01*
X66144048Y-62708333D01*
X66096429Y-62517857D01*
X66048810Y-62422619D01*
X66001191Y-62375000D01*
X65905953Y-62327381D01*
X76100000Y-32827381D02*
X75909523Y-32827381D01*
X75814285Y-32875000D01*
X75719047Y-32970238D01*
X75671428Y-33160714D01*
X75671428Y-33494048D01*
X75719047Y-33684524D01*
X75814285Y-33779762D01*
X75909523Y-33827381D01*
X76100000Y-33827381D01*
X76195238Y-33779762D01*
X76290476Y-33684524D01*
X76338095Y-33494048D01*
X76338095Y-33160714D01*
X76290476Y-32970238D01*
X76195238Y-32875000D01*
X76100000Y-32827381D01*
X75242857Y-32827381D02*
X75242857Y-33636905D01*
X75195238Y-33732143D01*
X75147619Y-33779762D01*
X75052381Y-33827381D01*
X74861904Y-33827381D01*
X74766666Y-33779762D01*
X74719047Y-33732143D01*
X74671428Y-33636905D01*
X74671428Y-32827381D01*
X74338095Y-32827381D02*
X73766666Y-32827381D01*
X74052381Y-33827381D02*
X74052381Y-32827381D01*
X76766667Y-35477381D02*
X76766667Y-34477381D01*
X76385714Y-34477381D01*
X76290476Y-34525000D01*
X76242857Y-34572619D01*
X76195238Y-34667857D01*
X76195238Y-34810714D01*
X76242857Y-34905952D01*
X76290476Y-34953571D01*
X76385714Y-35001190D01*
X76766667Y-35001190D01*
X75576191Y-34477381D02*
X75385714Y-34477381D01*
X75290476Y-34525000D01*
X75195238Y-34620238D01*
X75147619Y-34810714D01*
X75147619Y-35144048D01*
X75195238Y-35334524D01*
X75290476Y-35429762D01*
X75385714Y-35477381D01*
X75576191Y-35477381D01*
X75671429Y-35429762D01*
X75766667Y-35334524D01*
X75814286Y-35144048D01*
X75814286Y-34810714D01*
X75766667Y-34620238D01*
X75671429Y-34525000D01*
X75576191Y-34477381D01*
X74147619Y-35477381D02*
X74480953Y-35001190D01*
X74719048Y-35477381D02*
X74719048Y-34477381D01*
X74338095Y-34477381D01*
X74242857Y-34525000D01*
X74195238Y-34572619D01*
X74147619Y-34667857D01*
X74147619Y-34810714D01*
X74195238Y-34905952D01*
X74242857Y-34953571D01*
X74338095Y-35001190D01*
X74719048Y-35001190D01*
X73861905Y-34477381D02*
X73290476Y-34477381D01*
X73576191Y-35477381D02*
X73576191Y-34477381D01*
X60372619Y-45523809D02*
X61372619Y-45523809D01*
X60372619Y-45047619D02*
X61372619Y-45047619D01*
X60372619Y-44476190D01*
X61372619Y-44476190D01*
X58722619Y-46666667D02*
X59722619Y-46666667D01*
X59722619Y-46285714D01*
X59675000Y-46190476D01*
X59627381Y-46142857D01*
X59532143Y-46095238D01*
X59389286Y-46095238D01*
X59294048Y-46142857D01*
X59246429Y-46190476D01*
X59198810Y-46285714D01*
X59198810Y-46666667D01*
X59722619Y-45476191D02*
X59722619Y-45285714D01*
X59675000Y-45190476D01*
X59579762Y-45095238D01*
X59389286Y-45047619D01*
X59055952Y-45047619D01*
X58865476Y-45095238D01*
X58770238Y-45190476D01*
X58722619Y-45285714D01*
X58722619Y-45476191D01*
X58770238Y-45571429D01*
X58865476Y-45666667D01*
X59055952Y-45714286D01*
X59389286Y-45714286D01*
X59579762Y-45666667D01*
X59675000Y-45571429D01*
X59722619Y-45476191D01*
X58722619Y-44047619D02*
X59198810Y-44380953D01*
X58722619Y-44619048D02*
X59722619Y-44619048D01*
X59722619Y-44238095D01*
X59675000Y-44142857D01*
X59627381Y-44095238D01*
X59532143Y-44047619D01*
X59389286Y-44047619D01*
X59294048Y-44095238D01*
X59246429Y-44142857D01*
X59198810Y-44238095D01*
X59198810Y-44619048D01*
X59722619Y-43761905D02*
X59722619Y-43190476D01*
X58722619Y-43476191D02*
X59722619Y-43476191D01*
X90657143Y-53004762D02*
X90514286Y-53052381D01*
X90276190Y-53052381D01*
X90180952Y-53004762D01*
X90133333Y-52957143D01*
X90085714Y-52861905D01*
X90085714Y-52766667D01*
X90133333Y-52671429D01*
X90180952Y-52623810D01*
X90276190Y-52576190D01*
X90466667Y-52528571D01*
X90561905Y-52480952D01*
X90609524Y-52433333D01*
X90657143Y-52338095D01*
X90657143Y-52242857D01*
X90609524Y-52147619D01*
X90561905Y-52100000D01*
X90466667Y-52052381D01*
X90228571Y-52052381D01*
X90085714Y-52100000D01*
X89752381Y-52052381D02*
X89514286Y-53052381D01*
X89323809Y-52338095D01*
X89133333Y-53052381D01*
X88895238Y-52052381D01*
X85857143Y-53004762D02*
X85714286Y-53052381D01*
X85476190Y-53052381D01*
X85380952Y-53004762D01*
X85333333Y-52957143D01*
X85285714Y-52861905D01*
X85285714Y-52766667D01*
X85333333Y-52671429D01*
X85380952Y-52623810D01*
X85476190Y-52576190D01*
X85666667Y-52528571D01*
X85761905Y-52480952D01*
X85809524Y-52433333D01*
X85857143Y-52338095D01*
X85857143Y-52242857D01*
X85809524Y-52147619D01*
X85761905Y-52100000D01*
X85666667Y-52052381D01*
X85428571Y-52052381D01*
X85285714Y-52100000D01*
X84952381Y-52052381D02*
X84714286Y-53052381D01*
X84523809Y-52338095D01*
X84333333Y-53052381D01*
X84095238Y-52052381D01*
X91552381Y-48052381D02*
X91552381Y-47052381D01*
X91171428Y-47052381D01*
X91076190Y-47100000D01*
X91028571Y-47147619D01*
X90980952Y-47242857D01*
X90980952Y-47385714D01*
X91028571Y-47480952D01*
X91076190Y-47528571D01*
X91171428Y-47576190D01*
X91552381Y-47576190D01*
X90647619Y-47052381D02*
X90409524Y-48052381D01*
X90219047Y-47338095D01*
X90028571Y-48052381D01*
X89790476Y-47052381D01*
X88838095Y-48052381D02*
X89171429Y-47576190D01*
X89409524Y-48052381D02*
X89409524Y-47052381D01*
X89028571Y-47052381D01*
X88933333Y-47100000D01*
X88885714Y-47147619D01*
X88838095Y-47242857D01*
X88838095Y-47385714D01*
X88885714Y-47480952D01*
X88933333Y-47528571D01*
X89028571Y-47576190D01*
X89409524Y-47576190D01*
X88409524Y-47671429D02*
X87647619Y-47671429D01*
X88028571Y-48052381D02*
X88028571Y-47290476D01*
X86352381Y-48052381D02*
X86352381Y-47052381D01*
X85971428Y-47052381D01*
X85876190Y-47100000D01*
X85828571Y-47147619D01*
X85780952Y-47242857D01*
X85780952Y-47385714D01*
X85828571Y-47480952D01*
X85876190Y-47528571D01*
X85971428Y-47576190D01*
X86352381Y-47576190D01*
X85447619Y-47052381D02*
X85209524Y-48052381D01*
X85019047Y-47338095D01*
X84828571Y-48052381D01*
X84590476Y-47052381D01*
X83638095Y-48052381D02*
X83971429Y-47576190D01*
X84209524Y-48052381D02*
X84209524Y-47052381D01*
X83828571Y-47052381D01*
X83733333Y-47100000D01*
X83685714Y-47147619D01*
X83638095Y-47242857D01*
X83638095Y-47385714D01*
X83685714Y-47480952D01*
X83733333Y-47528571D01*
X83828571Y-47576190D01*
X84209524Y-47576190D01*
X83209524Y-47671429D02*
X82447619Y-47671429D01*
X72104762Y-79142857D02*
X72152381Y-79285714D01*
X72152381Y-79523810D01*
X72104762Y-79619048D01*
X72057143Y-79666667D01*
X71961905Y-79714286D01*
X71866667Y-79714286D01*
X71771429Y-79666667D01*
X71723810Y-79619048D01*
X71676190Y-79523810D01*
X71628571Y-79333333D01*
X71580952Y-79238095D01*
X71533333Y-79190476D01*
X71438095Y-79142857D01*
X71342857Y-79142857D01*
X71247619Y-79190476D01*
X71200000Y-79238095D01*
X71152381Y-79333333D01*
X71152381Y-79571429D01*
X71200000Y-79714286D01*
X71152381Y-80047619D02*
X72152381Y-80285714D01*
X71438095Y-80476191D01*
X72152381Y-80666667D01*
X71152381Y-80904762D01*
X72304762Y-84542857D02*
X72352381Y-84685714D01*
X72352381Y-84923810D01*
X72304762Y-85019048D01*
X72257143Y-85066667D01*
X72161905Y-85114286D01*
X72066667Y-85114286D01*
X71971429Y-85066667D01*
X71923810Y-85019048D01*
X71876190Y-84923810D01*
X71828571Y-84733333D01*
X71780952Y-84638095D01*
X71733333Y-84590476D01*
X71638095Y-84542857D01*
X71542857Y-84542857D01*
X71447619Y-84590476D01*
X71400000Y-84638095D01*
X71352381Y-84733333D01*
X71352381Y-84971429D01*
X71400000Y-85114286D01*
X71352381Y-85447619D02*
X72352381Y-85685714D01*
X71638095Y-85876191D01*
X72352381Y-86066667D01*
X71352381Y-86304762D01*
X77752381Y-78247619D02*
X76752381Y-78247619D01*
X76752381Y-78628572D01*
X76800000Y-78723810D01*
X76847619Y-78771429D01*
X76942857Y-78819048D01*
X77085714Y-78819048D01*
X77180952Y-78771429D01*
X77228571Y-78723810D01*
X77276190Y-78628572D01*
X77276190Y-78247619D01*
X76752381Y-79152381D02*
X77752381Y-79390476D01*
X77038095Y-79580953D01*
X77752381Y-79771429D01*
X76752381Y-80009524D01*
X77752381Y-80961905D02*
X77276190Y-80628571D01*
X77752381Y-80390476D02*
X76752381Y-80390476D01*
X76752381Y-80771429D01*
X76800000Y-80866667D01*
X76847619Y-80914286D01*
X76942857Y-80961905D01*
X77085714Y-80961905D01*
X77180952Y-80914286D01*
X77228571Y-80866667D01*
X77276190Y-80771429D01*
X77276190Y-80390476D01*
X77371429Y-81390476D02*
X77371429Y-82152381D01*
X77752381Y-81771429D02*
X76990476Y-81771429D01*
X77952381Y-83847619D02*
X76952381Y-83847619D01*
X76952381Y-84228572D01*
X77000000Y-84323810D01*
X77047619Y-84371429D01*
X77142857Y-84419048D01*
X77285714Y-84419048D01*
X77380952Y-84371429D01*
X77428571Y-84323810D01*
X77476190Y-84228572D01*
X77476190Y-83847619D01*
X76952381Y-84752381D02*
X77952381Y-84990476D01*
X77238095Y-85180953D01*
X77952381Y-85371429D01*
X76952381Y-85609524D01*
X77952381Y-86561905D02*
X77476190Y-86228571D01*
X77952381Y-85990476D02*
X76952381Y-85990476D01*
X76952381Y-86371429D01*
X77000000Y-86466667D01*
X77047619Y-86514286D01*
X77142857Y-86561905D01*
X77285714Y-86561905D01*
X77380952Y-86514286D01*
X77428571Y-86466667D01*
X77476190Y-86371429D01*
X77476190Y-85990476D01*
X77571429Y-86990476D02*
X77571429Y-87752381D01*
X59647619Y-122519047D02*
X60123810Y-122852381D01*
X59647619Y-123090476D02*
X60647619Y-123090476D01*
X60647619Y-122709523D01*
X60600000Y-122614285D01*
X60552381Y-122566666D01*
X60457143Y-122519047D01*
X60314286Y-122519047D01*
X60219048Y-122566666D01*
X60171429Y-122614285D01*
X60123810Y-122709523D01*
X60123810Y-123090476D01*
X60171429Y-121757142D02*
X60171429Y-122090476D01*
X59647619Y-122090476D02*
X60647619Y-122090476D01*
X60647619Y-121614285D01*
X59947619Y-120414285D02*
X59947619Y-120890476D01*
X60947619Y-120890476D01*
X60947619Y-119890476D02*
X60947619Y-119699999D01*
X60900000Y-119604761D01*
X60804762Y-119509523D01*
X60614286Y-119461904D01*
X60280952Y-119461904D01*
X60090476Y-119509523D01*
X59995238Y-119604761D01*
X59947619Y-119699999D01*
X59947619Y-119890476D01*
X59995238Y-119985714D01*
X60090476Y-120080952D01*
X60280952Y-120128571D01*
X60614286Y-120128571D01*
X60804762Y-120080952D01*
X60900000Y-119985714D01*
X60947619Y-119890476D01*
X75247619Y-129427381D02*
X75247619Y-128427381D01*
X74914285Y-129141667D01*
X74580952Y-128427381D01*
X74580952Y-129427381D01*
X74104762Y-129427381D02*
X74104762Y-128427381D01*
X73723810Y-128427381D02*
X73057143Y-129427381D01*
X73057143Y-128427381D02*
X73723810Y-129427381D01*
X75200000Y-130077381D02*
X75009523Y-130077381D01*
X74914285Y-130125000D01*
X74819047Y-130220238D01*
X74771428Y-130410714D01*
X74771428Y-130744048D01*
X74819047Y-130934524D01*
X74914285Y-131029762D01*
X75009523Y-131077381D01*
X75200000Y-131077381D01*
X75295238Y-131029762D01*
X75390476Y-130934524D01*
X75438095Y-130744048D01*
X75438095Y-130410714D01*
X75390476Y-130220238D01*
X75295238Y-130125000D01*
X75200000Y-130077381D01*
X74342857Y-130077381D02*
X74342857Y-130886905D01*
X74295238Y-130982143D01*
X74247619Y-131029762D01*
X74152381Y-131077381D01*
X73961904Y-131077381D01*
X73866666Y-131029762D01*
X73819047Y-130982143D01*
X73771428Y-130886905D01*
X73771428Y-130077381D01*
X73438095Y-130077381D02*
X72866666Y-130077381D01*
X73152381Y-131077381D02*
X73152381Y-130077381D01*
X78797619Y-117538095D02*
X79273810Y-117871429D01*
X78797619Y-118109524D02*
X79797619Y-118109524D01*
X79797619Y-117728571D01*
X79750000Y-117633333D01*
X79702381Y-117585714D01*
X79607143Y-117538095D01*
X79464286Y-117538095D01*
X79369048Y-117585714D01*
X79321429Y-117633333D01*
X79273810Y-117728571D01*
X79273810Y-118109524D01*
X79321429Y-116776190D02*
X79321429Y-117109524D01*
X78797619Y-117109524D02*
X79797619Y-117109524D01*
X79797619Y-116633333D01*
X78797619Y-115490476D02*
X79797619Y-115490476D01*
X79083333Y-115157142D01*
X79797619Y-114823809D01*
X78797619Y-114823809D01*
X78797619Y-114347619D02*
X79797619Y-114347619D01*
X79797619Y-113966667D02*
X78797619Y-113300000D01*
X79797619Y-113300000D02*
X78797619Y-113966667D01*
X79321429Y-112919048D02*
X79321429Y-112585714D01*
X78797619Y-112442857D02*
X78797619Y-112919048D01*
X79797619Y-112919048D01*
X79797619Y-112442857D01*
X78797619Y-111442857D02*
X79273810Y-111776191D01*
X78797619Y-112014286D02*
X79797619Y-112014286D01*
X79797619Y-111633333D01*
X79750000Y-111538095D01*
X79702381Y-111490476D01*
X79607143Y-111442857D01*
X79464286Y-111442857D01*
X79369048Y-111490476D01*
X79321429Y-111538095D01*
X79273810Y-111633333D01*
X79273810Y-112014286D01*
X77671429Y-121442857D02*
X77623810Y-121300000D01*
X77576190Y-121252381D01*
X77480952Y-121204762D01*
X77338095Y-121204762D01*
X77242857Y-121252381D01*
X77195238Y-121300000D01*
X77147619Y-121395238D01*
X77147619Y-121776191D01*
X78147619Y-121776191D01*
X78147619Y-121442857D01*
X78100000Y-121347619D01*
X78052381Y-121300000D01*
X77957143Y-121252381D01*
X77861905Y-121252381D01*
X77766667Y-121300000D01*
X77719048Y-121347619D01*
X77671429Y-121442857D01*
X77671429Y-121776191D01*
X77623810Y-120585715D02*
X77147619Y-120585715D01*
X78147619Y-120919048D02*
X77623810Y-120585715D01*
X78147619Y-120252381D01*
X77147619Y-119157143D02*
X78147619Y-119157143D01*
X78147619Y-118919048D01*
X78100000Y-118776190D01*
X78004762Y-118680952D01*
X77909524Y-118633333D01*
X77719048Y-118585714D01*
X77576190Y-118585714D01*
X77385714Y-118633333D01*
X77290476Y-118680952D01*
X77195238Y-118776190D01*
X77147619Y-118919048D01*
X77147619Y-119157143D01*
X77147619Y-117395238D02*
X78147619Y-117395238D01*
X77433333Y-117061904D01*
X78147619Y-116728571D01*
X77147619Y-116728571D01*
X77433333Y-116300000D02*
X77433333Y-115823809D01*
X77147619Y-116395238D02*
X78147619Y-116061905D01*
X77147619Y-115728571D01*
X77147619Y-114823809D02*
X77623810Y-115157143D01*
X77147619Y-115395238D02*
X78147619Y-115395238D01*
X78147619Y-115014285D01*
X78100000Y-114919047D01*
X78052381Y-114871428D01*
X77957143Y-114823809D01*
X77814286Y-114823809D01*
X77719048Y-114871428D01*
X77671429Y-114919047D01*
X77623810Y-115014285D01*
X77623810Y-115395238D01*
X77147619Y-114395238D02*
X78147619Y-114395238D01*
X77147619Y-113823809D02*
X77719048Y-114252381D01*
X78147619Y-113823809D02*
X77576190Y-114395238D01*
X77195238Y-113442857D02*
X77147619Y-113300000D01*
X77147619Y-113061904D01*
X77195238Y-112966666D01*
X77242857Y-112919047D01*
X77338095Y-112871428D01*
X77433333Y-112871428D01*
X77528571Y-112919047D01*
X77576190Y-112966666D01*
X77623810Y-113061904D01*
X77671429Y-113252381D01*
X77719048Y-113347619D01*
X77766667Y-113395238D01*
X77861905Y-113442857D01*
X77957143Y-113442857D01*
X78052381Y-113395238D01*
X78100000Y-113347619D01*
X78147619Y-113252381D01*
X78147619Y-113014285D01*
X78100000Y-112871428D01*
X77147619Y-111680952D02*
X78147619Y-111680952D01*
X77147619Y-111109523D02*
X77719048Y-111538095D01*
X78147619Y-111109523D02*
X77576190Y-111680952D01*
X78147619Y-110776190D02*
X77147619Y-110538095D01*
X77861905Y-110347618D01*
X77147619Y-110157142D01*
X78147619Y-109919047D01*
X77814286Y-109109523D02*
X77147619Y-109109523D01*
X78195238Y-109347619D02*
X77480952Y-109585714D01*
X77480952Y-108966666D01*
X78147619Y-108728571D02*
X78147619Y-108157142D01*
X77147619Y-108442857D02*
X78147619Y-108442857D01*
X77147619Y-107823809D02*
X78147619Y-107823809D01*
X75592857Y-119633333D02*
X75545238Y-119680952D01*
X75497619Y-119823809D01*
X75497619Y-119919047D01*
X75545238Y-120061905D01*
X75640476Y-120157143D01*
X75735714Y-120204762D01*
X75926190Y-120252381D01*
X76069048Y-120252381D01*
X76259524Y-120204762D01*
X76354762Y-120157143D01*
X76450000Y-120061905D01*
X76497619Y-119919047D01*
X76497619Y-119823809D01*
X76450000Y-119680952D01*
X76402381Y-119633333D01*
X75592857Y-118633333D02*
X75545238Y-118680952D01*
X75497619Y-118823809D01*
X75497619Y-118919047D01*
X75545238Y-119061905D01*
X75640476Y-119157143D01*
X75735714Y-119204762D01*
X75926190Y-119252381D01*
X76069048Y-119252381D01*
X76259524Y-119204762D01*
X76354762Y-119157143D01*
X76450000Y-119061905D01*
X76497619Y-118919047D01*
X76497619Y-118823809D01*
X76450000Y-118680952D01*
X76402381Y-118633333D01*
X75878571Y-118204762D02*
X75878571Y-117442857D01*
X76021429Y-116633333D02*
X75973810Y-116490476D01*
X75926190Y-116442857D01*
X75830952Y-116395238D01*
X75688095Y-116395238D01*
X75592857Y-116442857D01*
X75545238Y-116490476D01*
X75497619Y-116585714D01*
X75497619Y-116966667D01*
X76497619Y-116966667D01*
X76497619Y-116633333D01*
X76450000Y-116538095D01*
X76402381Y-116490476D01*
X76307143Y-116442857D01*
X76211905Y-116442857D01*
X76116667Y-116490476D01*
X76069048Y-116538095D01*
X76021429Y-116633333D01*
X76021429Y-116966667D01*
X75973810Y-115776191D02*
X75497619Y-115776191D01*
X76497619Y-116109524D02*
X75973810Y-115776191D01*
X76497619Y-115442857D01*
X75878571Y-115109524D02*
X75878571Y-114347619D01*
X75545238Y-113919048D02*
X75497619Y-113776191D01*
X75497619Y-113538095D01*
X75545238Y-113442857D01*
X75592857Y-113395238D01*
X75688095Y-113347619D01*
X75783333Y-113347619D01*
X75878571Y-113395238D01*
X75926190Y-113442857D01*
X75973810Y-113538095D01*
X76021429Y-113728572D01*
X76069048Y-113823810D01*
X76116667Y-113871429D01*
X76211905Y-113919048D01*
X76307143Y-113919048D01*
X76402381Y-113871429D01*
X76450000Y-113823810D01*
X76497619Y-113728572D01*
X76497619Y-113490476D01*
X76450000Y-113347619D01*
X75783333Y-112966667D02*
X75783333Y-112490476D01*
X75497619Y-113061905D02*
X76497619Y-112728572D01*
X75497619Y-112395238D01*
X76164286Y-110871428D02*
X75497619Y-110871428D01*
X76545238Y-111109524D02*
X75830952Y-111347619D01*
X75830952Y-110728571D01*
X75592857Y-110347619D02*
X75545238Y-110300000D01*
X75497619Y-110347619D01*
X75545238Y-110395238D01*
X75592857Y-110347619D01*
X75497619Y-110347619D01*
X76497619Y-109680953D02*
X76497619Y-109585714D01*
X76450000Y-109490476D01*
X76402381Y-109442857D01*
X76307143Y-109395238D01*
X76116667Y-109347619D01*
X75878571Y-109347619D01*
X75688095Y-109395238D01*
X75592857Y-109442857D01*
X75545238Y-109490476D01*
X75497619Y-109585714D01*
X75497619Y-109680953D01*
X75545238Y-109776191D01*
X75592857Y-109823810D01*
X75688095Y-109871429D01*
X75878571Y-109919048D01*
X76116667Y-109919048D01*
X76307143Y-109871429D01*
X76402381Y-109823810D01*
X76450000Y-109776191D01*
X76497619Y-109680953D01*
X149657143Y-126204762D02*
X149514286Y-126252381D01*
X149276190Y-126252381D01*
X149180952Y-126204762D01*
X149133333Y-126157143D01*
X149085714Y-126061905D01*
X149085714Y-125966667D01*
X149133333Y-125871429D01*
X149180952Y-125823810D01*
X149276190Y-125776190D01*
X149466667Y-125728571D01*
X149561905Y-125680952D01*
X149609524Y-125633333D01*
X149657143Y-125538095D01*
X149657143Y-125442857D01*
X149609524Y-125347619D01*
X149561905Y-125300000D01*
X149466667Y-125252381D01*
X149228571Y-125252381D01*
X149085714Y-125300000D01*
X148752381Y-125252381D02*
X148514286Y-126252381D01*
X148323809Y-125538095D01*
X148133333Y-126252381D01*
X147895238Y-125252381D01*
X149457143Y-122404762D02*
X149314286Y-122452381D01*
X149076190Y-122452381D01*
X148980952Y-122404762D01*
X148933333Y-122357143D01*
X148885714Y-122261905D01*
X148885714Y-122166667D01*
X148933333Y-122071429D01*
X148980952Y-122023810D01*
X149076190Y-121976190D01*
X149266667Y-121928571D01*
X149361905Y-121880952D01*
X149409524Y-121833333D01*
X149457143Y-121738095D01*
X149457143Y-121642857D01*
X149409524Y-121547619D01*
X149361905Y-121500000D01*
X149266667Y-121452381D01*
X149028571Y-121452381D01*
X148885714Y-121500000D01*
X148552381Y-121452381D02*
X148314286Y-122452381D01*
X148123809Y-121738095D01*
X147933333Y-122452381D01*
X147695238Y-121452381D01*
X153957142Y-125953571D02*
X153814285Y-126001190D01*
X153766666Y-126048810D01*
X153719047Y-126144048D01*
X153719047Y-126286905D01*
X153766666Y-126382143D01*
X153814285Y-126429762D01*
X153909523Y-126477381D01*
X154290476Y-126477381D01*
X154290476Y-125477381D01*
X153957142Y-125477381D01*
X153861904Y-125525000D01*
X153814285Y-125572619D01*
X153766666Y-125667857D01*
X153766666Y-125763095D01*
X153814285Y-125858333D01*
X153861904Y-125905952D01*
X153957142Y-125953571D01*
X154290476Y-125953571D01*
X153338095Y-126191667D02*
X152861904Y-126191667D01*
X153433333Y-126477381D02*
X153100000Y-125477381D01*
X152766666Y-126477381D01*
X152576190Y-125477381D02*
X152004761Y-125477381D01*
X152290476Y-126477381D02*
X152290476Y-125477381D01*
X151671428Y-126096429D02*
X150909523Y-126096429D01*
X154157142Y-121953571D02*
X154014285Y-122001190D01*
X153966666Y-122048810D01*
X153919047Y-122144048D01*
X153919047Y-122286905D01*
X153966666Y-122382143D01*
X154014285Y-122429762D01*
X154109523Y-122477381D01*
X154490476Y-122477381D01*
X154490476Y-121477381D01*
X154157142Y-121477381D01*
X154061904Y-121525000D01*
X154014285Y-121572619D01*
X153966666Y-121667857D01*
X153966666Y-121763095D01*
X154014285Y-121858333D01*
X154061904Y-121905952D01*
X154157142Y-121953571D01*
X154490476Y-121953571D01*
X153538095Y-122191667D02*
X153061904Y-122191667D01*
X153633333Y-122477381D02*
X153300000Y-121477381D01*
X152966666Y-122477381D01*
X152776190Y-121477381D02*
X152204761Y-121477381D01*
X152490476Y-122477381D02*
X152490476Y-121477381D01*
X151871428Y-122096429D02*
X151109523Y-122096429D01*
X151490475Y-122477381D02*
X151490475Y-121715476D01*
X144904762Y-120916667D02*
X144428571Y-120916667D01*
X145000000Y-121202381D02*
X144666667Y-120202381D01*
X144333333Y-121202381D01*
X143428571Y-121107143D02*
X143476190Y-121154762D01*
X143619047Y-121202381D01*
X143714285Y-121202381D01*
X143857143Y-121154762D01*
X143952381Y-121059524D01*
X144000000Y-120964286D01*
X144047619Y-120773810D01*
X144047619Y-120630952D01*
X144000000Y-120440476D01*
X143952381Y-120345238D01*
X143857143Y-120250000D01*
X143714285Y-120202381D01*
X143619047Y-120202381D01*
X143476190Y-120250000D01*
X143428571Y-120297619D01*
X143142857Y-120202381D02*
X142571428Y-120202381D01*
X142857143Y-121202381D02*
X142857143Y-120202381D01*
X142238095Y-121202381D02*
X142238095Y-120202381D01*
X141904762Y-120202381D02*
X141571429Y-121202381D01*
X141238095Y-120202381D01*
X140904762Y-120678571D02*
X140571428Y-120678571D01*
X140428571Y-121202381D02*
X140904762Y-121202381D01*
X140904762Y-120202381D01*
X140428571Y-120202381D01*
X138666666Y-121202381D02*
X139000000Y-120726190D01*
X139238095Y-121202381D02*
X139238095Y-120202381D01*
X138857142Y-120202381D01*
X138761904Y-120250000D01*
X138714285Y-120297619D01*
X138666666Y-120392857D01*
X138666666Y-120535714D01*
X138714285Y-120630952D01*
X138761904Y-120678571D01*
X138857142Y-120726190D01*
X139238095Y-120726190D01*
X137904761Y-120678571D02*
X138238095Y-120678571D01*
X138238095Y-121202381D02*
X138238095Y-120202381D01*
X137761904Y-120202381D01*
X136619047Y-121202381D02*
X136619047Y-120202381D01*
X136380952Y-120202381D01*
X136238094Y-120250000D01*
X136142856Y-120345238D01*
X136095237Y-120440476D01*
X136047618Y-120630952D01*
X136047618Y-120773810D01*
X136095237Y-120964286D01*
X136142856Y-121059524D01*
X136238094Y-121154762D01*
X136380952Y-121202381D01*
X136619047Y-121202381D01*
X135619047Y-121202381D02*
X135619047Y-120202381D01*
X134809523Y-120678571D02*
X135142857Y-120678571D01*
X135142857Y-121202381D02*
X135142857Y-120202381D01*
X134666666Y-120202381D01*
X133952380Y-120678571D02*
X134285714Y-120678571D01*
X134285714Y-121202381D02*
X134285714Y-120202381D01*
X133809523Y-120202381D01*
X133428571Y-120678571D02*
X133095237Y-120678571D01*
X132952380Y-121202381D02*
X133428571Y-121202381D01*
X133428571Y-120202381D01*
X132952380Y-120202381D01*
X131952380Y-121202381D02*
X132285714Y-120726190D01*
X132523809Y-121202381D02*
X132523809Y-120202381D01*
X132142856Y-120202381D01*
X132047618Y-120250000D01*
X131999999Y-120297619D01*
X131952380Y-120392857D01*
X131952380Y-120535714D01*
X131999999Y-120630952D01*
X132047618Y-120678571D01*
X132142856Y-120726190D01*
X132523809Y-120726190D01*
X131523809Y-120678571D02*
X131190475Y-120678571D01*
X131047618Y-121202381D02*
X131523809Y-121202381D01*
X131523809Y-120202381D01*
X131047618Y-120202381D01*
X130619047Y-121202381D02*
X130619047Y-120202381D01*
X130047618Y-121202381D01*
X130047618Y-120202381D01*
X129714285Y-120202381D02*
X129142856Y-120202381D01*
X129428571Y-121202381D02*
X129428571Y-120202381D01*
X128809523Y-121202381D02*
X128809523Y-120202381D01*
X128380952Y-120916667D02*
X127904761Y-120916667D01*
X128476190Y-121202381D02*
X128142857Y-120202381D01*
X127809523Y-121202381D01*
X126999999Y-121202381D02*
X127476190Y-121202381D01*
X127476190Y-120202381D01*
X143285715Y-122852381D02*
X143285715Y-121852381D01*
X142904762Y-121852381D01*
X142809524Y-121900000D01*
X142761905Y-121947619D01*
X142714286Y-122042857D01*
X142714286Y-122185714D01*
X142761905Y-122280952D01*
X142809524Y-122328571D01*
X142904762Y-122376190D01*
X143285715Y-122376190D01*
X141714286Y-122852381D02*
X142047620Y-122376190D01*
X142285715Y-122852381D02*
X142285715Y-121852381D01*
X141904762Y-121852381D01*
X141809524Y-121900000D01*
X141761905Y-121947619D01*
X141714286Y-122042857D01*
X141714286Y-122185714D01*
X141761905Y-122280952D01*
X141809524Y-122328571D01*
X141904762Y-122376190D01*
X142285715Y-122376190D01*
X141095239Y-121852381D02*
X140904762Y-121852381D01*
X140809524Y-121900000D01*
X140714286Y-121995238D01*
X140666667Y-122185714D01*
X140666667Y-122519048D01*
X140714286Y-122709524D01*
X140809524Y-122804762D01*
X140904762Y-122852381D01*
X141095239Y-122852381D01*
X141190477Y-122804762D01*
X141285715Y-122709524D01*
X141333334Y-122519048D01*
X141333334Y-122185714D01*
X141285715Y-121995238D01*
X141190477Y-121900000D01*
X141095239Y-121852381D01*
X139904762Y-122328571D02*
X139761905Y-122376190D01*
X139714286Y-122423810D01*
X139666667Y-122519048D01*
X139666667Y-122661905D01*
X139714286Y-122757143D01*
X139761905Y-122804762D01*
X139857143Y-122852381D01*
X140238096Y-122852381D01*
X140238096Y-121852381D01*
X139904762Y-121852381D01*
X139809524Y-121900000D01*
X139761905Y-121947619D01*
X139714286Y-122042857D01*
X139714286Y-122138095D01*
X139761905Y-122233333D01*
X139809524Y-122280952D01*
X139904762Y-122328571D01*
X140238096Y-122328571D01*
X139238096Y-122328571D02*
X138904762Y-122328571D01*
X138761905Y-122852381D02*
X139238096Y-122852381D01*
X139238096Y-121852381D01*
X138761905Y-121852381D01*
X137238095Y-122328571D02*
X137095238Y-122376190D01*
X137047619Y-122423810D01*
X137000000Y-122519048D01*
X137000000Y-122661905D01*
X137047619Y-122757143D01*
X137095238Y-122804762D01*
X137190476Y-122852381D01*
X137571429Y-122852381D01*
X137571429Y-121852381D01*
X137238095Y-121852381D01*
X137142857Y-121900000D01*
X137095238Y-121947619D01*
X137047619Y-122042857D01*
X137047619Y-122138095D01*
X137095238Y-122233333D01*
X137142857Y-122280952D01*
X137238095Y-122328571D01*
X137571429Y-122328571D01*
X136380953Y-122376190D02*
X136380953Y-122852381D01*
X136714286Y-121852381D02*
X136380953Y-122376190D01*
X136047619Y-121852381D01*
X134952381Y-122852381D02*
X134952381Y-121852381D01*
X134714286Y-121852381D01*
X134571428Y-121900000D01*
X134476190Y-121995238D01*
X134428571Y-122090476D01*
X134380952Y-122280952D01*
X134380952Y-122423810D01*
X134428571Y-122614286D01*
X134476190Y-122709524D01*
X134571428Y-122804762D01*
X134714286Y-122852381D01*
X134952381Y-122852381D01*
X133190476Y-122852381D02*
X133190476Y-121852381D01*
X132857142Y-122566667D01*
X132523809Y-121852381D01*
X132523809Y-122852381D01*
X132095238Y-122566667D02*
X131619047Y-122566667D01*
X132190476Y-122852381D02*
X131857143Y-121852381D01*
X131523809Y-122852381D01*
X130619047Y-122852381D02*
X130952381Y-122376190D01*
X131190476Y-122852381D02*
X131190476Y-121852381D01*
X130809523Y-121852381D01*
X130714285Y-121900000D01*
X130666666Y-121947619D01*
X130619047Y-122042857D01*
X130619047Y-122185714D01*
X130666666Y-122280952D01*
X130714285Y-122328571D01*
X130809523Y-122376190D01*
X131190476Y-122376190D01*
X130190476Y-122852381D02*
X130190476Y-121852381D01*
X129619047Y-122852381D02*
X130047619Y-122280952D01*
X129619047Y-121852381D02*
X130190476Y-122423810D01*
X129238095Y-122804762D02*
X129095238Y-122852381D01*
X128857142Y-122852381D01*
X128761904Y-122804762D01*
X128714285Y-122757143D01*
X128666666Y-122661905D01*
X128666666Y-122566667D01*
X128714285Y-122471429D01*
X128761904Y-122423810D01*
X128857142Y-122376190D01*
X129047619Y-122328571D01*
X129142857Y-122280952D01*
X129190476Y-122233333D01*
X129238095Y-122138095D01*
X129238095Y-122042857D01*
X129190476Y-121947619D01*
X129142857Y-121900000D01*
X129047619Y-121852381D01*
X128809523Y-121852381D01*
X128666666Y-121900000D01*
X143952381Y-124502381D02*
X143952381Y-123502381D01*
X143380952Y-124502381D02*
X143809524Y-123930952D01*
X143380952Y-123502381D02*
X143952381Y-124073810D01*
X143047619Y-123502381D02*
X142809524Y-124502381D01*
X142619047Y-123788095D01*
X142428571Y-124502381D01*
X142190476Y-123502381D01*
X141380952Y-123835714D02*
X141380952Y-124502381D01*
X141619048Y-123454762D02*
X141857143Y-124169048D01*
X141238095Y-124169048D01*
X141000000Y-123502381D02*
X140428571Y-123502381D01*
X140714286Y-124502381D02*
X140714286Y-123502381D01*
X140095238Y-124502381D02*
X140095238Y-123502381D01*
X138285714Y-124407143D02*
X138333333Y-124454762D01*
X138476190Y-124502381D01*
X138571428Y-124502381D01*
X138714286Y-124454762D01*
X138809524Y-124359524D01*
X138857143Y-124264286D01*
X138904762Y-124073810D01*
X138904762Y-123930952D01*
X138857143Y-123740476D01*
X138809524Y-123645238D01*
X138714286Y-123550000D01*
X138571428Y-123502381D01*
X138476190Y-123502381D01*
X138333333Y-123550000D01*
X138285714Y-123597619D01*
X137285714Y-124407143D02*
X137333333Y-124454762D01*
X137476190Y-124502381D01*
X137571428Y-124502381D01*
X137714286Y-124454762D01*
X137809524Y-124359524D01*
X137857143Y-124264286D01*
X137904762Y-124073810D01*
X137904762Y-123930952D01*
X137857143Y-123740476D01*
X137809524Y-123645238D01*
X137714286Y-123550000D01*
X137571428Y-123502381D01*
X137476190Y-123502381D01*
X137333333Y-123550000D01*
X137285714Y-123597619D01*
X136857143Y-124121429D02*
X136095238Y-124121429D01*
X135285714Y-123978571D02*
X135142857Y-124026190D01*
X135095238Y-124073810D01*
X135047619Y-124169048D01*
X135047619Y-124311905D01*
X135095238Y-124407143D01*
X135142857Y-124454762D01*
X135238095Y-124502381D01*
X135619048Y-124502381D01*
X135619048Y-123502381D01*
X135285714Y-123502381D01*
X135190476Y-123550000D01*
X135142857Y-123597619D01*
X135095238Y-123692857D01*
X135095238Y-123788095D01*
X135142857Y-123883333D01*
X135190476Y-123930952D01*
X135285714Y-123978571D01*
X135619048Y-123978571D01*
X134428572Y-124026190D02*
X134428572Y-124502381D01*
X134761905Y-123502381D02*
X134428572Y-124026190D01*
X134095238Y-123502381D01*
X133761905Y-124121429D02*
X133000000Y-124121429D01*
X132571429Y-124454762D02*
X132428572Y-124502381D01*
X132190476Y-124502381D01*
X132095238Y-124454762D01*
X132047619Y-124407143D01*
X132000000Y-124311905D01*
X132000000Y-124216667D01*
X132047619Y-124121429D01*
X132095238Y-124073810D01*
X132190476Y-124026190D01*
X132380953Y-123978571D01*
X132476191Y-123930952D01*
X132523810Y-123883333D01*
X132571429Y-123788095D01*
X132571429Y-123692857D01*
X132523810Y-123597619D01*
X132476191Y-123550000D01*
X132380953Y-123502381D01*
X132142857Y-123502381D01*
X132000000Y-123550000D01*
X131619048Y-124216667D02*
X131142857Y-124216667D01*
X131714286Y-124502381D02*
X131380953Y-123502381D01*
X131047619Y-124502381D01*
X129523809Y-123835714D02*
X129523809Y-124502381D01*
X129761905Y-123454762D02*
X130000000Y-124169048D01*
X129380952Y-124169048D01*
X129000000Y-124407143D02*
X128952381Y-124454762D01*
X129000000Y-124502381D01*
X129047619Y-124454762D01*
X129000000Y-124407143D01*
X129000000Y-124502381D01*
X128333334Y-123502381D02*
X128238095Y-123502381D01*
X128142857Y-123550000D01*
X128095238Y-123597619D01*
X128047619Y-123692857D01*
X128000000Y-123883333D01*
X128000000Y-124121429D01*
X128047619Y-124311905D01*
X128095238Y-124407143D01*
X128142857Y-124454762D01*
X128238095Y-124502381D01*
X128333334Y-124502381D01*
X128428572Y-124454762D01*
X128476191Y-124407143D01*
X128523810Y-124311905D01*
X128571429Y-124121429D01*
X128571429Y-123883333D01*
X128523810Y-123692857D01*
X128476191Y-123597619D01*
X128428572Y-123550000D01*
X128333334Y-123502381D01*
X142004762Y-43816667D02*
X141528571Y-43816667D01*
X142100000Y-44102381D02*
X141766667Y-43102381D01*
X141433333Y-44102381D01*
X140528571Y-44007143D02*
X140576190Y-44054762D01*
X140719047Y-44102381D01*
X140814285Y-44102381D01*
X140957143Y-44054762D01*
X141052381Y-43959524D01*
X141100000Y-43864286D01*
X141147619Y-43673810D01*
X141147619Y-43530952D01*
X141100000Y-43340476D01*
X141052381Y-43245238D01*
X140957143Y-43150000D01*
X140814285Y-43102381D01*
X140719047Y-43102381D01*
X140576190Y-43150000D01*
X140528571Y-43197619D01*
X140242857Y-43102381D02*
X139671428Y-43102381D01*
X139957143Y-44102381D02*
X139957143Y-43102381D01*
X139338095Y-44102381D02*
X139338095Y-43102381D01*
X139004762Y-43102381D02*
X138671429Y-44102381D01*
X138338095Y-43102381D01*
X138004762Y-43578571D02*
X137671428Y-43578571D01*
X137528571Y-44102381D02*
X138004762Y-44102381D01*
X138004762Y-43102381D01*
X137528571Y-43102381D01*
X135766666Y-44102381D02*
X136100000Y-43626190D01*
X136338095Y-44102381D02*
X136338095Y-43102381D01*
X135957142Y-43102381D01*
X135861904Y-43150000D01*
X135814285Y-43197619D01*
X135766666Y-43292857D01*
X135766666Y-43435714D01*
X135814285Y-43530952D01*
X135861904Y-43578571D01*
X135957142Y-43626190D01*
X136338095Y-43626190D01*
X135004761Y-43578571D02*
X135338095Y-43578571D01*
X135338095Y-44102381D02*
X135338095Y-43102381D01*
X134861904Y-43102381D01*
X133719047Y-44102381D02*
X133719047Y-43102381D01*
X133338094Y-43102381D01*
X133242856Y-43150000D01*
X133195237Y-43197619D01*
X133147618Y-43292857D01*
X133147618Y-43435714D01*
X133195237Y-43530952D01*
X133242856Y-43578571D01*
X133338094Y-43626190D01*
X133719047Y-43626190D01*
X132147618Y-44102381D02*
X132480952Y-43626190D01*
X132719047Y-44102381D02*
X132719047Y-43102381D01*
X132338094Y-43102381D01*
X132242856Y-43150000D01*
X132195237Y-43197619D01*
X132147618Y-43292857D01*
X132147618Y-43435714D01*
X132195237Y-43530952D01*
X132242856Y-43578571D01*
X132338094Y-43626190D01*
X132719047Y-43626190D01*
X131528571Y-43102381D02*
X131338094Y-43102381D01*
X131242856Y-43150000D01*
X131147618Y-43245238D01*
X131099999Y-43435714D01*
X131099999Y-43769048D01*
X131147618Y-43959524D01*
X131242856Y-44054762D01*
X131338094Y-44102381D01*
X131528571Y-44102381D01*
X131623809Y-44054762D01*
X131719047Y-43959524D01*
X131766666Y-43769048D01*
X131766666Y-43435714D01*
X131719047Y-43245238D01*
X131623809Y-43150000D01*
X131528571Y-43102381D01*
X130338094Y-43578571D02*
X130195237Y-43626190D01*
X130147618Y-43673810D01*
X130099999Y-43769048D01*
X130099999Y-43911905D01*
X130147618Y-44007143D01*
X130195237Y-44054762D01*
X130290475Y-44102381D01*
X130671428Y-44102381D01*
X130671428Y-43102381D01*
X130338094Y-43102381D01*
X130242856Y-43150000D01*
X130195237Y-43197619D01*
X130147618Y-43292857D01*
X130147618Y-43388095D01*
X130195237Y-43483333D01*
X130242856Y-43530952D01*
X130338094Y-43578571D01*
X130671428Y-43578571D01*
X129671428Y-43578571D02*
X129338094Y-43578571D01*
X129195237Y-44102381D02*
X129671428Y-44102381D01*
X129671428Y-43102381D01*
X129195237Y-43102381D01*
X142242857Y-45228571D02*
X142100000Y-45276190D01*
X142052381Y-45323810D01*
X142004762Y-45419048D01*
X142004762Y-45561905D01*
X142052381Y-45657143D01*
X142100000Y-45704762D01*
X142195238Y-45752381D01*
X142576191Y-45752381D01*
X142576191Y-44752381D01*
X142242857Y-44752381D01*
X142147619Y-44800000D01*
X142100000Y-44847619D01*
X142052381Y-44942857D01*
X142052381Y-45038095D01*
X142100000Y-45133333D01*
X142147619Y-45180952D01*
X142242857Y-45228571D01*
X142576191Y-45228571D01*
X141385715Y-45276190D02*
X141385715Y-45752381D01*
X141719048Y-44752381D02*
X141385715Y-45276190D01*
X141052381Y-44752381D01*
X139957143Y-45752381D02*
X139957143Y-44752381D01*
X139719048Y-44752381D01*
X139576190Y-44800000D01*
X139480952Y-44895238D01*
X139433333Y-44990476D01*
X139385714Y-45180952D01*
X139385714Y-45323810D01*
X139433333Y-45514286D01*
X139480952Y-45609524D01*
X139576190Y-45704762D01*
X139719048Y-45752381D01*
X139957143Y-45752381D01*
X138195238Y-45752381D02*
X138195238Y-44752381D01*
X137861904Y-45466667D01*
X137528571Y-44752381D01*
X137528571Y-45752381D01*
X137100000Y-45466667D02*
X136623809Y-45466667D01*
X137195238Y-45752381D02*
X136861905Y-44752381D01*
X136528571Y-45752381D01*
X135623809Y-45752381D02*
X135957143Y-45276190D01*
X136195238Y-45752381D02*
X136195238Y-44752381D01*
X135814285Y-44752381D01*
X135719047Y-44800000D01*
X135671428Y-44847619D01*
X135623809Y-44942857D01*
X135623809Y-45085714D01*
X135671428Y-45180952D01*
X135719047Y-45228571D01*
X135814285Y-45276190D01*
X136195238Y-45276190D01*
X135195238Y-45752381D02*
X135195238Y-44752381D01*
X134623809Y-45752381D02*
X135052381Y-45180952D01*
X134623809Y-44752381D02*
X135195238Y-45323810D01*
X134242857Y-45704762D02*
X134100000Y-45752381D01*
X133861904Y-45752381D01*
X133766666Y-45704762D01*
X133719047Y-45657143D01*
X133671428Y-45561905D01*
X133671428Y-45466667D01*
X133719047Y-45371429D01*
X133766666Y-45323810D01*
X133861904Y-45276190D01*
X134052381Y-45228571D01*
X134147619Y-45180952D01*
X134195238Y-45133333D01*
X134242857Y-45038095D01*
X134242857Y-44942857D01*
X134195238Y-44847619D01*
X134147619Y-44800000D01*
X134052381Y-44752381D01*
X133814285Y-44752381D01*
X133671428Y-44800000D01*
X132480952Y-45752381D02*
X132480952Y-44752381D01*
X131909523Y-45752381D02*
X132338095Y-45180952D01*
X131909523Y-44752381D02*
X132480952Y-45323810D01*
X131576190Y-44752381D02*
X131338095Y-45752381D01*
X131147618Y-45038095D01*
X130957142Y-45752381D01*
X130719047Y-44752381D01*
X129909523Y-45085714D02*
X129909523Y-45752381D01*
X130147619Y-44704762D02*
X130385714Y-45419048D01*
X129766666Y-45419048D01*
X129528571Y-44752381D02*
X128957142Y-44752381D01*
X129242857Y-45752381D02*
X129242857Y-44752381D01*
X128623809Y-45752381D02*
X128623809Y-44752381D01*
X140433333Y-47307143D02*
X140480952Y-47354762D01*
X140623809Y-47402381D01*
X140719047Y-47402381D01*
X140861905Y-47354762D01*
X140957143Y-47259524D01*
X141004762Y-47164286D01*
X141052381Y-46973810D01*
X141052381Y-46830952D01*
X141004762Y-46640476D01*
X140957143Y-46545238D01*
X140861905Y-46450000D01*
X140719047Y-46402381D01*
X140623809Y-46402381D01*
X140480952Y-46450000D01*
X140433333Y-46497619D01*
X139433333Y-47307143D02*
X139480952Y-47354762D01*
X139623809Y-47402381D01*
X139719047Y-47402381D01*
X139861905Y-47354762D01*
X139957143Y-47259524D01*
X140004762Y-47164286D01*
X140052381Y-46973810D01*
X140052381Y-46830952D01*
X140004762Y-46640476D01*
X139957143Y-46545238D01*
X139861905Y-46450000D01*
X139719047Y-46402381D01*
X139623809Y-46402381D01*
X139480952Y-46450000D01*
X139433333Y-46497619D01*
X139004762Y-47021429D02*
X138242857Y-47021429D01*
X137433333Y-46878571D02*
X137290476Y-46926190D01*
X137242857Y-46973810D01*
X137195238Y-47069048D01*
X137195238Y-47211905D01*
X137242857Y-47307143D01*
X137290476Y-47354762D01*
X137385714Y-47402381D01*
X137766667Y-47402381D01*
X137766667Y-46402381D01*
X137433333Y-46402381D01*
X137338095Y-46450000D01*
X137290476Y-46497619D01*
X137242857Y-46592857D01*
X137242857Y-46688095D01*
X137290476Y-46783333D01*
X137338095Y-46830952D01*
X137433333Y-46878571D01*
X137766667Y-46878571D01*
X136576191Y-46926190D02*
X136576191Y-47402381D01*
X136909524Y-46402381D02*
X136576191Y-46926190D01*
X136242857Y-46402381D01*
X135909524Y-47021429D02*
X135147619Y-47021429D01*
X134719048Y-47354762D02*
X134576191Y-47402381D01*
X134338095Y-47402381D01*
X134242857Y-47354762D01*
X134195238Y-47307143D01*
X134147619Y-47211905D01*
X134147619Y-47116667D01*
X134195238Y-47021429D01*
X134242857Y-46973810D01*
X134338095Y-46926190D01*
X134528572Y-46878571D01*
X134623810Y-46830952D01*
X134671429Y-46783333D01*
X134719048Y-46688095D01*
X134719048Y-46592857D01*
X134671429Y-46497619D01*
X134623810Y-46450000D01*
X134528572Y-46402381D01*
X134290476Y-46402381D01*
X134147619Y-46450000D01*
X133766667Y-47116667D02*
X133290476Y-47116667D01*
X133861905Y-47402381D02*
X133528572Y-46402381D01*
X133195238Y-47402381D01*
X131671428Y-46735714D02*
X131671428Y-47402381D01*
X131909524Y-46354762D02*
X132147619Y-47069048D01*
X131528571Y-47069048D01*
X131147619Y-47307143D02*
X131100000Y-47354762D01*
X131147619Y-47402381D01*
X131195238Y-47354762D01*
X131147619Y-47307143D01*
X131147619Y-47402381D01*
X130480953Y-46402381D02*
X130385714Y-46402381D01*
X130290476Y-46450000D01*
X130242857Y-46497619D01*
X130195238Y-46592857D01*
X130147619Y-46783333D01*
X130147619Y-47021429D01*
X130195238Y-47211905D01*
X130242857Y-47307143D01*
X130290476Y-47354762D01*
X130385714Y-47402381D01*
X130480953Y-47402381D01*
X130576191Y-47354762D01*
X130623810Y-47307143D01*
X130671429Y-47211905D01*
X130719048Y-47021429D01*
X130719048Y-46783333D01*
X130671429Y-46592857D01*
X130623810Y-46497619D01*
X130576191Y-46450000D01*
X130480953Y-46402381D01*
X128519047Y-49752381D02*
X128852381Y-49276190D01*
X129090476Y-49752381D02*
X129090476Y-48752381D01*
X128709523Y-48752381D01*
X128614285Y-48800000D01*
X128566666Y-48847619D01*
X128519047Y-48942857D01*
X128519047Y-49085714D01*
X128566666Y-49180952D01*
X128614285Y-49228571D01*
X128709523Y-49276190D01*
X129090476Y-49276190D01*
X127757142Y-49228571D02*
X128090476Y-49228571D01*
X128090476Y-49752381D02*
X128090476Y-48752381D01*
X127614285Y-48752381D01*
X129361904Y-40800000D02*
X129457142Y-40752381D01*
X129599999Y-40752381D01*
X129742857Y-40800000D01*
X129838095Y-40895238D01*
X129885714Y-40990476D01*
X129933333Y-41180952D01*
X129933333Y-41323810D01*
X129885714Y-41514286D01*
X129838095Y-41609524D01*
X129742857Y-41704762D01*
X129599999Y-41752381D01*
X129504761Y-41752381D01*
X129361904Y-41704762D01*
X129314285Y-41657143D01*
X129314285Y-41323810D01*
X129504761Y-41323810D01*
X128885714Y-41752381D02*
X128885714Y-40752381D01*
X128314285Y-41752381D01*
X128314285Y-40752381D01*
X127838095Y-41752381D02*
X127838095Y-40752381D01*
X127600000Y-40752381D01*
X127457142Y-40800000D01*
X127361904Y-40895238D01*
X127314285Y-40990476D01*
X127266666Y-41180952D01*
X127266666Y-41323810D01*
X127314285Y-41514286D01*
X127361904Y-41609524D01*
X127457142Y-41704762D01*
X127600000Y-41752381D01*
X127838095Y-41752381D01*
X124461904Y-129200000D02*
X124557142Y-129152381D01*
X124699999Y-129152381D01*
X124842857Y-129200000D01*
X124938095Y-129295238D01*
X124985714Y-129390476D01*
X125033333Y-129580952D01*
X125033333Y-129723810D01*
X124985714Y-129914286D01*
X124938095Y-130009524D01*
X124842857Y-130104762D01*
X124699999Y-130152381D01*
X124604761Y-130152381D01*
X124461904Y-130104762D01*
X124414285Y-130057143D01*
X124414285Y-129723810D01*
X124604761Y-129723810D01*
X123985714Y-130152381D02*
X123985714Y-129152381D01*
X123414285Y-130152381D01*
X123414285Y-129152381D01*
X122938095Y-130152381D02*
X122938095Y-129152381D01*
X122700000Y-129152381D01*
X122557142Y-129200000D01*
X122461904Y-129295238D01*
X122414285Y-129390476D01*
X122366666Y-129580952D01*
X122366666Y-129723810D01*
X122414285Y-129914286D01*
X122461904Y-130009524D01*
X122557142Y-130104762D01*
X122700000Y-130152381D01*
X122938095Y-130152381D01*
X124161904Y-119100000D02*
X124257142Y-119052381D01*
X124399999Y-119052381D01*
X124542857Y-119100000D01*
X124638095Y-119195238D01*
X124685714Y-119290476D01*
X124733333Y-119480952D01*
X124733333Y-119623810D01*
X124685714Y-119814286D01*
X124638095Y-119909524D01*
X124542857Y-120004762D01*
X124399999Y-120052381D01*
X124304761Y-120052381D01*
X124161904Y-120004762D01*
X124114285Y-119957143D01*
X124114285Y-119623810D01*
X124304761Y-119623810D01*
X123685714Y-120052381D02*
X123685714Y-119052381D01*
X123114285Y-120052381D01*
X123114285Y-119052381D01*
X122638095Y-120052381D02*
X122638095Y-119052381D01*
X122400000Y-119052381D01*
X122257142Y-119100000D01*
X122161904Y-119195238D01*
X122114285Y-119290476D01*
X122066666Y-119480952D01*
X122066666Y-119623810D01*
X122114285Y-119814286D01*
X122161904Y-119909524D01*
X122257142Y-120004762D01*
X122400000Y-120052381D01*
X122638095Y-120052381D01*
X123819047Y-125652381D02*
X124152381Y-125176190D01*
X124390476Y-125652381D02*
X124390476Y-124652381D01*
X124009523Y-124652381D01*
X123914285Y-124700000D01*
X123866666Y-124747619D01*
X123819047Y-124842857D01*
X123819047Y-124985714D01*
X123866666Y-125080952D01*
X123914285Y-125128571D01*
X124009523Y-125176190D01*
X124390476Y-125176190D01*
X123057142Y-125128571D02*
X123390476Y-125128571D01*
X123390476Y-125652381D02*
X123390476Y-124652381D01*
X122914285Y-124652381D01*
X123719047Y-111252381D02*
X124052381Y-110776190D01*
X124290476Y-111252381D02*
X124290476Y-110252381D01*
X123909523Y-110252381D01*
X123814285Y-110300000D01*
X123766666Y-110347619D01*
X123719047Y-110442857D01*
X123719047Y-110585714D01*
X123766666Y-110680952D01*
X123814285Y-110728571D01*
X123909523Y-110776190D01*
X124290476Y-110776190D01*
X122957142Y-110728571D02*
X123290476Y-110728571D01*
X123290476Y-111252381D02*
X123290476Y-110252381D01*
X122814285Y-110252381D01*
X143016667Y-110452381D02*
X143016667Y-110928572D01*
X143302381Y-110357143D02*
X142302381Y-110690476D01*
X143302381Y-111023810D01*
X143207143Y-111928572D02*
X143254762Y-111880953D01*
X143302381Y-111738096D01*
X143302381Y-111642858D01*
X143254762Y-111500000D01*
X143159524Y-111404762D01*
X143064286Y-111357143D01*
X142873810Y-111309524D01*
X142730952Y-111309524D01*
X142540476Y-111357143D01*
X142445238Y-111404762D01*
X142350000Y-111500000D01*
X142302381Y-111642858D01*
X142302381Y-111738096D01*
X142350000Y-111880953D01*
X142397619Y-111928572D01*
X142302381Y-112214286D02*
X142302381Y-112785715D01*
X143302381Y-112500000D02*
X142302381Y-112500000D01*
X143302381Y-113119048D02*
X142302381Y-113119048D01*
X142302381Y-113452381D02*
X143302381Y-113785714D01*
X142302381Y-114119048D01*
X142778571Y-114452381D02*
X142778571Y-114785715D01*
X143302381Y-114928572D02*
X143302381Y-114452381D01*
X142302381Y-114452381D01*
X142302381Y-114928572D01*
X143302381Y-116690477D02*
X142826190Y-116357143D01*
X143302381Y-116119048D02*
X142302381Y-116119048D01*
X142302381Y-116500001D01*
X142350000Y-116595239D01*
X142397619Y-116642858D01*
X142492857Y-116690477D01*
X142635714Y-116690477D01*
X142730952Y-116642858D01*
X142778571Y-116595239D01*
X142826190Y-116500001D01*
X142826190Y-116119048D01*
X142778571Y-117452382D02*
X142778571Y-117119048D01*
X143302381Y-117119048D02*
X142302381Y-117119048D01*
X142302381Y-117595239D01*
X144952381Y-109261905D02*
X143952381Y-109261905D01*
X143952381Y-109500000D01*
X144000000Y-109642858D01*
X144095238Y-109738096D01*
X144190476Y-109785715D01*
X144380952Y-109833334D01*
X144523810Y-109833334D01*
X144714286Y-109785715D01*
X144809524Y-109738096D01*
X144904762Y-109642858D01*
X144952381Y-109500000D01*
X144952381Y-109261905D01*
X144952381Y-110261905D02*
X143952381Y-110261905D01*
X144428571Y-111071429D02*
X144428571Y-110738095D01*
X144952381Y-110738095D02*
X143952381Y-110738095D01*
X143952381Y-111214286D01*
X144428571Y-111928572D02*
X144428571Y-111595238D01*
X144952381Y-111595238D02*
X143952381Y-111595238D01*
X143952381Y-112071429D01*
X144428571Y-112452381D02*
X144428571Y-112785715D01*
X144952381Y-112928572D02*
X144952381Y-112452381D01*
X143952381Y-112452381D01*
X143952381Y-112928572D01*
X144952381Y-113928572D02*
X144476190Y-113595238D01*
X144952381Y-113357143D02*
X143952381Y-113357143D01*
X143952381Y-113738096D01*
X144000000Y-113833334D01*
X144047619Y-113880953D01*
X144142857Y-113928572D01*
X144285714Y-113928572D01*
X144380952Y-113880953D01*
X144428571Y-113833334D01*
X144476190Y-113738096D01*
X144476190Y-113357143D01*
X144428571Y-114357143D02*
X144428571Y-114690477D01*
X144952381Y-114833334D02*
X144952381Y-114357143D01*
X143952381Y-114357143D01*
X143952381Y-114833334D01*
X144952381Y-115261905D02*
X143952381Y-115261905D01*
X144952381Y-115833334D01*
X143952381Y-115833334D01*
X143952381Y-116166667D02*
X143952381Y-116738096D01*
X144952381Y-116452381D02*
X143952381Y-116452381D01*
X144952381Y-117071429D02*
X143952381Y-117071429D01*
X144666667Y-117500000D02*
X144666667Y-117976191D01*
X144952381Y-117404762D02*
X143952381Y-117738095D01*
X144952381Y-118071429D01*
X144952381Y-118880953D02*
X144952381Y-118404762D01*
X143952381Y-118404762D01*
X146602381Y-111761905D02*
X145602381Y-111761905D01*
X145602381Y-112142858D01*
X145650000Y-112238096D01*
X145697619Y-112285715D01*
X145792857Y-112333334D01*
X145935714Y-112333334D01*
X146030952Y-112285715D01*
X146078571Y-112238096D01*
X146126190Y-112142858D01*
X146126190Y-111761905D01*
X146602381Y-113333334D02*
X146126190Y-113000000D01*
X146602381Y-112761905D02*
X145602381Y-112761905D01*
X145602381Y-113142858D01*
X145650000Y-113238096D01*
X145697619Y-113285715D01*
X145792857Y-113333334D01*
X145935714Y-113333334D01*
X146030952Y-113285715D01*
X146078571Y-113238096D01*
X146126190Y-113142858D01*
X146126190Y-112761905D01*
X145602381Y-113952381D02*
X145602381Y-114142858D01*
X145650000Y-114238096D01*
X145745238Y-114333334D01*
X145935714Y-114380953D01*
X146269048Y-114380953D01*
X146459524Y-114333334D01*
X146554762Y-114238096D01*
X146602381Y-114142858D01*
X146602381Y-113952381D01*
X146554762Y-113857143D01*
X146459524Y-113761905D01*
X146269048Y-113714286D01*
X145935714Y-113714286D01*
X145745238Y-113761905D01*
X145650000Y-113857143D01*
X145602381Y-113952381D01*
X146078571Y-115142858D02*
X146126190Y-115285715D01*
X146173810Y-115333334D01*
X146269048Y-115380953D01*
X146411905Y-115380953D01*
X146507143Y-115333334D01*
X146554762Y-115285715D01*
X146602381Y-115190477D01*
X146602381Y-114809524D01*
X145602381Y-114809524D01*
X145602381Y-115142858D01*
X145650000Y-115238096D01*
X145697619Y-115285715D01*
X145792857Y-115333334D01*
X145888095Y-115333334D01*
X145983333Y-115285715D01*
X146030952Y-115238096D01*
X146078571Y-115142858D01*
X146078571Y-114809524D01*
X146078571Y-115809524D02*
X146078571Y-116142858D01*
X146602381Y-116285715D02*
X146602381Y-115809524D01*
X145602381Y-115809524D01*
X145602381Y-116285715D01*
X143703571Y-54300000D02*
X143703571Y-54633334D01*
X144227381Y-54776191D02*
X144227381Y-54300000D01*
X143227381Y-54300000D01*
X143227381Y-54776191D01*
X144227381Y-55204762D02*
X143227381Y-55204762D01*
X144227381Y-55776191D01*
X143227381Y-55776191D01*
X143227381Y-56109524D02*
X144227381Y-56442857D01*
X143227381Y-56776191D01*
X143703571Y-57109524D02*
X143703571Y-57442858D01*
X144227381Y-57585715D02*
X144227381Y-57109524D01*
X143227381Y-57109524D01*
X143227381Y-57585715D01*
X144227381Y-58490477D02*
X144227381Y-58014286D01*
X143227381Y-58014286D01*
X143227381Y-59014286D02*
X143227381Y-59204763D01*
X143275000Y-59300001D01*
X143370238Y-59395239D01*
X143560714Y-59442858D01*
X143894048Y-59442858D01*
X144084524Y-59395239D01*
X144179762Y-59300001D01*
X144227381Y-59204763D01*
X144227381Y-59014286D01*
X144179762Y-58919048D01*
X144084524Y-58823810D01*
X143894048Y-58776191D01*
X143560714Y-58776191D01*
X143370238Y-58823810D01*
X143275000Y-58919048D01*
X143227381Y-59014286D01*
X144227381Y-59871429D02*
X143227381Y-59871429D01*
X143227381Y-60252382D01*
X143275000Y-60347620D01*
X143322619Y-60395239D01*
X143417857Y-60442858D01*
X143560714Y-60442858D01*
X143655952Y-60395239D01*
X143703571Y-60347620D01*
X143751190Y-60252382D01*
X143751190Y-59871429D01*
X143703571Y-60871429D02*
X143703571Y-61204763D01*
X144227381Y-61347620D02*
X144227381Y-60871429D01*
X143227381Y-60871429D01*
X143227381Y-61347620D01*
X144877381Y-56800000D02*
X144877381Y-56990477D01*
X144925000Y-57085715D01*
X145020238Y-57180953D01*
X145210714Y-57228572D01*
X145544048Y-57228572D01*
X145734524Y-57180953D01*
X145829762Y-57085715D01*
X145877381Y-56990477D01*
X145877381Y-56800000D01*
X145829762Y-56704762D01*
X145734524Y-56609524D01*
X145544048Y-56561905D01*
X145210714Y-56561905D01*
X145020238Y-56609524D01*
X144925000Y-56704762D01*
X144877381Y-56800000D01*
X144877381Y-57657143D02*
X145686905Y-57657143D01*
X145782143Y-57704762D01*
X145829762Y-57752381D01*
X145877381Y-57847619D01*
X145877381Y-58038096D01*
X145829762Y-58133334D01*
X145782143Y-58180953D01*
X145686905Y-58228572D01*
X144877381Y-58228572D01*
X144877381Y-58561905D02*
X144877381Y-59133334D01*
X145877381Y-58847619D02*
X144877381Y-58847619D01*
X146116667Y-42952381D02*
X146116667Y-43428572D01*
X146402381Y-42857143D02*
X145402381Y-43190476D01*
X146402381Y-43523810D01*
X146307143Y-44428572D02*
X146354762Y-44380953D01*
X146402381Y-44238096D01*
X146402381Y-44142858D01*
X146354762Y-44000000D01*
X146259524Y-43904762D01*
X146164286Y-43857143D01*
X145973810Y-43809524D01*
X145830952Y-43809524D01*
X145640476Y-43857143D01*
X145545238Y-43904762D01*
X145450000Y-44000000D01*
X145402381Y-44142858D01*
X145402381Y-44238096D01*
X145450000Y-44380953D01*
X145497619Y-44428572D01*
X145402381Y-44714286D02*
X145402381Y-45285715D01*
X146402381Y-45000000D02*
X145402381Y-45000000D01*
X146402381Y-45619048D02*
X145402381Y-45619048D01*
X145402381Y-45952381D02*
X146402381Y-46285714D01*
X145402381Y-46619048D01*
X145878571Y-46952381D02*
X145878571Y-47285715D01*
X146402381Y-47428572D02*
X146402381Y-46952381D01*
X145402381Y-46952381D01*
X145402381Y-47428572D01*
X146402381Y-49190477D02*
X145926190Y-48857143D01*
X146402381Y-48619048D02*
X145402381Y-48619048D01*
X145402381Y-49000001D01*
X145450000Y-49095239D01*
X145497619Y-49142858D01*
X145592857Y-49190477D01*
X145735714Y-49190477D01*
X145830952Y-49142858D01*
X145878571Y-49095239D01*
X145926190Y-49000001D01*
X145926190Y-48619048D01*
X145878571Y-49952382D02*
X145878571Y-49619048D01*
X146402381Y-49619048D02*
X145402381Y-49619048D01*
X145402381Y-50095239D01*
X148052381Y-44261905D02*
X147052381Y-44261905D01*
X147052381Y-44642858D01*
X147100000Y-44738096D01*
X147147619Y-44785715D01*
X147242857Y-44833334D01*
X147385714Y-44833334D01*
X147480952Y-44785715D01*
X147528571Y-44738096D01*
X147576190Y-44642858D01*
X147576190Y-44261905D01*
X148052381Y-45833334D02*
X147576190Y-45500000D01*
X148052381Y-45261905D02*
X147052381Y-45261905D01*
X147052381Y-45642858D01*
X147100000Y-45738096D01*
X147147619Y-45785715D01*
X147242857Y-45833334D01*
X147385714Y-45833334D01*
X147480952Y-45785715D01*
X147528571Y-45738096D01*
X147576190Y-45642858D01*
X147576190Y-45261905D01*
X147052381Y-46452381D02*
X147052381Y-46642858D01*
X147100000Y-46738096D01*
X147195238Y-46833334D01*
X147385714Y-46880953D01*
X147719048Y-46880953D01*
X147909524Y-46833334D01*
X148004762Y-46738096D01*
X148052381Y-46642858D01*
X148052381Y-46452381D01*
X148004762Y-46357143D01*
X147909524Y-46261905D01*
X147719048Y-46214286D01*
X147385714Y-46214286D01*
X147195238Y-46261905D01*
X147100000Y-46357143D01*
X147052381Y-46452381D01*
X147528571Y-47642858D02*
X147576190Y-47785715D01*
X147623810Y-47833334D01*
X147719048Y-47880953D01*
X147861905Y-47880953D01*
X147957143Y-47833334D01*
X148004762Y-47785715D01*
X148052381Y-47690477D01*
X148052381Y-47309524D01*
X147052381Y-47309524D01*
X147052381Y-47642858D01*
X147100000Y-47738096D01*
X147147619Y-47785715D01*
X147242857Y-47833334D01*
X147338095Y-47833334D01*
X147433333Y-47785715D01*
X147480952Y-47738096D01*
X147528571Y-47642858D01*
X147528571Y-47309524D01*
X147528571Y-48309524D02*
X147528571Y-48642858D01*
X148052381Y-48785715D02*
X148052381Y-48309524D01*
X147052381Y-48309524D01*
X147052381Y-48785715D01*
X148702381Y-45500000D02*
X148702381Y-45690477D01*
X148750000Y-45785715D01*
X148845238Y-45880953D01*
X149035714Y-45928572D01*
X149369048Y-45928572D01*
X149559524Y-45880953D01*
X149654762Y-45785715D01*
X149702381Y-45690477D01*
X149702381Y-45500000D01*
X149654762Y-45404762D01*
X149559524Y-45309524D01*
X149369048Y-45261905D01*
X149035714Y-45261905D01*
X148845238Y-45309524D01*
X148750000Y-45404762D01*
X148702381Y-45500000D01*
X148702381Y-46357143D02*
X149511905Y-46357143D01*
X149607143Y-46404762D01*
X149654762Y-46452381D01*
X149702381Y-46547619D01*
X149702381Y-46738096D01*
X149654762Y-46833334D01*
X149607143Y-46880953D01*
X149511905Y-46928572D01*
X148702381Y-46928572D01*
X148702381Y-47261905D02*
X148702381Y-47833334D01*
X149702381Y-47547619D02*
X148702381Y-47547619D01*
X139404762Y-35642857D02*
X139452381Y-35785714D01*
X139452381Y-36023810D01*
X139404762Y-36119048D01*
X139357143Y-36166667D01*
X139261905Y-36214286D01*
X139166667Y-36214286D01*
X139071429Y-36166667D01*
X139023810Y-36119048D01*
X138976190Y-36023810D01*
X138928571Y-35833333D01*
X138880952Y-35738095D01*
X138833333Y-35690476D01*
X138738095Y-35642857D01*
X138642857Y-35642857D01*
X138547619Y-35690476D01*
X138500000Y-35738095D01*
X138452381Y-35833333D01*
X138452381Y-36071429D01*
X138500000Y-36214286D01*
X138452381Y-36547619D02*
X139452381Y-36785714D01*
X138738095Y-36976191D01*
X139452381Y-37166667D01*
X138452381Y-37404762D01*
X134904762Y-35642857D02*
X134952381Y-35785714D01*
X134952381Y-36023810D01*
X134904762Y-36119048D01*
X134857143Y-36166667D01*
X134761905Y-36214286D01*
X134666667Y-36214286D01*
X134571429Y-36166667D01*
X134523810Y-36119048D01*
X134476190Y-36023810D01*
X134428571Y-35833333D01*
X134380952Y-35738095D01*
X134333333Y-35690476D01*
X134238095Y-35642857D01*
X134142857Y-35642857D01*
X134047619Y-35690476D01*
X134000000Y-35738095D01*
X133952381Y-35833333D01*
X133952381Y-36071429D01*
X134000000Y-36214286D01*
X133952381Y-36547619D02*
X134952381Y-36785714D01*
X134238095Y-36976191D01*
X134952381Y-37166667D01*
X133952381Y-37404762D01*
X138928571Y-38642858D02*
X138976190Y-38785715D01*
X139023810Y-38833334D01*
X139119048Y-38880953D01*
X139261905Y-38880953D01*
X139357143Y-38833334D01*
X139404762Y-38785715D01*
X139452381Y-38690477D01*
X139452381Y-38309524D01*
X138452381Y-38309524D01*
X138452381Y-38642858D01*
X138500000Y-38738096D01*
X138547619Y-38785715D01*
X138642857Y-38833334D01*
X138738095Y-38833334D01*
X138833333Y-38785715D01*
X138880952Y-38738096D01*
X138928571Y-38642858D01*
X138928571Y-38309524D01*
X139166667Y-39261905D02*
X139166667Y-39738096D01*
X139452381Y-39166667D02*
X138452381Y-39500000D01*
X139452381Y-39833334D01*
X138452381Y-40023810D02*
X138452381Y-40595239D01*
X139452381Y-40309524D02*
X138452381Y-40309524D01*
X139071429Y-40928572D02*
X139071429Y-41690477D01*
X134428571Y-38642858D02*
X134476190Y-38785715D01*
X134523810Y-38833334D01*
X134619048Y-38880953D01*
X134761905Y-38880953D01*
X134857143Y-38833334D01*
X134904762Y-38785715D01*
X134952381Y-38690477D01*
X134952381Y-38309524D01*
X133952381Y-38309524D01*
X133952381Y-38642858D01*
X134000000Y-38738096D01*
X134047619Y-38785715D01*
X134142857Y-38833334D01*
X134238095Y-38833334D01*
X134333333Y-38785715D01*
X134380952Y-38738096D01*
X134428571Y-38642858D01*
X134428571Y-38309524D01*
X134666667Y-39261905D02*
X134666667Y-39738096D01*
X134952381Y-39166667D02*
X133952381Y-39500000D01*
X134952381Y-39833334D01*
X133952381Y-40023810D02*
X133952381Y-40595239D01*
X134952381Y-40309524D02*
X133952381Y-40309524D01*
X134571429Y-40928572D02*
X134571429Y-41690477D01*
X134952381Y-41309525D02*
X134190476Y-41309525D01*
M02*
